<svg xmlns="http://www.w3.org/2000/svg" viewBox="0 0 1600 900" role="img" aria-labelledby="t d">
<title id="t">Orovian Oasis Showcase</title><desc id="d">Concept Homes • Transformations • Properties</desc>
<defs>
  <linearGradient id="bg" x2="1" y2="1"><stop stop-color="#061523"/><stop offset=".55" stop-color="#0b2b49"/><stop offset="1" stop-color="#132d35"/></linearGradient>
  <linearGradient id="gold" x2="1"><stop stop-color="#f2dc73"/><stop offset="1" stop-color="#d9bd55"/></linearGradient>
</defs>
<rect width="1600" height="900" fill="url(#bg)"/>
<circle cx="1325" cy="140" r="210" fill="#ffffff" opacity=".035"/>
<path d="M0 690L1600 520V900H0Z" fill="#17322d"/>
<path d="M250 660L690 410L1240 575L790 805Z" fill="#8e816b"/>
<path d="M315 625L690 430V700L315 785Z" fill="#d9ccb2"/>
<path d="M690 430L1160 570V745L690 700Z" fill="#756955"/>
<path d="M555 500L690 430L890 490L750 560Z" fill="#111820"/>
<path d="M690 430L890 490V620L690 560Z" fill="#c8b99a"/>
<path d="M1040 690L1275 633L1400 682L1165 745Z" fill="#287d99" opacity=".9"/>
<path d="M1048 678L1275 623L1405 671" fill="none" stroke="#f1dfb1" stroke-width="17"/>
<rect x="86" y="83" width="250" height="42" rx="21" fill="none" stroke="#d9bd55" opacity=".75"/>
<text x="211" y="111" text-anchor="middle" fill="#d9bd55" font-family="Arial, sans-serif" font-size="18" font-weight="700" letter-spacing="4">SHOWCASE</text>
<text x="86" y="214" fill="url(#gold)" font-family="Georgia, serif" font-size="77" font-style="italic" font-weight="700">Orovian Oasis Showcase</text>
<text x="90" y="268" fill="#d0d9df" font-family="Arial, sans-serif" font-size="25">Concept Homes • Transformations • Properties</text>
<text x="90" y="826" fill="#9aaab8" font-family="Arial, sans-serif" font-size="18" letter-spacing="3">OROVIAN OASIS SHOWCASE • PLACEHOLDER MEDIA</text>
</svg>