0
SECTION
2
HEADER
9
$ACADVER
1
AC1009
9
$INSUNITS
70
1
0
ENDSEC
0
SECTION
2
TABLES
0
TABLE
2
LAYER
70
12
0
LAYER
2
0
70
0
62
7
6
CONTINUOUS
0
LAYER
2
A-WALL
70
0
62
7
6
CONTINUOUS
0
LAYER
2
A-DOOR
70
0
62
3
6
CONTINUOUS
0
LAYER
2
A-WIND
70
0
62
4
6
CONTINUOUS
0
LAYER
2
A-STAIR
70
0
62
2
6
CONTINUOUS
0
LAYER
2
A-FURN
70
0
62
6
6
CONTINUOUS
0
LAYER
2
A-FIXT
70
0
62
5
6
CONTINUOUS
0
LAYER
2
A-CAB
70
0
62
30
6
CONTINUOUS
0
LAYER
2
A-DIMS
70
0
62
1
6
CONTINUOUS
0
LAYER
2
A-TEXT
70
0
62
7
6
CONTINUOUS
0
LAYER
2
A-LAND
70
0
62
3
6
CONTINUOUS
0
LAYER
2
A-OVER
70
0
62
8
6
CONTINUOUS
0
ENDTAB
0
ENDSEC
0
SECTION
2
ENTITIES
0
LINE
8
A-OVER
10
0
20
0
30
0
11
288
21
0
31
0
0
LINE
8
A-OVER
10
288
20
0
30
0
11
288
21
720
31
0
0
LINE
8
A-OVER
10
288
20
720
30
0
11
0
21
720
31
0
0
LINE
8
A-OVER
10
0
20
720
30
0
11
0
21
0
31
0
0
LINE
8
A-OVER
10
576
20
0
30
0
11
864
21
0
31
0
0
LINE
8
A-OVER
10
864
20
0
30
0
11
864
21
720
31
0
0
LINE
8
A-OVER
10
864
20
720
30
0
11
576
21
720
31
0
0
LINE
8
A-OVER
10
576
20
720
30
0
11
576
21
0
31
0
0
LINE
8
A-OVER
10
288
20
0
30
0
11
576
21
0
31
0
0
LINE
8
A-OVER
10
576
20
0
30
0
11
576
21
180
31
0
0
LINE
8
A-OVER
10
576
20
180
30
0
11
288
21
180
31
0
0
LINE
8
A-OVER
10
288
20
180
30
0
11
288
21
0
31
0
0
LINE
8
A-OVER
10
288
20
456
30
0
11
648
21
456
31
0
0
LINE
8
A-OVER
10
648
20
456
30
0
11
648
21
552
31
0
0
LINE
8
A-OVER
10
648
20
552
30
0
11
288
21
552
31
0
0
LINE
8
A-OVER
10
288
20
552
30
0
11
288
21
456
31
0
0
LINE
8
A-OVER
10
288
20
552
30
0
11
408
21
552
31
0
0
LINE
8
A-OVER
10
408
20
552
30
0
11
408
21
840
31
0
0
LINE
8
A-OVER
10
408
20
840
30
0
11
288
21
840
31
0
0
LINE
8
A-OVER
10
288
20
840
30
0
11
288
21
552
31
0
0
LINE
8
A-OVER
10
408
20
768
30
0
11
552
21
768
31
0
0
LINE
8
A-OVER
10
552
20
768
30
0
11
552
21
840
31
0
0
LINE
8
A-OVER
10
552
20
840
30
0
11
408
21
840
31
0
0
LINE
8
A-OVER
10
408
20
840
30
0
11
408
21
768
31
0
0
LINE
8
A-WALL
10
0
20
-3.0
30
0
11
48
21
-3.0
31
0
0
LINE
8
A-WALL
10
48
20
-3.0
30
0
11
48
21
3.0
31
0
0
LINE
8
A-WALL
10
48
20
3.0
30
0
11
0
21
3.0
31
0
0
LINE
8
A-WALL
10
0
20
3.0
30
0
11
0
21
-3.0
31
0
0
LINE
8
A-WALL
10
132
20
-3.0
30
0
11
168
21
-3.0
31
0
0
LINE
8
A-WALL
10
168
20
-3.0
30
0
11
168
21
3.0
31
0
0
LINE
8
A-WALL
10
168
20
3.0
30
0
11
132
21
3.0
31
0
0
LINE
8
A-WALL
10
132
20
3.0
30
0
11
132
21
-3.0
31
0
0
LINE
8
A-WALL
10
252
20
-3.0
30
0
11
288
21
-3.0
31
0
0
LINE
8
A-WALL
10
288
20
-3.0
30
0
11
288
21
3.0
31
0
0
LINE
8
A-WALL
10
288
20
3.0
30
0
11
252
21
3.0
31
0
0
LINE
8
A-WALL
10
252
20
3.0
30
0
11
252
21
-3.0
31
0
0
LINE
8
A-WALL
10
-3.0
20
0
30
0
11
3.0
21
0
31
0
0
LINE
8
A-WALL
10
3.0
20
0
30
0
11
3.0
21
60
31
0
0
LINE
8
A-WALL
10
3.0
20
60
30
0
11
-3.0
21
60
31
0
0
LINE
8
A-WALL
10
-3.0
20
60
30
0
11
-3.0
21
0
31
0
0
LINE
8
A-WALL
10
-3.0
20
204
30
0
11
3.0
21
204
31
0
0
LINE
8
A-WALL
10
3.0
20
204
30
0
11
3.0
21
504
31
0
0
LINE
8
A-WALL
10
3.0
20
504
30
0
11
-3.0
21
504
31
0
0
LINE
8
A-WALL
10
-3.0
20
504
30
0
11
-3.0
21
204
31
0
0
LINE
8
A-WALL
10
-3.0
20
648
30
0
11
3.0
21
648
31
0
0
LINE
8
A-WALL
10
3.0
20
648
30
0
11
3.0
21
720
31
0
0
LINE
8
A-WALL
10
3.0
20
720
30
0
11
-3.0
21
720
31
0
0
LINE
8
A-WALL
10
-3.0
20
720
30
0
11
-3.0
21
648
31
0
0
LINE
8
A-WALL
10
0
20
717.0
30
0
11
60
21
717.0
31
0
0
LINE
8
A-WALL
10
60
20
717.0
30
0
11
60
21
723.0
31
0
0
LINE
8
A-WALL
10
60
20
723.0
30
0
11
0
21
723.0
31
0
0
LINE
8
A-WALL
10
0
20
723.0
30
0
11
0
21
717.0
31
0
0
LINE
8
A-WALL
10
240
20
717.0
30
0
11
288
21
717.0
31
0
0
LINE
8
A-WALL
10
288
20
717.0
30
0
11
288
21
723.0
31
0
0
LINE
8
A-WALL
10
288
20
723.0
30
0
11
240
21
723.0
31
0
0
LINE
8
A-WALL
10
240
20
723.0
30
0
11
240
21
717.0
31
0
0
LINE
8
A-WALL
10
285.0
20
0
30
0
11
291.0
21
0
31
0
0
LINE
8
A-WALL
10
291.0
20
0
30
0
11
291.0
21
84
31
0
0
LINE
8
A-WALL
10
291.0
20
84
30
0
11
285.0
21
84
31
0
0
LINE
8
A-WALL
10
285.0
20
84
30
0
11
285.0
21
0
31
0
0
LINE
8
A-WALL
10
285.0
20
144
30
0
11
291.0
21
144
31
0
0
LINE
8
A-WALL
10
291.0
20
144
30
0
11
291.0
21
324
31
0
0
LINE
8
A-WALL
10
291.0
20
324
30
0
11
285.0
21
324
31
0
0
LINE
8
A-WALL
10
285.0
20
324
30
0
11
285.0
21
144
31
0
0
LINE
8
A-WALL
10
285.0
20
372
30
0
11
291.0
21
372
31
0
0
LINE
8
A-WALL
10
291.0
20
372
30
0
11
291.0
21
480
31
0
0
LINE
8
A-WALL
10
291.0
20
480
30
0
11
285.0
21
480
31
0
0
LINE
8
A-WALL
10
285.0
20
480
30
0
11
285.0
21
372
31
0
0
LINE
8
A-WALL
10
285.0
20
564
30
0
11
291.0
21
564
31
0
0
LINE
8
A-WALL
10
291.0
20
564
30
0
11
291.0
21
720
31
0
0
LINE
8
A-WALL
10
291.0
20
720
30
0
11
285.0
21
720
31
0
0
LINE
8
A-WALL
10
285.0
20
720
30
0
11
285.0
21
564
31
0
0
LINE
8
A-WALL
10
576
20
-3.0
30
0
11
624
21
-3.0
31
0
0
LINE
8
A-WALL
10
624
20
-3.0
30
0
11
624
21
3.0
31
0
0
LINE
8
A-WALL
10
624
20
3.0
30
0
11
576
21
3.0
31
0
0
LINE
8
A-WALL
10
576
20
3.0
30
0
11
576
21
-3.0
31
0
0
LINE
8
A-WALL
10
708
20
-3.0
30
0
11
744
21
-3.0
31
0
0
LINE
8
A-WALL
10
744
20
-3.0
30
0
11
744
21
3.0
31
0
0
LINE
8
A-WALL
10
744
20
3.0
30
0
11
708
21
3.0
31
0
0
LINE
8
A-WALL
10
708
20
3.0
30
0
11
708
21
-3.0
31
0
0
LINE
8
A-WALL
10
828
20
-3.0
30
0
11
864
21
-3.0
31
0
0
LINE
8
A-WALL
10
864
20
-3.0
30
0
11
864
21
3.0
31
0
0
LINE
8
A-WALL
10
864
20
3.0
30
0
11
828
21
3.0
31
0
0
LINE
8
A-WALL
10
828
20
3.0
30
0
11
828
21
-3.0
31
0
0
LINE
8
A-WALL
10
861.0
20
0
30
0
11
867.0
21
0
31
0
0
LINE
8
A-WALL
10
867.0
20
0
30
0
11
867.0
21
60
31
0
0
LINE
8
A-WALL
10
867.0
20
60
30
0
11
861.0
21
60
31
0
0
LINE
8
A-WALL
10
861.0
20
60
30
0
11
861.0
21
0
31
0
0
LINE
8
A-WALL
10
861.0
20
204
30
0
11
867.0
21
204
31
0
0
LINE
8
A-WALL
10
867.0
20
204
30
0
11
867.0
21
504
31
0
0
LINE
8
A-WALL
10
867.0
20
504
30
0
11
861.0
21
504
31
0
0
LINE
8
A-WALL
10
861.0
20
504
30
0
11
861.0
21
204
31
0
0
LINE
8
A-WALL
10
861.0
20
648
30
0
11
867.0
21
648
31
0
0
LINE
8
A-WALL
10
867.0
20
648
30
0
11
867.0
21
720
31
0
0
LINE
8
A-WALL
10
867.0
20
720
30
0
11
861.0
21
720
31
0
0
LINE
8
A-WALL
10
861.0
20
720
30
0
11
861.0
21
648
31
0
0
LINE
8
A-WALL
10
576
20
717.0
30
0
11
624
21
717.0
31
0
0
LINE
8
A-WALL
10
624
20
717.0
30
0
11
624
21
723.0
31
0
0
LINE
8
A-WALL
10
624
20
723.0
30
0
11
576
21
723.0
31
0
0
LINE
8
A-WALL
10
576
20
723.0
30
0
11
576
21
717.0
31
0
0
LINE
8
A-WALL
10
816
20
717.0
30
0
11
864
21
717.0
31
0
0
LINE
8
A-WALL
10
864
20
717.0
30
0
11
864
21
723.0
31
0
0
LINE
8
A-WALL
10
864
20
723.0
30
0
11
816
21
723.0
31
0
0
LINE
8
A-WALL
10
816
20
723.0
30
0
11
816
21
717.0
31
0
0
LINE
8
A-WALL
10
573.0
20
0
30
0
11
579.0
21
0
31
0
0
LINE
8
A-WALL
10
579.0
20
0
30
0
11
579.0
21
84
31
0
0
LINE
8
A-WALL
10
579.0
20
84
30
0
11
573.0
21
84
31
0
0
LINE
8
A-WALL
10
573.0
20
84
30
0
11
573.0
21
0
31
0
0
LINE
8
A-WALL
10
573.0
20
144
30
0
11
579.0
21
144
31
0
0
LINE
8
A-WALL
10
579.0
20
144
30
0
11
579.0
21
324
31
0
0
LINE
8
A-WALL
10
579.0
20
324
30
0
11
573.0
21
324
31
0
0
LINE
8
A-WALL
10
573.0
20
324
30
0
11
573.0
21
144
31
0
0
LINE
8
A-WALL
10
573.0
20
372
30
0
11
579.0
21
372
31
0
0
LINE
8
A-WALL
10
579.0
20
372
30
0
11
579.0
21
480
31
0
0
LINE
8
A-WALL
10
579.0
20
480
30
0
11
573.0
21
480
31
0
0
LINE
8
A-WALL
10
573.0
20
480
30
0
11
573.0
21
372
31
0
0
LINE
8
A-WALL
10
573.0
20
564
30
0
11
579.0
21
564
31
0
0
LINE
8
A-WALL
10
579.0
20
564
30
0
11
579.0
21
720
31
0
0
LINE
8
A-WALL
10
579.0
20
720
30
0
11
573.0
21
720
31
0
0
LINE
8
A-WALL
10
573.0
20
720
30
0
11
573.0
21
564
31
0
0
LINE
8
A-WALL
10
288
20
-3.0
30
0
11
360
21
-3.0
31
0
0
LINE
8
A-WALL
10
360
20
-3.0
30
0
11
360
21
3.0
31
0
0
LINE
8
A-WALL
10
360
20
3.0
30
0
11
288
21
3.0
31
0
0
LINE
8
A-WALL
10
288
20
3.0
30
0
11
288
21
-3.0
31
0
0
LINE
8
A-WALL
10
504
20
-3.0
30
0
11
576
21
-3.0
31
0
0
LINE
8
A-WALL
10
576
20
-3.0
30
0
11
576
21
3.0
31
0
0
LINE
8
A-WALL
10
576
20
3.0
30
0
11
504
21
3.0
31
0
0
LINE
8
A-WALL
10
504
20
3.0
30
0
11
504
21
-3.0
31
0
0
LINE
8
A-WALL
10
285.0
20
0
30
0
11
291.0
21
0
31
0
0
LINE
8
A-WALL
10
291.0
20
0
30
0
11
291.0
21
84
31
0
0
LINE
8
A-WALL
10
291.0
20
84
30
0
11
285.0
21
84
31
0
0
LINE
8
A-WALL
10
285.0
20
84
30
0
11
285.0
21
0
31
0
0
LINE
8
A-WALL
10
285.0
20
144
30
0
11
291.0
21
144
31
0
0
LINE
8
A-WALL
10
291.0
20
144
30
0
11
291.0
21
180
31
0
0
LINE
8
A-WALL
10
291.0
20
180
30
0
11
285.0
21
180
31
0
0
LINE
8
A-WALL
10
285.0
20
180
30
0
11
285.0
21
144
31
0
0
LINE
8
A-WALL
10
573.0
20
0
30
0
11
579.0
21
0
31
0
0
LINE
8
A-WALL
10
579.0
20
0
30
0
11
579.0
21
84
31
0
0
LINE
8
A-WALL
10
579.0
20
84
30
0
11
573.0
21
84
31
0
0
LINE
8
A-WALL
10
573.0
20
84
30
0
11
573.0
21
0
31
0
0
LINE
8
A-WALL
10
573.0
20
144
30
0
11
579.0
21
144
31
0
0
LINE
8
A-WALL
10
579.0
20
144
30
0
11
579.0
21
180
31
0
0
LINE
8
A-WALL
10
579.0
20
180
30
0
11
573.0
21
180
31
0
0
LINE
8
A-WALL
10
573.0
20
180
30
0
11
573.0
21
144
31
0
0
LINE
8
A-WALL
10
0
20
285.0
30
0
11
216
21
285.0
31
0
0
LINE
8
A-WALL
10
216
20
285.0
30
0
11
216
21
291.0
31
0
0
LINE
8
A-WALL
10
216
20
291.0
30
0
11
0
21
291.0
31
0
0
LINE
8
A-WALL
10
0
20
291.0
30
0
11
0
21
285.0
31
0
0
LINE
8
A-WALL
10
252
20
285.0
30
0
11
288
21
285.0
31
0
0
LINE
8
A-WALL
10
288
20
285.0
30
0
11
288
21
291.0
31
0
0
LINE
8
A-WALL
10
288
20
291.0
30
0
11
252
21
291.0
31
0
0
LINE
8
A-WALL
10
252
20
291.0
30
0
11
252
21
285.0
31
0
0
LINE
8
A-WALL
10
117.0
20
288
30
0
11
123.0
21
288
31
0
0
LINE
8
A-WALL
10
123.0
20
288
30
0
11
123.0
21
348
31
0
0
LINE
8
A-WALL
10
123.0
20
348
30
0
11
117.0
21
348
31
0
0
LINE
8
A-WALL
10
117.0
20
348
30
0
11
117.0
21
288
31
0
0
LINE
8
A-WALL
10
117.0
20
384
30
0
11
123.0
21
384
31
0
0
LINE
8
A-WALL
10
123.0
20
384
30
0
11
123.0
21
456
31
0
0
LINE
8
A-WALL
10
123.0
20
456
30
0
11
117.0
21
456
31
0
0
LINE
8
A-WALL
10
117.0
20
456
30
0
11
117.0
21
384
31
0
0
LINE
8
A-WALL
10
213.0
20
288
30
0
11
219.0
21
288
31
0
0
LINE
8
A-WALL
10
219.0
20
288
30
0
11
219.0
21
348
31
0
0
LINE
8
A-WALL
10
219.0
20
348
30
0
11
213.0
21
348
31
0
0
LINE
8
A-WALL
10
213.0
20
348
30
0
11
213.0
21
288
31
0
0
LINE
8
A-WALL
10
213.0
20
384
30
0
11
219.0
21
384
31
0
0
LINE
8
A-WALL
10
219.0
20
384
30
0
11
219.0
21
456
31
0
0
LINE
8
A-WALL
10
219.0
20
456
30
0
11
213.0
21
456
31
0
0
LINE
8
A-WALL
10
213.0
20
456
30
0
11
213.0
21
384
31
0
0
LINE
8
A-WALL
10
0
20
453.0
30
0
11
216
21
453.0
31
0
0
LINE
8
A-WALL
10
216
20
453.0
30
0
11
216
21
459.0
31
0
0
LINE
8
A-WALL
10
216
20
459.0
30
0
11
0
21
459.0
31
0
0
LINE
8
A-WALL
10
0
20
459.0
30
0
11
0
21
453.0
31
0
0
LINE
8
A-WALL
10
264
20
453.0
30
0
11
288
21
453.0
31
0
0
LINE
8
A-WALL
10
288
20
453.0
30
0
11
288
21
459.0
31
0
0
LINE
8
A-WALL
10
288
20
459.0
30
0
11
264
21
459.0
31
0
0
LINE
8
A-WALL
10
264
20
459.0
30
0
11
264
21
453.0
31
0
0
LINE
8
A-WALL
10
576
20
285.0
30
0
11
612
21
285.0
31
0
0
LINE
8
A-WALL
10
612
20
285.0
30
0
11
612
21
291.0
31
0
0
LINE
8
A-WALL
10
612
20
291.0
30
0
11
576
21
291.0
31
0
0
LINE
8
A-WALL
10
576
20
291.0
30
0
11
576
21
285.0
31
0
0
LINE
8
A-WALL
10
648
20
285.0
30
0
11
864
21
285.0
31
0
0
LINE
8
A-WALL
10
864
20
285.0
30
0
11
864
21
291.0
31
0
0
LINE
8
A-WALL
10
864
20
291.0
30
0
11
648
21
291.0
31
0
0
LINE
8
A-WALL
10
648
20
291.0
30
0
11
648
21
285.0
31
0
0
LINE
8
A-WALL
10
741.0
20
288
30
0
11
747.0
21
288
31
0
0
LINE
8
A-WALL
10
747.0
20
288
30
0
11
747.0
21
348
31
0
0
LINE
8
A-WALL
10
747.0
20
348
30
0
11
741.0
21
348
31
0
0
LINE
8
A-WALL
10
741.0
20
348
30
0
11
741.0
21
288
31
0
0
LINE
8
A-WALL
10
741.0
20
384
30
0
11
747.0
21
384
31
0
0
LINE
8
A-WALL
10
747.0
20
384
30
0
11
747.0
21
456
31
0
0
LINE
8
A-WALL
10
747.0
20
456
30
0
11
741.0
21
456
31
0
0
LINE
8
A-WALL
10
741.0
20
456
30
0
11
741.0
21
384
31
0
0
LINE
8
A-WALL
10
576
20
453.0
30
0
11
600
21
453.0
31
0
0
LINE
8
A-WALL
10
600
20
453.0
30
0
11
600
21
459.0
31
0
0
LINE
8
A-WALL
10
600
20
459.0
30
0
11
576
21
459.0
31
0
0
LINE
8
A-WALL
10
576
20
459.0
30
0
11
576
21
453.0
31
0
0
LINE
8
A-WALL
10
648
20
453.0
30
0
11
864
21
453.0
31
0
0
LINE
8
A-WALL
10
864
20
453.0
30
0
11
864
21
459.0
31
0
0
LINE
8
A-WALL
10
864
20
459.0
30
0
11
648
21
459.0
31
0
0
LINE
8
A-WALL
10
648
20
459.0
30
0
11
648
21
453.0
31
0
0
LINE
8
A-WIND
10
288
20
180
30
0
11
576
21
180
31
0
0
LINE
8
A-WIND
10
288
20
456
30
0
11
648
21
456
31
0
0
LINE
8
A-WIND
10
288
20
180
30
0
11
288
21
456
31
0
0
LINE
8
A-WIND
10
576
20
180
30
0
11
576
21
456
31
0
0
LINE
8
A-WIND
10
408
20
576
30
0
11
552
21
576
31
0
0
LINE
8
A-WIND
10
552
20
576
30
0
11
552
21
768
31
0
0
LINE
8
A-WIND
10
552
20
768
30
0
11
408
21
768
31
0
0
LINE
8
A-WIND
10
408
20
768
30
0
11
408
21
576
31
0
0
LINE
8
A-STAIR
10
300
20
552
30
0
11
396
21
552
31
0
0
LINE
8
A-STAIR
10
300
20
564
30
0
11
396
21
564
31
0
0
LINE
8
A-STAIR
10
300
20
576
30
0
11
396
21
576
31
0
0
LINE
8
A-STAIR
10
300
20
588
30
0
11
396
21
588
31
0
0
LINE
8
A-STAIR
10
300
20
600
30
0
11
396
21
600
31
0
0
LINE
8
A-STAIR
10
300
20
612
30
0
11
396
21
612
31
0
0
LINE
8
A-STAIR
10
300
20
624
30
0
11
396
21
624
31
0
0
LINE
8
A-STAIR
10
300
20
636
30
0
11
396
21
636
31
0
0
LINE
8
A-STAIR
10
300
20
648
30
0
11
396
21
648
31
0
0
LINE
8
A-STAIR
10
300
20
660
30
0
11
396
21
660
31
0
0
LINE
8
A-STAIR
10
300
20
672
30
0
11
396
21
672
31
0
0
LINE
8
A-STAIR
10
300
20
684
30
0
11
396
21
684
31
0
0
LINE
8
A-STAIR
10
300
20
696
30
0
11
396
21
696
31
0
0
LINE
8
A-STAIR
10
300
20
708
30
0
11
396
21
708
31
0
0
LINE
8
A-STAIR
10
300
20
720
30
0
11
396
21
720
31
0
0
LINE
8
A-STAIR
10
300
20
732
30
0
11
396
21
732
31
0
0
LINE
8
A-STAIR
10
300
20
744
30
0
11
396
21
744
31
0
0
LINE
8
A-STAIR
10
300
20
756
30
0
11
396
21
756
31
0
0
TEXT
8
A-STAIR
10
348
20
660
30
0
40
6.6000000000000005
1
DN
50
90
72
1
73
2
11
348
21
660
31
0
0
LINE
8
A-FURN
10
81.0
20
90.0
30
0
11
159.0
21
90.0
31
0
0
LINE
8
A-FURN
10
159.0
20
90.0
30
0
11
159.0
21
174.0
31
0
0
LINE
8
A-FURN
10
159.0
20
174.0
30
0
11
81.0
21
174.0
31
0
0
LINE
8
A-FURN
10
81.0
20
174.0
30
0
11
81.0
21
90.0
31
0
0
LINE
8
A-FURN
10
81.0
20
147.12
30
0
11
159.0
21
147.12
31
0
0
LINE
8
A-FURN
10
93.48
20
144.60000000000002
30
0
11
117.66
21
144.60000000000002
31
0
0
LINE
8
A-FURN
10
117.66
20
144.60000000000002
30
0
11
117.66
21
162.24
31
0
0
LINE
8
A-FURN
10
117.66
20
162.24
30
0
11
93.48
21
162.24
31
0
0
LINE
8
A-FURN
10
93.48
20
162.24
30
0
11
93.48
21
144.60000000000002
31
0
0
LINE
8
A-FURN
10
122.34
20
144.60000000000002
30
0
11
146.52
21
144.60000000000002
31
0
0
LINE
8
A-FURN
10
146.52
20
144.60000000000002
30
0
11
146.52
21
162.24
31
0
0
LINE
8
A-FURN
10
146.52
20
162.24
30
0
11
122.34
21
162.24
31
0
0
LINE
8
A-FURN
10
122.34
20
162.24
30
0
11
122.34
21
144.60000000000002
31
0
0
LINE
8
A-FURN
10
705.0
20
90.0
30
0
11
783.0
21
90.0
31
0
0
LINE
8
A-FURN
10
783.0
20
90.0
30
0
11
783.0
21
174.0
31
0
0
LINE
8
A-FURN
10
783.0
20
174.0
30
0
11
705.0
21
174.0
31
0
0
LINE
8
A-FURN
10
705.0
20
174.0
30
0
11
705.0
21
90.0
31
0
0
LINE
8
A-FURN
10
705.0
20
147.12
30
0
11
783.0
21
147.12
31
0
0
LINE
8
A-FURN
10
717.48
20
144.60000000000002
30
0
11
741.66
21
144.60000000000002
31
0
0
LINE
8
A-FURN
10
741.66
20
144.60000000000002
30
0
11
741.66
21
162.24
31
0
0
LINE
8
A-FURN
10
741.66
20
162.24
30
0
11
717.48
21
162.24
31
0
0
LINE
8
A-FURN
10
717.48
20
162.24
30
0
11
717.48
21
144.60000000000002
31
0
0
LINE
8
A-FURN
10
746.34
20
144.60000000000002
30
0
11
770.52
21
144.60000000000002
31
0
0
LINE
8
A-FURN
10
770.52
20
144.60000000000002
30
0
11
770.52
21
162.24
31
0
0
LINE
8
A-FURN
10
770.52
20
162.24
30
0
11
746.34
21
162.24
31
0
0
LINE
8
A-FURN
10
746.34
20
162.24
30
0
11
746.34
21
144.60000000000002
31
0
0
LINE
8
A-FURN
10
48.0
20
555.0
30
0
11
192.0
21
555.0
31
0
0
LINE
8
A-FURN
10
192.0
20
555.0
30
0
11
192.0
21
597.0
31
0
0
LINE
8
A-FURN
10
192.0
20
597.0
30
0
11
48.0
21
597.0
31
0
0
LINE
8
A-FURN
10
48.0
20
597.0
30
0
11
48.0
21
555.0
31
0
0
LINE
8
A-FURN
10
54.0
20
591.0
30
0
11
186.0
21
591.0
31
0
0
LINE
8
A-FURN
10
0.0
20
615.0
30
0
11
96.0
21
615.0
31
0
0
LINE
8
A-FURN
10
96.0
20
615.0
30
0
11
96.0
21
657.0
31
0
0
LINE
8
A-FURN
10
96.0
20
657.0
30
0
11
0.0
21
657.0
31
0
0
LINE
8
A-FURN
10
0.0
20
657.0
30
0
11
0.0
21
615.0
31
0
0
LINE
8
A-FURN
10
6.0
20
651.0
30
0
11
90.0
21
651.0
31
0
0
LINE
8
A-FURN
10
258.0
20
516
30
0
11
282.0
21
516
31
0
0
LINE
8
A-FURN
10
282.0
20
516
30
0
11
282.0
21
660
31
0
0
LINE
8
A-FURN
10
282.0
20
660
30
0
11
258.0
21
660
31
0
0
LINE
8
A-FURN
10
258.0
20
660
30
0
11
258.0
21
516
31
0
0
LINE
8
A-FURN
10
633.5999999999999
20
528
30
0
11
642.0
21
528
31
0
0
LINE
8
A-FURN
10
642.0
20
528
30
0
11
642.0
21
624
31
0
0
LINE
8
A-FURN
10
642.0
20
624
30
0
11
633.5999999999999
21
624
31
0
0
LINE
8
A-FURN
10
633.5999999999999
20
624
30
0
11
633.5999999999999
21
528
31
0
0
LINE
8
A-FURN
10
798.0
20
528
30
0
11
806.4000000000001
21
528
31
0
0
LINE
8
A-FURN
10
806.4000000000001
20
528
30
0
11
806.4000000000001
21
624
31
0
0
LINE
8
A-FURN
10
806.4000000000001
20
624
30
0
11
798.0
21
624
31
0
0
LINE
8
A-FURN
10
798.0
20
624
30
0
11
798.0
21
528
31
0
0
LINE
8
A-FURN
10
705.5999999999999
20
534.0
30
0
11
734.4000000000001
21
534.0
31
0
0
LINE
8
A-FURN
10
734.4000000000001
20
534.0
30
0
11
734.4000000000001
21
618.0
31
0
0
LINE
8
A-FURN
10
734.4000000000001
20
618.0
30
0
11
705.5999999999999
21
618.0
31
0
0
LINE
8
A-FURN
10
705.5999999999999
20
618.0
30
0
11
705.5999999999999
21
534.0
31
0
0
LINE
8
A-FIXT
10
12
20
300
30
0
11
84
21
300
31
0
0
LINE
8
A-FIXT
10
84
20
300
30
0
11
84
21
348
31
0
0
LINE
8
A-FIXT
10
84
20
348
30
0
11
12
21
348
31
0
0
LINE
8
A-FIXT
10
12
20
348
30
0
11
12
21
300
31
0
0
LINE
8
A-FIXT
10
18.0
20
420
30
0
11
102.0
21
420
31
0
0
LINE
8
A-FIXT
10
102.0
20
420
30
0
11
102.0
21
444
31
0
0
LINE
8
A-FIXT
10
102.0
20
444
30
0
11
18.0
21
444
31
0
0
LINE
8
A-FIXT
10
18.0
20
444
30
0
11
18.0
21
420
31
0
0
LINE
8
A-FIXT
10
780
20
300
30
0
11
852
21
300
31
0
0
LINE
8
A-FIXT
10
852
20
300
30
0
11
852
21
348
31
0
0
LINE
8
A-FIXT
10
852
20
348
30
0
11
780
21
348
31
0
0
LINE
8
A-FIXT
10
780
20
348
30
0
11
780
21
300
31
0
0
LINE
8
A-FIXT
10
762.0
20
420
30
0
11
846.0
21
420
31
0
0
LINE
8
A-FIXT
10
846.0
20
420
30
0
11
846.0
21
444
31
0
0
LINE
8
A-FIXT
10
846.0
20
444
30
0
11
762.0
21
444
31
0
0
LINE
8
A-FIXT
10
762.0
20
444
30
0
11
762.0
21
420
31
0
0
LINE
8
A-CAB
10
132
20
300
30
0
11
156
21
300
31
0
0
LINE
8
A-CAB
10
156
20
300
30
0
11
156
21
444
31
0
0
LINE
8
A-CAB
10
156
20
444
30
0
11
132
21
444
31
0
0
LINE
8
A-CAB
10
132
20
444
30
0
11
132
21
300
31
0
0
LINE
8
A-CAB
10
180
20
300
30
0
11
204
21
300
31
0
0
LINE
8
A-CAB
10
204
20
300
30
0
11
204
21
444
31
0
0
LINE
8
A-CAB
10
204
20
444
30
0
11
180
21
444
31
0
0
LINE
8
A-CAB
10
180
20
444
30
0
11
180
21
300
31
0
0
LINE
8
A-CAB
10
660
20
300
30
0
11
684
21
300
31
0
0
LINE
8
A-CAB
10
684
20
300
30
0
11
684
21
444
31
0
0
LINE
8
A-CAB
10
684
20
444
30
0
11
660
21
444
31
0
0
LINE
8
A-CAB
10
660
20
444
30
0
11
660
21
300
31
0
0
LINE
8
A-CAB
10
708
20
300
30
0
11
732
21
300
31
0
0
LINE
8
A-CAB
10
732
20
300
30
0
11
732
21
444
31
0
0
LINE
8
A-CAB
10
732
20
444
30
0
11
708
21
444
31
0
0
LINE
8
A-CAB
10
708
20
444
30
0
11
708
21
300
31
0
0
TEXT
8
A-TEXT
10
120
20
138.0
30
0
40
9.0
1
BEDROOM 2
50
0
72
1
73
2
11
120
21
138.0
31
0
0
TEXT
8
A-TEXT
10
120
20
123.60000000000001
30
0
40
6.0
1
24 x 24
50
0
72
1
73
2
11
120
21
123.60000000000001
31
0
0
TEXT
8
A-TEXT
10
60
20
378.0
30
0
40
9.0
1
BATH 2
50
0
72
1
73
2
11
60
21
378.0
31
0
0
TEXT
8
A-TEXT
10
60
20
363.6
30
0
40
6.0
1
10 x 14
50
0
72
1
73
2
11
60
21
363.6
31
0
0
TEXT
8
A-TEXT
10
168
20
378.0
30
0
40
9.0
1
WALK-IN CLOSET
50
0
72
1
73
2
11
168
21
378.0
31
0
0
TEXT
8
A-TEXT
10
168
20
363.6
30
0
40
6.0
1
8 x 14
50
0
72
1
73
2
11
168
21
363.6
31
0
0
TEXT
8
A-TEXT
10
144
20
594.0
30
0
40
9.0
1
MEDIA LOUNGE
50
0
72
1
73
2
11
144
21
594.0
31
0
0
TEXT
8
A-TEXT
10
144
20
579.5999999999999
30
0
40
6.0
1
24 x 22
50
0
72
1
73
2
11
144
21
579.5999999999999
31
0
0
TEXT
8
A-TEXT
10
432
20
96.0
30
0
40
9.0
1
LIBRARY BRIDGE
50
0
72
1
73
2
11
432
21
96.0
31
0
0
TEXT
8
A-TEXT
10
432
20
81.6
30
0
40
6.0
1
24 x 15
50
0
72
1
73
2
11
432
21
81.6
31
0
0
TEXT
8
A-TEXT
10
468
20
342.0
30
0
40
9.0
1
OPEN TO GREAT ROOM
50
0
72
1
73
2
11
468
21
342.0
31
0
0
TEXT
8
A-TEXT
10
468
20
327.6
30
0
40
6.0
1
30 x 23
50
0
72
1
73
2
11
468
21
327.6
31
0
0
TEXT
8
A-TEXT
10
744
20
138.0
30
0
40
9.0
1
BEDROOM 3
50
0
72
1
73
2
11
744
21
138.0
31
0
0
TEXT
8
A-TEXT
10
744
20
123.60000000000001
30
0
40
6.0
1
24 x 24
50
0
72
1
73
2
11
744
21
123.60000000000001
31
0
0
TEXT
8
A-TEXT
10
804
20
378.0
30
0
40
9.0
1
BATH 3
50
0
72
1
73
2
11
804
21
378.0
31
0
0
TEXT
8
A-TEXT
10
804
20
363.6
30
0
40
6.0
1
10 x 14
50
0
72
1
73
2
11
804
21
363.6
31
0
0
TEXT
8
A-TEXT
10
696
20
378.0
30
0
40
9.0
1
WALK-IN CLOSET
50
0
72
1
73
2
11
696
21
378.0
31
0
0
TEXT
8
A-TEXT
10
696
20
363.6
30
0
40
6.0
1
8 x 14
50
0
72
1
73
2
11
696
21
363.6
31
0
0
TEXT
8
A-TEXT
10
720
20
594.0
30
0
40
9.0
1
PRIVATE GYM
50
0
72
1
73
2
11
720
21
594.0
31
0
0
TEXT
8
A-TEXT
10
720
20
579.5999999999999
30
0
40
6.0
1
24 x 22
50
0
72
1
73
2
11
720
21
579.5999999999999
31
0
0
TEXT
8
A-TEXT
10
480
20
678.0
30
0
40
9.0
1
OPEN COURTYARD
50
0
72
1
73
2
11
480
21
678.0
31
0
0
TEXT
8
A-TEXT
10
480
20
663.5999999999999
30
0
40
6.0
1
12 x 16
50
0
72
1
73
2
11
480
21
663.5999999999999
31
0
0
TEXT
8
A-TEXT
10
348
20
702.0
30
0
40
9.0
1
STAIR / LANDING
50
0
72
1
73
2
11
348
21
702.0
31
0
0
TEXT
8
A-TEXT
10
348
20
687.5999999999999
30
0
40
6.0
1
10 x 24
50
0
72
1
73
2
11
348
21
687.5999999999999
31
0
0
LINE
8
A-DIMS
10
0
20
0
30
0
11
0
21
-84
31
0
0
LINE
8
A-DIMS
10
864
20
0
30
0
11
864
21
-84
31
0
0
LINE
8
A-DIMS
10
0
20
-84
30
0
11
864
21
-84
31
0
0
LINE
8
A-DIMS
10
0
20
-84
30
0
11
6.0
21
-81.0
31
0
0
LINE
8
A-DIMS
10
0
20
-84
30
0
11
6.0
21
-87.0
31
0
0
LINE
8
A-DIMS
10
864
20
-84
30
0
11
858.0
21
-81.0
31
0
0
LINE
8
A-DIMS
10
864
20
-84
30
0
11
858.0
21
-87.0
31
0
0
TEXT
8
A-DIMS
10
432.0
20
-76.80000000000001
30
0
40
7.199999999999999
1
72'-0"
50
0
72
1
73
2
11
432.0
21
-76.80000000000001
31
0
0
LINE
8
A-DIMS
10
864
20
0
30
0
11
948
21
0
31
0
0
LINE
8
A-DIMS
10
864
20
720
30
0
11
948
21
720
31
0
0
LINE
8
A-DIMS
10
948
20
0
30
0
11
948
21
720
31
0
0
LINE
8
A-DIMS
10
948
20
0
30
0
11
951.0
21
6.0
31
0
0
LINE
8
A-DIMS
10
948
20
0
30
0
11
945.0
21
6.0
31
0
0
LINE
8
A-DIMS
10
948
20
720
30
0
11
951.0
21
714.0
31
0
0
LINE
8
A-DIMS
10
948
20
720
30
0
11
945.0
21
714.0
31
0
0
TEXT
8
A-DIMS
10
957.5999999999999
20
360.0
30
0
40
7.199999999999999
1
60'-0"
50
90
72
1
73
2
11
957.5999999999999
21
360.0
31
0
0
LINE
8
A-DIMS
10
288
20
180
30
0
11
288
21
228
31
0
0
LINE
8
A-DIMS
10
576
20
180
30
0
11
576
21
228
31
0
0
LINE
8
A-DIMS
10
288
20
228
30
0
11
576
21
228
31
0
0
LINE
8
A-DIMS
10
288
20
228
30
0
11
294.0
21
231.0
31
0
0
LINE
8
A-DIMS
10
288
20
228
30
0
11
294.0
21
225.0
31
0
0
LINE
8
A-DIMS
10
576
20
228
30
0
11
570.0
21
231.0
31
0
0
LINE
8
A-DIMS
10
576
20
228
30
0
11
570.0
21
225.0
31
0
0
TEXT
8
A-DIMS
10
432.0
20
235.20000000000002
30
0
40
7.199999999999999
1
24'-0"
50
0
72
1
73
2
11
432.0
21
235.20000000000002
31
0
0
LINE
8
A-DIMS
10
288
20
456
30
0
11
288
21
504
31
0
0
LINE
8
A-DIMS
10
648
20
456
30
0
11
648
21
504
31
0
0
LINE
8
A-DIMS
10
288
20
504
30
0
11
648
21
504
31
0
0
LINE
8
A-DIMS
10
288
20
504
30
0
11
294.0
21
507.0
31
0
0
LINE
8
A-DIMS
10
288
20
504
30
0
11
294.0
21
501.0
31
0
0
LINE
8
A-DIMS
10
648
20
504
30
0
11
642.0
21
507.0
31
0
0
LINE
8
A-DIMS
10
648
20
504
30
0
11
642.0
21
501.0
31
0
0
TEXT
8
A-DIMS
10
468.0
20
511.20000000000005
30
0
40
7.199999999999999
1
30'-0"
50
0
72
1
73
2
11
468.0
21
511.20000000000005
31
0
0
TEXT
8
A-OVER
10
432
20
888
30
0
40
12.0
1
LUXURY CUSTOM HOME — UPPER FLOOR PLAN
50
0
72
1
73
2
11
432
21
888
31
0
0
TEXT
8
A-OVER
10
432
20
858.0
30
0
40
6.6000000000000005
1
Bridge circulation surrounds the double-height great room and glass courtyard
50
0
72
1
73
2
11
432
21
858.0
31
0
0
ENDSEC
0
EOF