<svg xmlns="http://www.w3.org/2000/svg" width="1600" height="900" viewBox="0 0 1600 900">
<defs>
 <linearGradient id="bg" x1="0" y1="0" x2="1" y2="1"><stop stop-color="#17101f"/><stop offset=".55" stop-color="#321c3b"/><stop offset="1" stop-color="#15101c"/></linearGradient>
 <radialGradient id="g1"><stop stop-color="#ff7866" stop-opacity=".52"/><stop offset="1" stop-color="#ff7866" stop-opacity="0"/></radialGradient>
 <radialGradient id="g2"><stop stop-color="#70f0ca" stop-opacity=".42"/><stop offset="1" stop-color="#70f0ca" stop-opacity="0"/></radialGradient>
</defs>
<rect width="100%" height="100%" fill="url(#bg)"/>
<circle cx="192" cy="162" r="252" fill="url(#g1)"/>
<circle cx="1408" cy="666" r="306" fill="url(#g2)"/>
<g opacity=".11" fill="#fff8ee"><circle cx="0" cy="0" r="2"/><circle cx="97" cy="61" r="2"/><circle cx="194" cy="122" r="2"/><circle cx="291" cy="183" r="2"/><circle cx="388" cy="244" r="2"/><circle cx="485" cy="305" r="2"/><circle cx="582" cy="366" r="2"/><circle cx="679" cy="427" r="2"/><circle cx="776" cy="488" r="2"/><circle cx="873" cy="549" r="2"/><circle cx="970" cy="610" r="2"/><circle cx="1067" cy="671" r="2"/><circle cx="1164" cy="732" r="2"/><circle cx="1261" cy="793" r="2"/><circle cx="1358" cy="854" r="2"/><circle cx="1455" cy="15" r="2"/><circle cx="1552" cy="76" r="2"/><circle cx="49" cy="137" r="2"/><circle cx="146" cy="198" r="2"/><circle cx="243" cy="259" r="2"/><circle cx="340" cy="320" r="2"/><circle cx="437" cy="381" r="2"/><circle cx="534" cy="442" r="2"/><circle cx="631" cy="503" r="2"/><circle cx="728" cy="564" r="2"/><circle cx="825" cy="625" r="2"/><circle cx="922" cy="686" r="2"/><circle cx="1019" cy="747" r="2"/><circle cx="1116" cy="808" r="2"/><circle cx="1213" cy="869" r="2"/></g>
<g opacity=".22" stroke="#70f0ca" fill="none" stroke-width="1.8"><line x1="847.2" y1="769.1" x2="862.3" y2="769.1"/><line x1="862.3" y1="769.1" x2="862.3" y2="766.1"/><line x1="862.3" y1="766.1" x2="847.2" y2="766.1"/><line x1="847.2" y1="766.1" x2="847.2" y2="769.1"/><line x1="892.4" y1="769.1" x2="902.4" y2="769.1"/><line x1="902.4" y1="769.1" x2="902.4" y2="766.1"/><line x1="902.4" y1="766.1" x2="892.4" y2="766.1"/><line x1="892.4" y1="766.1" x2="892.4" y2="769.1"/><line x1="932.5" y1="769.1" x2="947.6" y2="769.1"/><line x1="947.6" y1="769.1" x2="947.6" y2="766.1"/><line x1="947.6" y1="766.1" x2="932.5" y2="766.1"/><line x1="932.5" y1="766.1" x2="932.5" y2="769.1"/><line x1="957.6" y1="769.1" x2="1007.8" y2="769.1"/><line x1="1007.8" y1="769.1" x2="1007.8" y2="766.1"/><line x1="1007.8" y1="766.1" x2="957.6" y2="766.1"/><line x1="957.6" y1="766.1" x2="957.6" y2="769.1"/><line x1="1068.0" y1="769.1" x2="1138.2" y2="769.1"/><line x1="1138.2" y1="769.1" x2="1138.2" y2="766.1"/><line x1="1138.2" y1="766.1" x2="1068.0" y2="766.1"/><line x1="1068.0" y1="766.1" x2="1068.0" y2="769.1"/><line x1="1188.4" y1="769.1" x2="1208.5" y2="769.1"/><line x1="1208.5" y1="769.1" x2="1208.5" y2="766.1"/><line x1="1208.5" y1="766.1" x2="1188.4" y2="766.1"/><line x1="1188.4" y1="766.1" x2="1188.4" y2="769.1"/><line x1="845.7" y1="767.6" x2="848.7" y2="767.6"/><line x1="848.7" y1="767.6" x2="848.7" y2="747.5"/><line x1="848.7" y1="747.5" x2="845.7" y2="747.5"/><line x1="845.7" y1="747.5" x2="845.7" y2="767.6"/><line x1="845.7" y1="697.3" x2="848.7" y2="697.3"/><line x1="848.7" y1="697.3" x2="848.7" y2="652.2"/><line x1="848.7" y1="652.2" x2="845.7" y2="652.2"/><line x1="845.7" y1="652.2" x2="845.7" y2="697.3"/><line x1="845.7" y1="597.0" x2="848.7" y2="597.0"/><line x1="848.7" y1="597.0" x2="848.7" y2="556.9"/><line x1="848.7" y1="556.9" x2="845.7" y2="556.9"/><line x1="845.7" y1="556.9" x2="845.7" y2="597.0"/><line x1="845.7" y1="506.7" x2="848.7" y2="506.7"/><line x1="848.7" y1="506.7" x2="848.7" y2="491.6"/><line x1="848.7" y1="491.6" x2="845.7" y2="491.6"/><line x1="845.7" y1="491.6" x2="845.7" y2="506.7"/><line x1="845.7" y1="436.5" x2="848.7" y2="436.5"/><line x1="848.7" y1="436.5" x2="848.7" y2="416.4"/><line x1="848.7" y1="416.4" x2="845.7" y2="416.4"/><line x1="845.7" y1="416.4" x2="845.7" y2="436.5"/><line x1="1207.0" y1="767.6" x2="1210.0" y2="767.6"/><line x1="1210.0" y1="767.6" x2="1210.0" y2="747.5"/><line x1="1210.0" y1="747.5" x2="1207.0" y2="747.5"/><line x1="1207.0" y1="747.5" x2="1207.0" y2="767.6"/><line x1="1207.0" y1="687.3" x2="1210.0" y2="687.3"/><line x1="1210.0" y1="687.3" x2="1210.0" y2="647.2"/><line x1="1210.0" y1="647.2" x2="1207.0" y2="647.2"/><line x1="1207.0" y1="647.2" x2="1207.0" y2="687.3"/><line x1="1207.0" y1="597.0" x2="1210.0" y2="597.0"/><line x1="1210.0" y1="597.0" x2="1210.0" y2="521.7"/><line x1="1210.0" y1="521.7" x2="1207.0" y2="521.7"/><line x1="1207.0" y1="521.7" x2="1207.0" y2="597.0"/><line x1="1207.0" y1="476.6" x2="1210.0" y2="476.6"/><line x1="1210.0" y1="476.6" x2="1210.0" y2="456.5"/><line x1="1210.0" y1="456.5" x2="1207.0" y2="456.5"/><line x1="1207.0" y1="456.5" x2="1207.0" y2="476.6"/><line x1="1207.0" y1="426.4" x2="1210.0" y2="426.4"/><line x1="1210.0" y1="426.4" x2="1210.0" y2="416.4"/><line x1="1210.0" y1="416.4" x2="1207.0" y2="416.4"/><line x1="1207.0" y1="416.4" x2="1207.0" y2="426.4"/><line x1="847.2" y1="417.9" x2="882.4" y2="417.9"/><line x1="882.4" y1="417.9" x2="882.4" y2="414.9"/><line x1="882.4" y1="414.9" x2="847.2" y2="414.9"/><line x1="847.2" y1="414.9" x2="847.2" y2="417.9"/><line x1="952.6" y1="417.9" x2="987.7" y2="417.9"/><line x1="987.7" y1="417.9" x2="987.7" y2="414.9"/><line x1="987.7" y1="414.9" x2="952.6" y2="414.9"/><line x1="952.6" y1="414.9" x2="952.6" y2="417.9"/><line x1="1007.8" y1="417.9" x2="1017.8" y2="417.9"/><line x1="1017.8" y1="417.9" x2="1017.8" y2="414.9"/><line x1="1017.8" y1="414.9" x2="1007.8" y2="414.9"/><line x1="1007.8" y1="414.9" x2="1007.8" y2="417.9"/><line x1="1078.0" y1="417.9" x2="1128.2" y2="417.9"/><line x1="1128.2" y1="417.9" x2="1128.2" y2="414.9"/><line x1="1128.2" y1="414.9" x2="1078.0" y2="414.9"/><line x1="1078.0" y1="414.9" x2="1078.0" y2="417.9"/><line x1="1193.4" y1="417.9" x2="1208.5" y2="417.9"/><line x1="1208.5" y1="417.9" x2="1208.5" y2="414.9"/><line x1="1208.5" y1="414.9" x2="1193.4" y2="414.9"/><line x1="1193.4" y1="414.9" x2="1193.4" y2="417.9"/><line x1="676.7" y1="769.1" x2="686.7" y2="769.1"/><line x1="686.7" y1="769.1" x2="686.7" y2="766.1"/><line x1="686.7" y1="766.1" x2="676.7" y2="766.1"/><line x1="676.7" y1="766.1" x2="676.7" y2="769.1"/><line x1="736.9" y1="769.1" x2="741.9" y2="769.1"/><line x1="741.9" y1="769.1" x2="741.9" y2="766.1"/><line x1="741.9" y1="766.1" x2="736.9" y2="766.1"/><line x1="736.9" y1="766.1" x2="736.9" y2="769.1"/><line x1="792.1" y1="769.1" x2="797.1" y2="769.1"/><line x1="797.1" y1="769.1" x2="797.1" y2="766.1"/><line x1="797.1" y1="766.1" x2="792.1" y2="766.1"/><line x1="792.1" y1="766.1" x2="792.1" y2="769.1"/><line x1="842.2" y1="769.1" x2="847.2" y2="769.1"/><line x1="847.2" y1="769.1" x2="847.2" y2="766.1"/><line x1="847.2" y1="766.1" x2="842.2" y2="766.1"/><line x1="842.2" y1="766.1" x2="842.2" y2="769.1"/><line x1="675.2" y1="767.6" x2="678.2" y2="767.6"/><line x1="678.2" y1="767.6" x2="678.2" y2="576.9"/><line x1="678.2" y1="576.9" x2="675.2" y2="576.9"/><line x1="675.2" y1="576.9" x2="675.2" y2="767.6"/><line x1="676.7" y1="578.4" x2="802.1" y2="578.4"/><line x1="802.1" y1="578.4" x2="802.1" y2="575.4"/><line x1="802.1" y1="575.4" x2="676.7" y2="575.4"/><line x1="676.7" y1="575.4" x2="676.7" y2="578.4"/><line x1="817.1" y1="578.4" x2="847.2" y2="578.4"/><line x1="847.2" y1="578.4" x2="847.2" y2="575.4"/><line x1="847.2" y1="575.4" x2="817.1" y2="575.4"/><line x1="817.1" y1="575.4" x2="817.1" y2="578.4"/><line x1="845.7" y1="767.6" x2="848.7" y2="767.6"/><line x1="848.7" y1="767.6" x2="848.7" y2="627.1"/><line x1="848.7" y1="627.1" x2="845.7" y2="627.1"/><line x1="845.7" y1="627.1" x2="845.7" y2="767.6"/><line x1="845.7" y1="612.1" x2="848.7" y2="612.1"/><line x1="848.7" y1="612.1" x2="848.7" y2="576.9"/><line x1="848.7" y1="576.9" x2="845.7" y2="576.9"/><line x1="845.7" y1="576.9" x2="845.7" y2="612.1"/><line x1="785.8" y1="667.2" x2="788.3" y2="667.2"/><line x1="788.3" y1="667.2" x2="788.3" y2="627.1"/><line x1="788.3" y1="627.1" x2="785.8" y2="627.1"/><line x1="785.8" y1="627.1" x2="785.8" y2="667.2"/><line x1="785.8" y1="612.1" x2="788.3" y2="612.1"/><line x1="788.3" y1="612.1" x2="788.3" y2="576.9"/><line x1="788.3" y1="576.9" x2="785.8" y2="576.9"/><line x1="785.8" y1="576.9" x2="785.8" y2="612.1"/><line x1="787.0" y1="668.5" x2="847.2" y2="668.5"/><line x1="847.2" y1="668.5" x2="847.2" y2="666.0"/><line x1="847.2" y1="666.0" x2="787.0" y2="666.0"/><line x1="787.0" y1="666.0" x2="787.0" y2="668.5"/><line x1="966.4" y1="767.6" x2="968.9" y2="767.6"/><line x1="968.9" y1="767.6" x2="968.9" y2="712.4"/><line x1="968.9" y1="712.4" x2="966.4" y2="712.4"/><line x1="966.4" y1="712.4" x2="966.4" y2="767.6"/><line x1="966.4" y1="692.3" x2="968.9" y2="692.3"/><line x1="968.9" y1="692.3" x2="968.9" y2="627.1"/><line x1="968.9" y1="627.1" x2="966.4" y2="627.1"/><line x1="966.4" y1="627.1" x2="966.4" y2="692.3"/><line x1="966.4" y1="597.0" x2="968.9" y2="597.0"/><line x1="968.9" y1="597.0" x2="968.9" y2="566.9"/><line x1="968.9" y1="566.9" x2="966.4" y2="566.9"/><line x1="966.4" y1="566.9" x2="966.4" y2="597.0"/><line x1="966.4" y1="531.8" x2="968.9" y2="531.8"/><line x1="968.9" y1="531.8" x2="968.9" y2="506.7"/><line x1="968.9" y1="506.7" x2="966.4" y2="506.7"/><line x1="966.4" y1="506.7" x2="966.4" y2="531.8"/><line x1="966.4" y1="476.6" x2="968.9" y2="476.6"/><line x1="968.9" y1="476.6" x2="968.9" y2="416.4"/><line x1="968.9" y1="416.4" x2="966.4" y2="416.4"/><line x1="966.4" y1="416.4" x2="966.4" y2="476.6"/><line x1="1116.9" y1="767.6" x2="1119.4" y2="767.6"/><line x1="1119.4" y1="767.6" x2="1119.4" y2="712.4"/><line x1="1119.4" y1="712.4" x2="1116.9" y2="712.4"/><line x1="1116.9" y1="712.4" x2="1116.9" y2="767.6"/><line x1="1116.9" y1="697.3" x2="1119.4" y2="697.3"/><line x1="1119.4" y1="697.3" x2="1119.4" y2="622.1"/><line x1="1119.4" y1="622.1" x2="1116.9" y2="622.1"/><line x1="1116.9" y1="622.1" x2="1116.9" y2="697.3"/><line x1="1116.9" y1="607.0" x2="1119.4" y2="607.0"/><line x1="1119.4" y1="607.0" x2="1119.4" y2="511.7"/><line x1="1119.4" y1="511.7" x2="1116.9" y2="511.7"/><line x1="1116.9" y1="511.7" x2="1116.9" y2="607.0"/><line x1="1116.9" y1="491.6" x2="1119.4" y2="491.6"/><line x1="1119.4" y1="491.6" x2="1119.4" y2="416.4"/><line x1="1119.4" y1="416.4" x2="1116.9" y2="416.4"/><line x1="1116.9" y1="416.4" x2="1116.9" y2="491.6"/><line x1="967.7" y1="693.6" x2="1007.8" y2="693.6"/><line x1="1007.8" y1="693.6" x2="1007.8" y2="691.1"/><line x1="1007.8" y1="691.1" x2="967.7" y2="691.1"/><line x1="967.7" y1="691.1" x2="967.7" y2="693.6"/><line x1="1078.0" y1="693.6" x2="1118.2" y2="693.6"/><line x1="1118.2" y1="693.6" x2="1118.2" y2="691.1"/><line x1="1118.2" y1="691.1" x2="1078.0" y2="691.1"/><line x1="1078.0" y1="691.1" x2="1078.0" y2="693.6"/><line x1="847.2" y1="678.5" x2="927.5" y2="678.5"/><line x1="927.5" y1="678.5" x2="927.5" y2="676.0"/><line x1="927.5" y1="676.0" x2="847.2" y2="676.0"/><line x1="847.2" y1="676.0" x2="847.2" y2="678.5"/><line x1="942.6" y1="678.5" x2="967.7" y2="678.5"/><line x1="967.7" y1="678.5" x2="967.7" y2="676.0"/><line x1="967.7" y1="676.0" x2="942.6" y2="676.0"/><line x1="942.6" y1="676.0" x2="942.6" y2="678.5"/><line x1="847.2" y1="578.2" x2="882.4" y2="578.2"/><line x1="882.4" y1="578.2" x2="882.4" y2="575.7"/><line x1="882.4" y1="575.7" x2="847.2" y2="575.7"/><line x1="847.2" y1="575.7" x2="847.2" y2="578.2"/><line x1="952.6" y1="578.2" x2="967.7" y2="578.2"/><line x1="967.7" y1="578.2" x2="967.7" y2="575.7"/><line x1="967.7" y1="575.7" x2="952.6" y2="575.7"/><line x1="952.6" y1="575.7" x2="952.6" y2="578.2"/><line x1="1118.2" y1="668.5" x2="1148.3" y2="668.5"/><line x1="1148.3" y1="668.5" x2="1148.3" y2="666.0"/><line x1="1148.3" y1="666.0" x2="1118.2" y2="666.0"/><line x1="1118.2" y1="666.0" x2="1118.2" y2="668.5"/><line x1="1163.3" y1="668.5" x2="1208.5" y2="668.5"/><line x1="1208.5" y1="668.5" x2="1208.5" y2="666.0"/><line x1="1208.5" y1="666.0" x2="1163.3" y2="666.0"/><line x1="1163.3" y1="666.0" x2="1163.3" y2="668.5"/><line x1="1118.2" y1="578.2" x2="1133.2" y2="578.2"/><line x1="1133.2" y1="578.2" x2="1133.2" y2="575.7"/><line x1="1133.2" y1="575.7" x2="1118.2" y2="575.7"/><line x1="1118.2" y1="575.7" x2="1118.2" y2="578.2"/><line x1="1148.3" y1="578.2" x2="1208.5" y2="578.2"/><line x1="1208.5" y1="578.2" x2="1208.5" y2="575.7"/><line x1="1208.5" y1="575.7" x2="1148.3" y2="575.7"/><line x1="1148.3" y1="575.7" x2="1148.3" y2="578.2"/><line x1="1118.2" y1="538.1" x2="1138.2" y2="538.1"/><line x1="1138.2" y1="538.1" x2="1138.2" y2="535.5"/><line x1="1138.2" y1="535.5" x2="1118.2" y2="535.5"/><line x1="1118.2" y1="535.5" x2="1118.2" y2="538.1"/><line x1="1158.3" y1="538.1" x2="1208.5" y2="538.1"/><line x1="1208.5" y1="538.1" x2="1208.5" y2="535.5"/><line x1="1208.5" y1="535.5" x2="1158.3" y2="535.5"/><line x1="1158.3" y1="535.5" x2="1158.3" y2="538.1"/><line x1="1118.2" y1="477.8" x2="1133.2" y2="477.8"/><line x1="1133.2" y1="477.8" x2="1133.2" y2="475.3"/><line x1="1133.2" y1="475.3" x2="1118.2" y2="475.3"/><line x1="1118.2" y1="475.3" x2="1118.2" y2="477.8"/><line x1="1148.3" y1="477.8" x2="1173.3" y2="477.8"/><line x1="1173.3" y1="477.8" x2="1173.3" y2="475.3"/><line x1="1173.3" y1="475.3" x2="1148.3" y2="475.3"/><line x1="1148.3" y1="475.3" x2="1148.3" y2="477.8"/><line x1="1188.4" y1="477.8" x2="1208.5" y2="477.8"/><line x1="1208.5" y1="477.8" x2="1208.5" y2="475.3"/><line x1="1208.5" y1="475.3" x2="1188.4" y2="475.3"/><line x1="1188.4" y1="475.3" x2="1188.4" y2="477.8"/><line x1="1157.0" y1="476.6" x2="1159.5" y2="476.6"/><line x1="1159.5" y1="476.6" x2="1159.5" y2="416.4"/><line x1="1159.5" y1="416.4" x2="1157.0" y2="416.4"/><line x1="1157.0" y1="416.4" x2="1157.0" y2="476.6"/><line x1="936.3" y1="767.6" x2="938.8" y2="767.6"/><line x1="938.8" y1="767.6" x2="938.8" y2="737.5"/><line x1="938.8" y1="737.5" x2="936.3" y2="737.5"/><line x1="936.3" y1="737.5" x2="936.3" y2="767.6"/><line x1="936.3" y1="722.4" x2="938.8" y2="722.4"/><line x1="938.8" y1="722.4" x2="938.8" y2="717.4"/><line x1="938.8" y1="717.4" x2="936.3" y2="717.4"/><line x1="936.3" y1="717.4" x2="936.3" y2="722.4"/><line x1="937.5" y1="718.7" x2="947.6" y2="718.7"/><line x1="947.6" y1="718.7" x2="947.6" y2="716.2"/><line x1="947.6" y1="716.2" x2="937.5" y2="716.2"/><line x1="937.5" y1="716.2" x2="937.5" y2="718.7"/><line x1="962.6" y1="718.7" x2="967.7" y2="718.7"/><line x1="967.7" y1="718.7" x2="967.7" y2="716.2"/><line x1="967.7" y1="716.2" x2="962.6" y2="716.2"/><line x1="962.6" y1="716.2" x2="962.6" y2="718.7"/><line x1="886.1" y1="576.9" x2="888.6" y2="576.9"/><line x1="888.6" y1="576.9" x2="888.6" y2="551.8"/><line x1="888.6" y1="551.8" x2="886.1" y2="551.8"/><line x1="886.1" y1="551.8" x2="886.1" y2="576.9"/><line x1="886.1" y1="536.8" x2="888.6" y2="536.8"/><line x1="888.6" y1="536.8" x2="888.6" y2="496.7"/><line x1="888.6" y1="496.7" x2="886.1" y2="496.7"/><line x1="886.1" y1="496.7" x2="886.1" y2="536.8"/><line x1="886.1" y1="481.6" x2="888.6" y2="481.6"/><line x1="888.6" y1="481.6" x2="888.6" y2="456.5"/><line x1="888.6" y1="456.5" x2="886.1" y2="456.5"/><line x1="886.1" y1="456.5" x2="886.1" y2="481.6"/><line x1="1017.2" y1="526.8" x2="1018.4" y2="526.8"/><line x1="1018.4" y1="526.8" x2="1018.4" y2="506.7"/><line x1="1018.4" y1="506.7" x2="1017.2" y2="506.7"/><line x1="1017.2" y1="506.7" x2="1017.2" y2="526.8"/><line x1="1017.2" y1="476.6" x2="1018.4" y2="476.6"/><line x1="1018.4" y1="476.6" x2="1018.4" y2="446.5"/><line x1="1018.4" y1="446.5" x2="1017.2" y2="446.5"/><line x1="1017.2" y1="446.5" x2="1017.2" y2="476.6"/><line x1="1077.4" y1="526.8" x2="1078.7" y2="526.8"/><line x1="1078.7" y1="526.8" x2="1078.7" y2="501.7"/><line x1="1078.7" y1="501.7" x2="1077.4" y2="501.7"/><line x1="1077.4" y1="501.7" x2="1077.4" y2="526.8"/><line x1="1077.4" y1="481.6" x2="1078.7" y2="481.6"/><line x1="1078.7" y1="481.6" x2="1078.7" y2="446.5"/><line x1="1078.7" y1="446.5" x2="1077.4" y2="446.5"/><line x1="1077.4" y1="446.5" x2="1077.4" y2="481.6"/><line x1="1017.8" y1="527.4" x2="1027.9" y2="527.4"/><line x1="1027.9" y1="527.4" x2="1027.9" y2="526.1"/><line x1="1027.9" y1="526.1" x2="1017.8" y2="526.1"/><line x1="1017.8" y1="526.1" x2="1017.8" y2="527.4"/><line x1="1068.0" y1="527.4" x2="1078.0" y2="527.4"/><line x1="1078.0" y1="527.4" x2="1078.0" y2="526.1"/><line x1="1078.0" y1="526.1" x2="1068.0" y2="526.1"/><line x1="1068.0" y1="526.1" x2="1068.0" y2="527.4"/><line x1="1017.8" y1="447.1" x2="1037.9" y2="447.1"/><line x1="1037.9" y1="447.1" x2="1037.9" y2="445.9"/><line x1="1037.9" y1="445.9" x2="1017.8" y2="445.9"/><line x1="1017.8" y1="445.9" x2="1017.8" y2="447.1"/><line x1="1058.0" y1="447.1" x2="1078.0" y2="447.1"/><line x1="1078.0" y1="447.1" x2="1078.0" y2="445.9"/><line x1="1078.0" y1="445.9" x2="1058.0" y2="445.9"/><line x1="1058.0" y1="445.9" x2="1058.0" y2="447.1"/><line x1="862.3" y1="768.1" x2="892.4" y2="768.1"/><line x1="862.3" y1="767.1" x2="892.4" y2="767.1"/><line x1="902.4" y1="768.1" x2="932.5" y2="768.1"/><line x1="902.4" y1="767.1" x2="932.5" y2="767.1"/><line x1="1138.2" y1="768.1" x2="1188.4" y2="768.1"/><line x1="1138.2" y1="767.1" x2="1188.4" y2="767.1"/><line x1="846.7" y1="747.5" x2="846.7" y2="697.3"/><line x1="847.7" y1="747.5" x2="847.7" y2="697.3"/><line x1="846.7" y1="652.2" x2="846.7" y2="597.0"/><line x1="847.7" y1="652.2" x2="847.7" y2="597.0"/><line x1="846.7" y1="556.9" x2="846.7" y2="506.7"/><line x1="847.7" y1="556.9" x2="847.7" y2="506.7"/><line x1="1208.0" y1="747.5" x2="1208.0" y2="687.3"/><line x1="1209.0" y1="747.5" x2="1209.0" y2="687.3"/><line x1="1208.0" y1="647.2" x2="1208.0" y2="597.0"/><line x1="1209.0" y1="647.2" x2="1209.0" y2="597.0"/><line x1="1208.0" y1="521.7" x2="1208.0" y2="476.6"/><line x1="1209.0" y1="521.7" x2="1209.0" y2="476.6"/><line x1="1208.0" y1="456.5" x2="1208.0" y2="426.4"/><line x1="1209.0" y1="456.5" x2="1209.0" y2="426.4"/><line x1="882.4" y1="416.9" x2="952.6" y2="416.9"/><line x1="882.4" y1="415.9" x2="952.6" y2="415.9"/><line x1="1128.2" y1="416.9" x2="1193.4" y2="416.9"/><line x1="1128.2" y1="415.9" x2="1193.4" y2="415.9"/><line x1="1017.8" y1="767.6" x2="1017.8" y2="727.4"/><line x1="927.5" y1="677.3" x2="927.5" y2="662.2"/><line x1="947.6" y1="717.4" x2="947.6" y2="702.4"/><line x1="1148.3" y1="667.2" x2="1148.3" y2="652.2"/><line x1="1133.2" y1="576.9" x2="1133.2" y2="561.9"/><line x1="1138.2" y1="536.8" x2="1138.2" y2="516.7"/><line x1="1133.2" y1="476.6" x2="1133.2" y2="461.5"/><line x1="1173.3" y1="476.6" x2="1173.3" y2="461.5"/><line x1="967.7" y1="712.4" x2="987.7" y2="712.4"/><line x1="967.7" y1="627.1" x2="997.8" y2="627.1"/><line x1="967.7" y1="566.9" x2="1002.8" y2="566.9"/><line x1="1118.2" y1="712.4" x2="1133.2" y2="712.4"/><line x1="1118.2" y1="622.1" x2="1133.2" y2="622.1"/><line x1="972.7" y1="536.8" x2="1012.8" y2="536.8"/><line x1="972.7" y1="531.8" x2="1012.8" y2="531.8"/><line x1="972.7" y1="526.8" x2="1012.8" y2="526.8"/><line x1="972.7" y1="521.7" x2="1012.8" y2="521.7"/><line x1="972.7" y1="516.7" x2="1012.8" y2="516.7"/><line x1="972.7" y1="511.7" x2="1012.8" y2="511.7"/><line x1="972.7" y1="506.7" x2="1012.8" y2="506.7"/><line x1="972.7" y1="501.7" x2="1012.8" y2="501.7"/><line x1="972.7" y1="496.7" x2="1012.8" y2="496.7"/><line x1="972.7" y1="491.6" x2="1012.8" y2="491.6"/><line x1="972.7" y1="486.6" x2="1012.8" y2="486.6"/><line x1="972.7" y1="481.6" x2="1012.8" y2="481.6"/><line x1="972.7" y1="476.6" x2="1012.8" y2="476.6"/><line x1="972.7" y1="471.6" x2="1012.8" y2="471.6"/><line x1="972.7" y1="466.6" x2="1012.8" y2="466.6"/><line x1="972.7" y1="461.5" x2="1012.8" y2="461.5"/><line x1="972.7" y1="456.5" x2="1012.8" y2="456.5"/><line x1="972.7" y1="451.5" x2="1012.8" y2="451.5"/><line x1="992.7" y1="536.8" x2="992.7" y2="446.5"/><line x1="849.3" y1="564.4" x2="859.8" y2="564.4"/><line x1="859.8" y1="564.4" x2="859.8" y2="444.0"/><line x1="859.8" y1="444.0" x2="849.3" y2="444.0"/><line x1="849.3" y1="444.0" x2="849.3" y2="564.4"/><line x1="889.9" y1="431.4" x2="957.6" y2="431.4"/><line x1="957.6" y1="431.4" x2="957.6" y2="418.9"/><line x1="957.6" y1="418.9" x2="889.9" y2="418.9"/><line x1="889.9" y1="418.9" x2="889.9" y2="431.4"/><line x1="892.4" y1="517.7" x2="952.6" y2="517.7"/><line x1="952.6" y1="517.7" x2="952.6" y2="495.7"/><line x1="952.6" y1="495.7" x2="892.4" y2="495.7"/><line x1="892.4" y1="495.7" x2="892.4" y2="517.7"/><line x1="1123.2" y1="587.0" x2="1203.4" y2="587.0"/><line x1="1203.4" y1="587.0" x2="1203.4" y2="576.9"/><line x1="1203.4" y1="576.9" x2="1123.2" y2="576.9"/><line x1="1123.2" y1="576.9" x2="1123.2" y2="587.0"/><line x1="1168.3" y1="428.9" x2="1198.4" y2="428.9"/><line x1="1198.4" y1="428.9" x2="1198.4" y2="418.9"/><line x1="1198.4" y1="418.9" x2="1168.3" y2="418.9"/><line x1="1168.3" y1="418.9" x2="1168.3" y2="428.9"/><line x1="792.1" y1="592.0" x2="842.2" y2="592.0"/><line x1="842.2" y1="592.0" x2="842.2" y2="581.9"/><line x1="842.2" y1="581.9" x2="792.1" y2="581.9"/><line x1="792.1" y1="581.9" x2="792.1" y2="592.0"/><line x1="874.8" y1="724.9" x2="910.0" y2="724.9"/><line x1="910.0" y1="724.9" x2="910.0" y2="709.9"/><line x1="910.0" y1="709.9" x2="874.8" y2="709.9"/><line x1="874.8" y1="709.9" x2="874.8" y2="724.9"/><line x1="877.3" y1="754.5" x2="907.4" y2="754.5"/><line x1="907.4" y1="754.5" x2="907.4" y2="740.5"/><line x1="907.4" y1="740.5" x2="877.3" y2="740.5"/><line x1="877.3" y1="740.5" x2="877.3" y2="754.5"/><line x1="879.9" y1="743.0" x2="904.9" y2="743.0"/><line x1="877.3" y1="638.4" x2="932.5" y2="638.4"/><line x1="932.5" y1="638.4" x2="932.5" y2="615.8"/><line x1="932.5" y1="615.8" x2="877.3" y2="615.8"/><line x1="877.3" y1="615.8" x2="877.3" y2="638.4"/><line x1="1000.3" y1="631.1" x2="1055.4" y2="631.1"/><line x1="1055.4" y1="631.1" x2="1055.4" y2="613.1"/><line x1="1055.4" y1="613.1" x2="1000.3" y2="613.1"/><line x1="1000.3" y1="613.1" x2="1000.3" y2="631.1"/><line x1="1002.8" y1="615.6" x2="1052.9" y2="615.6"/><line x1="980.2" y1="585.5" x2="1025.3" y2="585.5"/><line x1="1025.3" y1="585.5" x2="1025.3" y2="568.4"/><line x1="1025.3" y1="568.4" x2="980.2" y2="568.4"/><line x1="980.2" y1="568.4" x2="980.2" y2="585.5"/><line x1="982.7" y1="570.9" x2="1022.8" y2="570.9"/><line x1="1020.3" y1="597.0" x2="1055.4" y2="597.0"/><line x1="1055.4" y1="597.0" x2="1055.4" y2="576.9"/><line x1="1055.4" y1="576.9" x2="1020.3" y2="576.9"/><line x1="1020.3" y1="576.9" x2="1020.3" y2="597.0"/><line x1="1145.8" y1="741.2" x2="1180.9" y2="741.2"/><line x1="1180.9" y1="741.2" x2="1180.9" y2="703.6"/><line x1="1180.9" y1="703.6" x2="1145.8" y2="703.6"/><line x1="1145.8" y1="703.6" x2="1145.8" y2="741.2"/><line x1="1145.8" y1="715.7" x2="1180.9" y2="715.7"/><line x1="1151.4" y1="716.8" x2="1162.3" y2="716.8"/><line x1="1162.3" y1="716.8" x2="1162.3" y2="708.9"/><line x1="1162.3" y1="708.9" x2="1151.4" y2="708.9"/><line x1="1151.4" y1="708.9" x2="1151.4" y2="716.8"/><line x1="1164.4" y1="716.8" x2="1175.3" y2="716.8"/><line x1="1175.3" y1="716.8" x2="1175.3" y2="708.9"/><line x1="1175.3" y1="708.9" x2="1164.4" y2="708.9"/><line x1="1164.4" y1="708.9" x2="1164.4" y2="716.8"/><line x1="1148.3" y1="748.5" x2="1178.4" y2="748.5"/><line x1="1178.4" y1="748.5" x2="1178.4" y2="738.5"/><line x1="1178.4" y1="738.5" x2="1148.3" y2="738.5"/><line x1="1148.3" y1="738.5" x2="1148.3" y2="748.5"/><line x1="1147.0" y1="524.3" x2="1179.6" y2="524.3"/><line x1="1179.6" y1="524.3" x2="1179.6" y2="489.1"/><line x1="1179.6" y1="489.1" x2="1147.0" y2="489.1"/><line x1="1147.0" y1="489.1" x2="1147.0" y2="524.3"/><line x1="1147.0" y1="500.4" x2="1179.6" y2="500.4"/><line x1="1152.2" y1="501.4" x2="1162.3" y2="501.4"/><line x1="1162.3" y1="501.4" x2="1162.3" y2="494.1"/><line x1="1162.3" y1="494.1" x2="1152.2" y2="494.1"/><line x1="1152.2" y1="494.1" x2="1152.2" y2="501.4"/><line x1="1164.3" y1="501.4" x2="1174.4" y2="501.4"/><line x1="1174.4" y1="501.4" x2="1174.4" y2="494.1"/><line x1="1174.4" y1="494.1" x2="1164.3" y2="494.1"/><line x1="1164.3" y1="494.1" x2="1164.3" y2="501.4"/><line x1="943.6" y1="736.0" x2="953.6" y2="736.0"/><line x1="953.6" y1="736.0" x2="953.6" y2="720.9"/><line x1="953.6" y1="720.9" x2="943.6" y2="720.9"/><line x1="943.6" y1="720.9" x2="943.6" y2="736.0"/><line x1="1183.4" y1="609.5" x2="1193.4" y2="609.5"/><line x1="1193.4" y1="609.5" x2="1193.4" y2="594.5"/><line x1="1193.4" y1="594.5" x2="1183.4" y2="594.5"/><line x1="1183.4" y1="594.5" x2="1183.4" y2="609.5"/><line x1="1163.3" y1="444.0" x2="1173.3" y2="444.0"/><line x1="1173.3" y1="444.0" x2="1173.3" y2="428.9"/><line x1="1173.3" y1="428.9" x2="1163.3" y2="428.9"/><line x1="1163.3" y1="428.9" x2="1163.3" y2="444.0"/><line x1="1125.7" y1="650.2" x2="1155.8" y2="650.2"/><line x1="1155.8" y1="650.2" x2="1155.8" y2="633.6"/><line x1="1155.8" y1="633.6" x2="1125.7" y2="633.6"/><line x1="1125.7" y1="633.6" x2="1125.7" y2="650.2"/><line x1="1168.3" y1="657.2" x2="1203.4" y2="657.2"/><line x1="1203.4" y1="657.2" x2="1203.4" y2="627.1"/><line x1="1203.4" y1="627.1" x2="1168.3" y2="627.1"/><line x1="1168.3" y1="627.1" x2="1168.3" y2="657.2"/><line x1="1168.3" y1="466.6" x2="1198.4" y2="466.6"/><line x1="1198.4" y1="466.6" x2="1198.4" y2="444.0"/><line x1="1198.4" y1="444.0" x2="1168.3" y2="444.0"/><line x1="1168.3" y1="444.0" x2="1168.3" y2="466.6"/><line x1="694.2" y1="714.9" x2="729.3" y2="714.9"/><line x1="729.3" y1="714.9" x2="729.3" y2="639.6"/><line x1="729.3" y1="639.6" x2="694.2" y2="639.6"/><line x1="694.2" y1="639.6" x2="694.2" y2="714.9"/><line x1="749.4" y1="714.9" x2="784.5" y2="714.9"/><line x1="784.5" y1="714.9" x2="784.5" y2="639.6"/><line x1="784.5" y1="639.6" x2="749.4" y2="639.6"/><line x1="749.4" y1="639.6" x2="749.4" y2="714.9"/><line x1="802.1" y1="714.9" x2="837.2" y2="714.9"/><line x1="837.2" y1="714.9" x2="837.2" y2="639.6"/><line x1="837.2" y1="639.6" x2="802.1" y2="639.6"/><line x1="802.1" y1="639.6" x2="802.1" y2="714.9"/><line x1="847.2" y1="416.4" x2="1208.5" y2="416.4"/><line x1="1208.5" y1="416.4" x2="1208.5" y2="346.2"/><line x1="1208.5" y1="346.2" x2="847.2" y2="346.2"/><line x1="847.2" y1="346.2" x2="847.2" y2="416.4"/><line x1="917.5" y1="306.0" x2="1138.2" y2="306.0"/><line x1="1138.2" y1="306.0" x2="1138.2" y2="205.7"/><line x1="1138.2" y1="205.7" x2="917.5" y2="205.7"/><line x1="917.5" y1="205.7" x2="917.5" y2="306.0"/><line x1="1130.7" y1="328.6" x2="1175.9" y2="328.6"/><line x1="1175.9" y1="328.6" x2="1175.9" y2="283.4"/><line x1="1175.9" y1="283.4" x2="1130.7" y2="283.4"/><line x1="1130.7" y1="283.4" x2="1130.7" y2="328.6"/><line x1="997.8" y1="387.5" x2="1058.0" y2="387.5"/><line x1="1058.0" y1="387.5" x2="1058.0" y2="365.0"/><line x1="1058.0" y1="365.0" x2="997.8" y2="365.0"/><line x1="997.8" y1="365.0" x2="997.8" y2="387.5"/><line x1="920.0" y1="188.1" x2="935.0" y2="188.1"/><line x1="935.0" y1="188.1" x2="935.0" y2="153.0"/><line x1="935.0" y1="153.0" x2="920.0" y2="153.0"/><line x1="920.0" y1="153.0" x2="920.0" y2="188.1"/><line x1="965.1" y1="188.1" x2="980.2" y2="188.1"/><line x1="980.2" y1="188.1" x2="980.2" y2="153.0"/><line x1="980.2" y1="153.0" x2="965.1" y2="153.0"/><line x1="965.1" y1="153.0" x2="965.1" y2="188.1"/><line x1="1075.5" y1="188.1" x2="1090.6" y2="188.1"/><line x1="1090.6" y1="188.1" x2="1090.6" y2="153.0"/><line x1="1090.6" y1="153.0" x2="1075.5" y2="153.0"/><line x1="1075.5" y1="153.0" x2="1075.5" y2="188.1"/><line x1="1120.7" y1="188.1" x2="1135.7" y2="188.1"/><line x1="1135.7" y1="188.1" x2="1135.7" y2="153.0"/><line x1="1135.7" y1="153.0" x2="1120.7" y2="153.0"/><line x1="1120.7" y1="153.0" x2="1120.7" y2="188.1"/><line x1="676.7" y1="767.6" x2="676.7" y2="797.7"/><line x1="847.2" y1="767.6" x2="847.2" y2="797.7"/><line x1="676.7" y1="797.7" x2="847.2" y2="797.7"/><line x1="676.7" y1="797.7" x2="679.2" y2="796.4"/><line x1="676.7" y1="797.7" x2="679.2" y2="798.9"/><line x1="847.2" y1="797.7" x2="844.7" y2="796.4"/><line x1="847.2" y1="797.7" x2="844.7" y2="798.9"/><line x1="847.2" y1="767.6" x2="847.2" y2="797.7"/><line x1="1208.5" y1="767.6" x2="1208.5" y2="797.7"/><line x1="847.2" y1="797.7" x2="1208.5" y2="797.7"/><line x1="847.2" y1="797.7" x2="849.8" y2="796.4"/><line x1="847.2" y1="797.7" x2="849.8" y2="798.9"/><line x1="1208.5" y1="797.7" x2="1206.0" y2="796.4"/><line x1="1208.5" y1="797.7" x2="1206.0" y2="798.9"/><line x1="676.7" y1="767.6" x2="676.7" y2="817.7"/><line x1="1208.5" y1="767.6" x2="1208.5" y2="817.7"/><line x1="676.7" y1="817.7" x2="1208.5" y2="817.7"/><line x1="676.7" y1="817.7" x2="679.2" y2="816.5"/><line x1="676.7" y1="817.7" x2="679.2" y2="819.0"/><line x1="1208.5" y1="817.7" x2="1206.0" y2="816.5"/><line x1="1208.5" y1="817.7" x2="1206.0" y2="819.0"/><line x1="1208.5" y1="767.6" x2="1243.6" y2="767.6"/><line x1="1208.5" y1="416.4" x2="1243.6" y2="416.4"/><line x1="1243.6" y1="767.6" x2="1243.6" y2="416.4"/><line x1="1243.6" y1="767.6" x2="1244.8" y2="765.1"/><line x1="1243.6" y1="767.6" x2="1242.3" y2="765.1"/><line x1="1243.6" y1="416.4" x2="1244.8" y2="418.9"/><line x1="1243.6" y1="416.4" x2="1242.3" y2="418.9"/><line x1="1208.5" y1="416.4" x2="1243.6" y2="416.4"/><line x1="1208.5" y1="346.2" x2="1243.6" y2="346.2"/><line x1="1243.6" y1="416.4" x2="1243.6" y2="346.2"/><line x1="1243.6" y1="416.4" x2="1244.8" y2="413.9"/><line x1="1243.6" y1="416.4" x2="1242.3" y2="413.9"/><line x1="1243.6" y1="346.2" x2="1244.8" y2="348.7"/><line x1="1243.6" y1="346.2" x2="1242.3" y2="348.7"/><line x1="917.5" y1="205.7" x2="917.5" y2="170.6"/><line x1="1138.2" y1="205.7" x2="1138.2" y2="170.6"/><line x1="917.5" y1="170.6" x2="1138.2" y2="170.6"/><line x1="917.5" y1="170.6" x2="920.0" y2="169.3"/><line x1="917.5" y1="170.6" x2="920.0" y2="171.8"/><line x1="1138.2" y1="170.6" x2="1135.7" y2="169.3"/><line x1="1138.2" y1="170.6" x2="1135.7" y2="171.8"/></g>
<rect x="88" y="72" width="1424" height="756" rx="40" fill="none" stroke="#fff8ee" stroke-opacity=".15" stroke-width="2"/>
<text x="112" y="162" font-family="Arial, sans-serif" font-size="35" font-weight="900" letter-spacing="5" fill="#70f0ca">OROVIAN OASIS • CONCEPT HOME</text>
<text x="112" y="293.04" font-family="Georgia, serif" font-size="117" font-style="italic" fill="#fff8ee">Luxury</text>
<text x="112" y="401.84999999999997" font-family="Georgia, serif" font-size="117" font-style="italic" fill="#ff9a89">Custom Home</text>
<text x="112" y="468.54" font-family="Arial, sans-serif" font-size="32" font-weight="700" fill="#cbbfd2">Organic-modern estate • interactive walkthrough • coordinated DXF plans</text>
<g font-family="Arial, sans-serif" font-size="29" font-weight="800" fill="#fff8ee">
 <text x="112" y="702">5,850 SQ FT</text>
 <text x="400" y="702">4 SUITES</text>
 <text x="640" y="702">4.5 BATHS</text>
 <text x="912" y="702">3-CAR GARAGE</text>
</g>
<rect x="112" y="734" width="768" height="3" rx="2" fill="#70f0ca"/>
</svg>