<svg xmlns="http://www.w3.org/2000/svg" width="1920" height="1080" viewBox="0 0 1920 1080">
<defs>
 <linearGradient id="bg" x1="0" y1="0" x2="1" y2="1"><stop stop-color="#17101f"/><stop offset=".55" stop-color="#321c3b"/><stop offset="1" stop-color="#15101c"/></linearGradient>
 <radialGradient id="g1"><stop stop-color="#ff7866" stop-opacity=".52"/><stop offset="1" stop-color="#ff7866" stop-opacity="0"/></radialGradient>
 <radialGradient id="g2"><stop stop-color="#70f0ca" stop-opacity=".42"/><stop offset="1" stop-color="#70f0ca" stop-opacity="0"/></radialGradient>
</defs>
<rect width="100%" height="100%" fill="url(#bg)"/>
<circle cx="230" cy="194" r="302" fill="url(#g1)"/>
<circle cx="1690" cy="799" r="367" fill="url(#g2)"/>
<g opacity=".11" fill="#fff8ee"><circle cx="0" cy="0" r="2"/><circle cx="97" cy="61" r="2"/><circle cx="194" cy="122" r="2"/><circle cx="291" cy="183" r="2"/><circle cx="388" cy="244" r="2"/><circle cx="485" cy="305" r="2"/><circle cx="582" cy="366" r="2"/><circle cx="679" cy="427" r="2"/><circle cx="776" cy="488" r="2"/><circle cx="873" cy="549" r="2"/><circle cx="970" cy="610" r="2"/><circle cx="1067" cy="671" r="2"/><circle cx="1164" cy="732" r="2"/><circle cx="1261" cy="793" r="2"/><circle cx="1358" cy="854" r="2"/><circle cx="1455" cy="915" r="2"/><circle cx="1552" cy="976" r="2"/><circle cx="1649" cy="1037" r="2"/><circle cx="1746" cy="18" r="2"/><circle cx="1843" cy="79" r="2"/><circle cx="20" cy="140" r="2"/><circle cx="117" cy="201" r="2"/><circle cx="214" cy="262" r="2"/><circle cx="311" cy="323" r="2"/><circle cx="408" cy="384" r="2"/><circle cx="505" cy="445" r="2"/><circle cx="602" cy="506" r="2"/><circle cx="699" cy="567" r="2"/><circle cx="796" cy="628" r="2"/><circle cx="893" cy="689" r="2"/></g>
<g opacity=".22" stroke="#70f0ca" fill="none" stroke-width="1.8"><line x1="1016.7" y1="922.9" x2="1034.8" y2="922.9"/><line x1="1034.8" y1="922.9" x2="1034.8" y2="919.3"/><line x1="1034.8" y1="919.3" x2="1016.7" y2="919.3"/><line x1="1016.7" y1="919.3" x2="1016.7" y2="922.9"/><line x1="1070.9" y1="922.9" x2="1082.9" y2="922.9"/><line x1="1082.9" y1="922.9" x2="1082.9" y2="919.3"/><line x1="1082.9" y1="919.3" x2="1070.9" y2="919.3"/><line x1="1070.9" y1="919.3" x2="1070.9" y2="922.9"/><line x1="1119.0" y1="922.9" x2="1137.1" y2="922.9"/><line x1="1137.1" y1="922.9" x2="1137.1" y2="919.3"/><line x1="1137.1" y1="919.3" x2="1119.0" y2="919.3"/><line x1="1119.0" y1="919.3" x2="1119.0" y2="922.9"/><line x1="1149.1" y1="922.9" x2="1209.3" y2="922.9"/><line x1="1209.3" y1="922.9" x2="1209.3" y2="919.3"/><line x1="1209.3" y1="919.3" x2="1149.1" y2="919.3"/><line x1="1149.1" y1="919.3" x2="1149.1" y2="922.9"/><line x1="1281.6" y1="922.9" x2="1365.9" y2="922.9"/><line x1="1365.9" y1="922.9" x2="1365.9" y2="919.3"/><line x1="1365.9" y1="919.3" x2="1281.6" y2="919.3"/><line x1="1281.6" y1="919.3" x2="1281.6" y2="922.9"/><line x1="1426.1" y1="922.9" x2="1450.2" y2="922.9"/><line x1="1450.2" y1="922.9" x2="1450.2" y2="919.3"/><line x1="1450.2" y1="919.3" x2="1426.1" y2="919.3"/><line x1="1426.1" y1="919.3" x2="1426.1" y2="922.9"/><line x1="1014.9" y1="921.1" x2="1018.5" y2="921.1"/><line x1="1018.5" y1="921.1" x2="1018.5" y2="897.0"/><line x1="1018.5" y1="897.0" x2="1014.9" y2="897.0"/><line x1="1014.9" y1="897.0" x2="1014.9" y2="921.1"/><line x1="1014.9" y1="836.8" x2="1018.5" y2="836.8"/><line x1="1018.5" y1="836.8" x2="1018.5" y2="782.6"/><line x1="1018.5" y1="782.6" x2="1014.9" y2="782.6"/><line x1="1014.9" y1="782.6" x2="1014.9" y2="836.8"/><line x1="1014.9" y1="716.4" x2="1018.5" y2="716.4"/><line x1="1018.5" y1="716.4" x2="1018.5" y2="668.2"/><line x1="1018.5" y1="668.2" x2="1014.9" y2="668.2"/><line x1="1014.9" y1="668.2" x2="1014.9" y2="716.4"/><line x1="1014.9" y1="608.0" x2="1018.5" y2="608.0"/><line x1="1018.5" y1="608.0" x2="1018.5" y2="590.0"/><line x1="1018.5" y1="590.0" x2="1014.9" y2="590.0"/><line x1="1014.9" y1="590.0" x2="1014.9" y2="608.0"/><line x1="1014.9" y1="523.7" x2="1018.5" y2="523.7"/><line x1="1018.5" y1="523.7" x2="1018.5" y2="499.7"/><line x1="1018.5" y1="499.7" x2="1014.9" y2="499.7"/><line x1="1014.9" y1="499.7" x2="1014.9" y2="523.7"/><line x1="1448.4" y1="921.1" x2="1452.0" y2="921.1"/><line x1="1452.0" y1="921.1" x2="1452.0" y2="897.0"/><line x1="1452.0" y1="897.0" x2="1448.4" y2="897.0"/><line x1="1448.4" y1="897.0" x2="1448.4" y2="921.1"/><line x1="1448.4" y1="824.8" x2="1452.0" y2="824.8"/><line x1="1452.0" y1="824.8" x2="1452.0" y2="776.6"/><line x1="1452.0" y1="776.6" x2="1448.4" y2="776.6"/><line x1="1448.4" y1="776.6" x2="1448.4" y2="824.8"/><line x1="1448.4" y1="716.4" x2="1452.0" y2="716.4"/><line x1="1452.0" y1="716.4" x2="1452.0" y2="626.1"/><line x1="1452.0" y1="626.1" x2="1448.4" y2="626.1"/><line x1="1448.4" y1="626.1" x2="1448.4" y2="716.4"/><line x1="1448.4" y1="571.9" x2="1452.0" y2="571.9"/><line x1="1452.0" y1="571.9" x2="1452.0" y2="547.8"/><line x1="1452.0" y1="547.8" x2="1448.4" y2="547.8"/><line x1="1448.4" y1="547.8" x2="1448.4" y2="571.9"/><line x1="1448.4" y1="511.7" x2="1452.0" y2="511.7"/><line x1="1452.0" y1="511.7" x2="1452.0" y2="499.7"/><line x1="1452.0" y1="499.7" x2="1448.4" y2="499.7"/><line x1="1448.4" y1="499.7" x2="1448.4" y2="511.7"/><line x1="1016.7" y1="501.5" x2="1058.8" y2="501.5"/><line x1="1058.8" y1="501.5" x2="1058.8" y2="497.9"/><line x1="1058.8" y1="497.9" x2="1016.7" y2="497.9"/><line x1="1016.7" y1="497.9" x2="1016.7" y2="501.5"/><line x1="1143.1" y1="501.5" x2="1185.3" y2="501.5"/><line x1="1185.3" y1="501.5" x2="1185.3" y2="497.9"/><line x1="1185.3" y1="497.9" x2="1143.1" y2="497.9"/><line x1="1143.1" y1="497.9" x2="1143.1" y2="501.5"/><line x1="1209.3" y1="501.5" x2="1221.4" y2="501.5"/><line x1="1221.4" y1="501.5" x2="1221.4" y2="497.9"/><line x1="1221.4" y1="497.9" x2="1209.3" y2="497.9"/><line x1="1209.3" y1="497.9" x2="1209.3" y2="501.5"/><line x1="1293.6" y1="501.5" x2="1353.8" y2="501.5"/><line x1="1353.8" y1="501.5" x2="1353.8" y2="497.9"/><line x1="1353.8" y1="497.9" x2="1293.6" y2="497.9"/><line x1="1293.6" y1="497.9" x2="1293.6" y2="501.5"/><line x1="1432.1" y1="501.5" x2="1450.2" y2="501.5"/><line x1="1450.2" y1="501.5" x2="1450.2" y2="497.9"/><line x1="1450.2" y1="497.9" x2="1432.1" y2="497.9"/><line x1="1432.1" y1="497.9" x2="1432.1" y2="501.5"/><line x1="812.0" y1="922.9" x2="824.0" y2="922.9"/><line x1="824.0" y1="922.9" x2="824.0" y2="919.3"/><line x1="824.0" y1="919.3" x2="812.0" y2="919.3"/><line x1="812.0" y1="919.3" x2="812.0" y2="922.9"/><line x1="884.2" y1="922.9" x2="890.3" y2="922.9"/><line x1="890.3" y1="922.9" x2="890.3" y2="919.3"/><line x1="890.3" y1="919.3" x2="884.2" y2="919.3"/><line x1="884.2" y1="919.3" x2="884.2" y2="922.9"/><line x1="950.5" y1="922.9" x2="956.5" y2="922.9"/><line x1="956.5" y1="922.9" x2="956.5" y2="919.3"/><line x1="956.5" y1="919.3" x2="950.5" y2="919.3"/><line x1="950.5" y1="919.3" x2="950.5" y2="922.9"/><line x1="1010.7" y1="922.9" x2="1016.7" y2="922.9"/><line x1="1016.7" y1="922.9" x2="1016.7" y2="919.3"/><line x1="1016.7" y1="919.3" x2="1010.7" y2="919.3"/><line x1="1010.7" y1="919.3" x2="1010.7" y2="922.9"/><line x1="810.2" y1="921.1" x2="813.8" y2="921.1"/><line x1="813.8" y1="921.1" x2="813.8" y2="692.3"/><line x1="813.8" y1="692.3" x2="810.2" y2="692.3"/><line x1="810.2" y1="692.3" x2="810.2" y2="921.1"/><line x1="812.0" y1="694.1" x2="962.5" y2="694.1"/><line x1="962.5" y1="694.1" x2="962.5" y2="690.5"/><line x1="962.5" y1="690.5" x2="812.0" y2="690.5"/><line x1="812.0" y1="690.5" x2="812.0" y2="694.1"/><line x1="980.6" y1="694.1" x2="1016.7" y2="694.1"/><line x1="1016.7" y1="694.1" x2="1016.7" y2="690.5"/><line x1="1016.7" y1="690.5" x2="980.6" y2="690.5"/><line x1="980.6" y1="690.5" x2="980.6" y2="694.1"/><line x1="1014.9" y1="921.1" x2="1018.5" y2="921.1"/><line x1="1018.5" y1="921.1" x2="1018.5" y2="752.5"/><line x1="1018.5" y1="752.5" x2="1014.9" y2="752.5"/><line x1="1014.9" y1="752.5" x2="1014.9" y2="921.1"/><line x1="1014.9" y1="734.5" x2="1018.5" y2="734.5"/><line x1="1018.5" y1="734.5" x2="1018.5" y2="692.3"/><line x1="1018.5" y1="692.3" x2="1014.9" y2="692.3"/><line x1="1014.9" y1="692.3" x2="1014.9" y2="734.5"/><line x1="942.9" y1="800.7" x2="946.0" y2="800.7"/><line x1="946.0" y1="800.7" x2="946.0" y2="752.5"/><line x1="946.0" y1="752.5" x2="942.9" y2="752.5"/><line x1="942.9" y1="752.5" x2="942.9" y2="800.7"/><line x1="942.9" y1="734.5" x2="946.0" y2="734.5"/><line x1="946.0" y1="734.5" x2="946.0" y2="692.3"/><line x1="946.0" y1="692.3" x2="942.9" y2="692.3"/><line x1="942.9" y1="692.3" x2="942.9" y2="734.5"/><line x1="944.4" y1="802.2" x2="1016.7" y2="802.2"/><line x1="1016.7" y1="802.2" x2="1016.7" y2="799.2"/><line x1="1016.7" y1="799.2" x2="944.4" y2="799.2"/><line x1="944.4" y1="799.2" x2="944.4" y2="802.2"/><line x1="1159.7" y1="921.1" x2="1162.7" y2="921.1"/><line x1="1162.7" y1="921.1" x2="1162.7" y2="854.9"/><line x1="1162.7" y1="854.9" x2="1159.7" y2="854.9"/><line x1="1159.7" y1="854.9" x2="1159.7" y2="921.1"/><line x1="1159.7" y1="830.8" x2="1162.7" y2="830.8"/><line x1="1162.7" y1="830.8" x2="1162.7" y2="752.5"/><line x1="1162.7" y1="752.5" x2="1159.7" y2="752.5"/><line x1="1159.7" y1="752.5" x2="1159.7" y2="830.8"/><line x1="1159.7" y1="716.4" x2="1162.7" y2="716.4"/><line x1="1162.7" y1="716.4" x2="1162.7" y2="680.3"/><line x1="1162.7" y1="680.3" x2="1159.7" y2="680.3"/><line x1="1159.7" y1="680.3" x2="1159.7" y2="716.4"/><line x1="1159.7" y1="638.1" x2="1162.7" y2="638.1"/><line x1="1162.7" y1="638.1" x2="1162.7" y2="608.0"/><line x1="1162.7" y1="608.0" x2="1159.7" y2="608.0"/><line x1="1159.7" y1="608.0" x2="1159.7" y2="638.1"/><line x1="1159.7" y1="571.9" x2="1162.7" y2="571.9"/><line x1="1162.7" y1="571.9" x2="1162.7" y2="499.7"/><line x1="1162.7" y1="499.7" x2="1159.7" y2="499.7"/><line x1="1159.7" y1="499.7" x2="1159.7" y2="571.9"/><line x1="1340.3" y1="921.1" x2="1343.3" y2="921.1"/><line x1="1343.3" y1="921.1" x2="1343.3" y2="854.9"/><line x1="1343.3" y1="854.9" x2="1340.3" y2="854.9"/><line x1="1340.3" y1="854.9" x2="1340.3" y2="921.1"/><line x1="1340.3" y1="836.8" x2="1343.3" y2="836.8"/><line x1="1343.3" y1="836.8" x2="1343.3" y2="746.5"/><line x1="1343.3" y1="746.5" x2="1340.3" y2="746.5"/><line x1="1340.3" y1="746.5" x2="1340.3" y2="836.8"/><line x1="1340.3" y1="728.4" x2="1343.3" y2="728.4"/><line x1="1343.3" y1="728.4" x2="1343.3" y2="614.1"/><line x1="1343.3" y1="614.1" x2="1340.3" y2="614.1"/><line x1="1340.3" y1="614.1" x2="1340.3" y2="728.4"/><line x1="1340.3" y1="590.0" x2="1343.3" y2="590.0"/><line x1="1343.3" y1="590.0" x2="1343.3" y2="499.7"/><line x1="1343.3" y1="499.7" x2="1340.3" y2="499.7"/><line x1="1340.3" y1="499.7" x2="1340.3" y2="590.0"/><line x1="1161.2" y1="832.3" x2="1209.3" y2="832.3"/><line x1="1209.3" y1="832.3" x2="1209.3" y2="829.3"/><line x1="1209.3" y1="829.3" x2="1161.2" y2="829.3"/><line x1="1161.2" y1="829.3" x2="1161.2" y2="832.3"/><line x1="1293.6" y1="832.3" x2="1341.8" y2="832.3"/><line x1="1341.8" y1="832.3" x2="1341.8" y2="829.3"/><line x1="1341.8" y1="829.3" x2="1293.6" y2="829.3"/><line x1="1293.6" y1="829.3" x2="1293.6" y2="832.3"/><line x1="1016.7" y1="814.2" x2="1113.0" y2="814.2"/><line x1="1113.0" y1="814.2" x2="1113.0" y2="811.2"/><line x1="1113.0" y1="811.2" x2="1016.7" y2="811.2"/><line x1="1016.7" y1="811.2" x2="1016.7" y2="814.2"/><line x1="1131.1" y1="814.2" x2="1161.2" y2="814.2"/><line x1="1161.2" y1="814.2" x2="1161.2" y2="811.2"/><line x1="1161.2" y1="811.2" x2="1131.1" y2="811.2"/><line x1="1131.1" y1="811.2" x2="1131.1" y2="814.2"/><line x1="1016.7" y1="693.8" x2="1058.8" y2="693.8"/><line x1="1058.8" y1="693.8" x2="1058.8" y2="690.8"/><line x1="1058.8" y1="690.8" x2="1016.7" y2="690.8"/><line x1="1016.7" y1="690.8" x2="1016.7" y2="693.8"/><line x1="1143.1" y1="693.8" x2="1161.2" y2="693.8"/><line x1="1161.2" y1="693.8" x2="1161.2" y2="690.8"/><line x1="1161.2" y1="690.8" x2="1143.1" y2="690.8"/><line x1="1143.1" y1="690.8" x2="1143.1" y2="693.8"/><line x1="1341.8" y1="802.2" x2="1377.9" y2="802.2"/><line x1="1377.9" y1="802.2" x2="1377.9" y2="799.2"/><line x1="1377.9" y1="799.2" x2="1341.8" y2="799.2"/><line x1="1341.8" y1="799.2" x2="1341.8" y2="802.2"/><line x1="1396.0" y1="802.2" x2="1450.2" y2="802.2"/><line x1="1450.2" y1="802.2" x2="1450.2" y2="799.2"/><line x1="1450.2" y1="799.2" x2="1396.0" y2="799.2"/><line x1="1396.0" y1="799.2" x2="1396.0" y2="802.2"/><line x1="1341.8" y1="693.8" x2="1359.9" y2="693.8"/><line x1="1359.9" y1="693.8" x2="1359.9" y2="690.8"/><line x1="1359.9" y1="690.8" x2="1341.8" y2="690.8"/><line x1="1341.8" y1="690.8" x2="1341.8" y2="693.8"/><line x1="1377.9" y1="693.8" x2="1450.2" y2="693.8"/><line x1="1450.2" y1="693.8" x2="1450.2" y2="690.8"/><line x1="1450.2" y1="690.8" x2="1377.9" y2="690.8"/><line x1="1377.9" y1="690.8" x2="1377.9" y2="693.8"/><line x1="1341.8" y1="645.7" x2="1365.9" y2="645.7"/><line x1="1365.9" y1="645.7" x2="1365.9" y2="642.7"/><line x1="1365.9" y1="642.7" x2="1341.8" y2="642.7"/><line x1="1341.8" y1="642.7" x2="1341.8" y2="645.7"/><line x1="1390.0" y1="645.7" x2="1450.2" y2="645.7"/><line x1="1450.2" y1="645.7" x2="1450.2" y2="642.7"/><line x1="1450.2" y1="642.7" x2="1390.0" y2="642.7"/><line x1="1390.0" y1="642.7" x2="1390.0" y2="645.7"/><line x1="1341.8" y1="573.4" x2="1359.9" y2="573.4"/><line x1="1359.9" y1="573.4" x2="1359.9" y2="570.4"/><line x1="1359.9" y1="570.4" x2="1341.8" y2="570.4"/><line x1="1341.8" y1="570.4" x2="1341.8" y2="573.4"/><line x1="1377.9" y1="573.4" x2="1408.0" y2="573.4"/><line x1="1408.0" y1="573.4" x2="1408.0" y2="570.4"/><line x1="1408.0" y1="570.4" x2="1377.9" y2="570.4"/><line x1="1377.9" y1="570.4" x2="1377.9" y2="573.4"/><line x1="1426.1" y1="573.4" x2="1450.2" y2="573.4"/><line x1="1450.2" y1="573.4" x2="1450.2" y2="570.4"/><line x1="1450.2" y1="570.4" x2="1426.1" y2="570.4"/><line x1="1426.1" y1="570.4" x2="1426.1" y2="573.4"/><line x1="1388.4" y1="571.9" x2="1391.5" y2="571.9"/><line x1="1391.5" y1="571.9" x2="1391.5" y2="499.7"/><line x1="1391.5" y1="499.7" x2="1388.4" y2="499.7"/><line x1="1388.4" y1="499.7" x2="1388.4" y2="571.9"/><line x1="1123.6" y1="921.1" x2="1126.6" y2="921.1"/><line x1="1126.6" y1="921.1" x2="1126.6" y2="885.0"/><line x1="1126.6" y1="885.0" x2="1123.6" y2="885.0"/><line x1="1123.6" y1="885.0" x2="1123.6" y2="921.1"/><line x1="1123.6" y1="866.9" x2="1126.6" y2="866.9"/><line x1="1126.6" y1="866.9" x2="1126.6" y2="860.9"/><line x1="1126.6" y1="860.9" x2="1123.6" y2="860.9"/><line x1="1123.6" y1="860.9" x2="1123.6" y2="866.9"/><line x1="1125.1" y1="862.4" x2="1137.1" y2="862.4"/><line x1="1137.1" y1="862.4" x2="1137.1" y2="859.4"/><line x1="1137.1" y1="859.4" x2="1125.1" y2="859.4"/><line x1="1125.1" y1="859.4" x2="1125.1" y2="862.4"/><line x1="1155.2" y1="862.4" x2="1161.2" y2="862.4"/><line x1="1161.2" y1="862.4" x2="1161.2" y2="859.4"/><line x1="1161.2" y1="859.4" x2="1155.2" y2="859.4"/><line x1="1155.2" y1="859.4" x2="1155.2" y2="862.4"/><line x1="1063.4" y1="692.3" x2="1066.4" y2="692.3"/><line x1="1066.4" y1="692.3" x2="1066.4" y2="662.2"/><line x1="1066.4" y1="662.2" x2="1063.4" y2="662.2"/><line x1="1063.4" y1="662.2" x2="1063.4" y2="692.3"/><line x1="1063.4" y1="644.2" x2="1066.4" y2="644.2"/><line x1="1066.4" y1="644.2" x2="1066.4" y2="596.0"/><line x1="1066.4" y1="596.0" x2="1063.4" y2="596.0"/><line x1="1063.4" y1="596.0" x2="1063.4" y2="644.2"/><line x1="1063.4" y1="577.9" x2="1066.4" y2="577.9"/><line x1="1066.4" y1="577.9" x2="1066.4" y2="547.8"/><line x1="1066.4" y1="547.8" x2="1063.4" y2="547.8"/><line x1="1063.4" y1="547.8" x2="1063.4" y2="577.9"/><line x1="1220.6" y1="632.1" x2="1222.1" y2="632.1"/><line x1="1222.1" y1="632.1" x2="1222.1" y2="608.0"/><line x1="1222.1" y1="608.0" x2="1220.6" y2="608.0"/><line x1="1220.6" y1="608.0" x2="1220.6" y2="632.1"/><line x1="1220.6" y1="571.9" x2="1222.1" y2="571.9"/><line x1="1222.1" y1="571.9" x2="1222.1" y2="535.8"/><line x1="1222.1" y1="535.8" x2="1220.6" y2="535.8"/><line x1="1220.6" y1="535.8" x2="1220.6" y2="571.9"/><line x1="1292.9" y1="632.1" x2="1294.4" y2="632.1"/><line x1="1294.4" y1="632.1" x2="1294.4" y2="602.0"/><line x1="1294.4" y1="602.0" x2="1292.9" y2="602.0"/><line x1="1292.9" y1="602.0" x2="1292.9" y2="632.1"/><line x1="1292.9" y1="577.9" x2="1294.4" y2="577.9"/><line x1="1294.4" y1="577.9" x2="1294.4" y2="535.8"/><line x1="1294.4" y1="535.8" x2="1292.9" y2="535.8"/><line x1="1292.9" y1="535.8" x2="1292.9" y2="577.9"/><line x1="1221.4" y1="632.9" x2="1233.4" y2="632.9"/><line x1="1233.4" y1="632.9" x2="1233.4" y2="631.4"/><line x1="1233.4" y1="631.4" x2="1221.4" y2="631.4"/><line x1="1221.4" y1="631.4" x2="1221.4" y2="632.9"/><line x1="1281.6" y1="632.9" x2="1293.6" y2="632.9"/><line x1="1293.6" y1="632.9" x2="1293.6" y2="631.4"/><line x1="1293.6" y1="631.4" x2="1281.6" y2="631.4"/><line x1="1281.6" y1="631.4" x2="1281.6" y2="632.9"/><line x1="1221.4" y1="536.5" x2="1245.5" y2="536.5"/><line x1="1245.5" y1="536.5" x2="1245.5" y2="535.0"/><line x1="1245.5" y1="535.0" x2="1221.4" y2="535.0"/><line x1="1221.4" y1="535.0" x2="1221.4" y2="536.5"/><line x1="1269.5" y1="536.5" x2="1293.6" y2="536.5"/><line x1="1293.6" y1="536.5" x2="1293.6" y2="535.0"/><line x1="1293.6" y1="535.0" x2="1269.5" y2="535.0"/><line x1="1269.5" y1="535.0" x2="1269.5" y2="536.5"/><line x1="1034.8" y1="921.7" x2="1070.9" y2="921.7"/><line x1="1034.8" y1="920.5" x2="1070.9" y2="920.5"/><line x1="1082.9" y1="921.7" x2="1119.0" y2="921.7"/><line x1="1082.9" y1="920.5" x2="1119.0" y2="920.5"/><line x1="1365.9" y1="921.7" x2="1426.1" y2="921.7"/><line x1="1365.9" y1="920.5" x2="1426.1" y2="920.5"/><line x1="1016.1" y1="897.0" x2="1016.1" y2="836.8"/><line x1="1017.3" y1="897.0" x2="1017.3" y2="836.8"/><line x1="1016.1" y1="782.6" x2="1016.1" y2="716.4"/><line x1="1017.3" y1="782.6" x2="1017.3" y2="716.4"/><line x1="1016.1" y1="668.2" x2="1016.1" y2="608.0"/><line x1="1017.3" y1="668.2" x2="1017.3" y2="608.0"/><line x1="1449.6" y1="897.0" x2="1449.6" y2="824.8"/><line x1="1450.8" y1="897.0" x2="1450.8" y2="824.8"/><line x1="1449.6" y1="776.6" x2="1449.6" y2="716.4"/><line x1="1450.8" y1="776.6" x2="1450.8" y2="716.4"/><line x1="1449.6" y1="626.1" x2="1449.6" y2="571.9"/><line x1="1450.8" y1="626.1" x2="1450.8" y2="571.9"/><line x1="1449.6" y1="547.8" x2="1449.6" y2="511.7"/><line x1="1450.8" y1="547.8" x2="1450.8" y2="511.7"/><line x1="1058.8" y1="500.3" x2="1143.1" y2="500.3"/><line x1="1058.8" y1="499.1" x2="1143.1" y2="499.1"/><line x1="1353.8" y1="500.3" x2="1432.1" y2="500.3"/><line x1="1353.8" y1="499.1" x2="1432.1" y2="499.1"/><line x1="1221.4" y1="921.1" x2="1221.4" y2="872.9"/><line x1="1113.0" y1="812.7" x2="1113.0" y2="794.7"/><line x1="1137.1" y1="860.9" x2="1137.1" y2="842.8"/><line x1="1377.9" y1="800.7" x2="1377.9" y2="782.6"/><line x1="1359.9" y1="692.3" x2="1359.9" y2="674.3"/><line x1="1365.9" y1="644.2" x2="1365.9" y2="620.1"/><line x1="1359.9" y1="571.9" x2="1359.9" y2="553.9"/><line x1="1408.0" y1="571.9" x2="1408.0" y2="553.9"/><line x1="1161.2" y1="854.9" x2="1185.3" y2="854.9"/><line x1="1161.2" y1="752.5" x2="1197.3" y2="752.5"/><line x1="1161.2" y1="680.3" x2="1203.3" y2="680.3"/><line x1="1341.8" y1="854.9" x2="1359.9" y2="854.9"/><line x1="1341.8" y1="746.5" x2="1359.9" y2="746.5"/><line x1="1167.2" y1="644.2" x2="1215.4" y2="644.2"/><line x1="1167.2" y1="638.1" x2="1215.4" y2="638.1"/><line x1="1167.2" y1="632.1" x2="1215.4" y2="632.1"/><line x1="1167.2" y1="626.1" x2="1215.4" y2="626.1"/><line x1="1167.2" y1="620.1" x2="1215.4" y2="620.1"/><line x1="1167.2" y1="614.1" x2="1215.4" y2="614.1"/><line x1="1167.2" y1="608.0" x2="1215.4" y2="608.0"/><line x1="1167.2" y1="602.0" x2="1215.4" y2="602.0"/><line x1="1167.2" y1="596.0" x2="1215.4" y2="596.0"/><line x1="1167.2" y1="590.0" x2="1215.4" y2="590.0"/><line x1="1167.2" y1="584.0" x2="1215.4" y2="584.0"/><line x1="1167.2" y1="577.9" x2="1215.4" y2="577.9"/><line x1="1167.2" y1="571.9" x2="1215.4" y2="571.9"/><line x1="1167.2" y1="565.9" x2="1215.4" y2="565.9"/><line x1="1167.2" y1="559.9" x2="1215.4" y2="559.9"/><line x1="1167.2" y1="553.9" x2="1215.4" y2="553.9"/><line x1="1167.2" y1="547.8" x2="1215.4" y2="547.8"/><line x1="1167.2" y1="541.8" x2="1215.4" y2="541.8"/><line x1="1191.3" y1="644.2" x2="1191.3" y2="535.8"/><line x1="1019.1" y1="677.3" x2="1031.7" y2="677.3"/><line x1="1031.7" y1="677.3" x2="1031.7" y2="532.8"/><line x1="1031.7" y1="532.8" x2="1019.1" y2="532.8"/><line x1="1019.1" y1="532.8" x2="1019.1" y2="677.3"/><line x1="1067.9" y1="517.7" x2="1149.1" y2="517.7"/><line x1="1149.1" y1="517.7" x2="1149.1" y2="502.7"/><line x1="1149.1" y1="502.7" x2="1067.9" y2="502.7"/><line x1="1067.9" y1="502.7" x2="1067.9" y2="517.7"/><line x1="1070.9" y1="621.3" x2="1143.1" y2="621.3"/><line x1="1143.1" y1="621.3" x2="1143.1" y2="594.8"/><line x1="1143.1" y1="594.8" x2="1070.9" y2="594.8"/><line x1="1070.9" y1="594.8" x2="1070.9" y2="621.3"/><line x1="1347.8" y1="704.4" x2="1444.1" y2="704.4"/><line x1="1444.1" y1="704.4" x2="1444.1" y2="692.3"/><line x1="1444.1" y1="692.3" x2="1347.8" y2="692.3"/><line x1="1347.8" y1="692.3" x2="1347.8" y2="704.4"/><line x1="1402.0" y1="514.7" x2="1438.1" y2="514.7"/><line x1="1438.1" y1="514.7" x2="1438.1" y2="502.7"/><line x1="1438.1" y1="502.7" x2="1402.0" y2="502.7"/><line x1="1402.0" y1="502.7" x2="1402.0" y2="514.7"/><line x1="950.5" y1="710.4" x2="1010.7" y2="710.4"/><line x1="1010.7" y1="710.4" x2="1010.7" y2="698.3"/><line x1="1010.7" y1="698.3" x2="950.5" y2="698.3"/><line x1="950.5" y1="698.3" x2="950.5" y2="710.4"/><line x1="1049.8" y1="869.9" x2="1091.9" y2="869.9"/><line x1="1091.9" y1="869.9" x2="1091.9" y2="851.9"/><line x1="1091.9" y1="851.9" x2="1049.8" y2="851.9"/><line x1="1049.8" y1="851.9" x2="1049.8" y2="869.9"/><line x1="1052.8" y1="905.4" x2="1088.9" y2="905.4"/><line x1="1088.9" y1="905.4" x2="1088.9" y2="888.6"/><line x1="1088.9" y1="888.6" x2="1052.8" y2="888.6"/><line x1="1052.8" y1="888.6" x2="1052.8" y2="905.4"/><line x1="1055.8" y1="891.6" x2="1085.9" y2="891.6"/><line x1="1052.8" y1="766.1" x2="1119.0" y2="766.1"/><line x1="1119.0" y1="766.1" x2="1119.0" y2="739.0"/><line x1="1119.0" y1="739.0" x2="1052.8" y2="739.0"/><line x1="1052.8" y1="739.0" x2="1052.8" y2="766.1"/><line x1="1200.3" y1="757.3" x2="1266.5" y2="757.3"/><line x1="1266.5" y1="757.3" x2="1266.5" y2="735.7"/><line x1="1266.5" y1="735.7" x2="1200.3" y2="735.7"/><line x1="1200.3" y1="735.7" x2="1200.3" y2="757.3"/><line x1="1203.3" y1="738.7" x2="1263.5" y2="738.7"/><line x1="1176.2" y1="702.6" x2="1230.4" y2="702.6"/><line x1="1230.4" y1="702.6" x2="1230.4" y2="682.1"/><line x1="1230.4" y1="682.1" x2="1176.2" y2="682.1"/><line x1="1176.2" y1="682.1" x2="1176.2" y2="702.6"/><line x1="1179.2" y1="685.1" x2="1227.4" y2="685.1"/><line x1="1224.4" y1="716.4" x2="1266.5" y2="716.4"/><line x1="1266.5" y1="716.4" x2="1266.5" y2="692.3"/><line x1="1266.5" y1="692.3" x2="1224.4" y2="692.3"/><line x1="1224.4" y1="692.3" x2="1224.4" y2="716.4"/><line x1="1374.9" y1="889.5" x2="1417.0" y2="889.5"/><line x1="1417.0" y1="889.5" x2="1417.0" y2="844.3"/><line x1="1417.0" y1="844.3" x2="1374.9" y2="844.3"/><line x1="1374.9" y1="844.3" x2="1374.9" y2="889.5"/><line x1="1374.9" y1="858.8" x2="1417.0" y2="858.8"/><line x1="1381.6" y1="860.1" x2="1394.7" y2="860.1"/><line x1="1394.7" y1="860.1" x2="1394.7" y2="850.7"/><line x1="1394.7" y1="850.7" x2="1381.6" y2="850.7"/><line x1="1381.6" y1="850.7" x2="1381.6" y2="860.1"/><line x1="1397.2" y1="860.1" x2="1410.3" y2="860.1"/><line x1="1410.3" y1="860.1" x2="1410.3" y2="850.7"/><line x1="1410.3" y1="850.7" x2="1397.2" y2="850.7"/><line x1="1397.2" y1="850.7" x2="1397.2" y2="860.1"/><line x1="1377.9" y1="898.2" x2="1414.0" y2="898.2"/><line x1="1414.0" y1="898.2" x2="1414.0" y2="886.2"/><line x1="1414.0" y1="886.2" x2="1377.9" y2="886.2"/><line x1="1377.9" y1="886.2" x2="1377.9" y2="898.2"/><line x1="1376.4" y1="629.1" x2="1415.5" y2="629.1"/><line x1="1415.5" y1="629.1" x2="1415.5" y2="587.0"/><line x1="1415.5" y1="587.0" x2="1376.4" y2="587.0"/><line x1="1376.4" y1="587.0" x2="1376.4" y2="629.1"/><line x1="1376.4" y1="600.4" x2="1415.5" y2="600.4"/><line x1="1382.7" y1="601.7" x2="1394.8" y2="601.7"/><line x1="1394.8" y1="601.7" x2="1394.8" y2="592.9"/><line x1="1394.8" y1="592.9" x2="1382.7" y2="592.9"/><line x1="1382.7" y1="592.9" x2="1382.7" y2="601.7"/><line x1="1397.1" y1="601.7" x2="1409.3" y2="601.7"/><line x1="1409.3" y1="601.7" x2="1409.3" y2="592.9"/><line x1="1409.3" y1="592.9" x2="1397.1" y2="592.9"/><line x1="1397.1" y1="592.9" x2="1397.1" y2="601.7"/><line x1="1132.3" y1="883.2" x2="1144.3" y2="883.2"/><line x1="1144.3" y1="883.2" x2="1144.3" y2="865.1"/><line x1="1144.3" y1="865.1" x2="1132.3" y2="865.1"/><line x1="1132.3" y1="865.1" x2="1132.3" y2="883.2"/><line x1="1420.1" y1="731.5" x2="1432.1" y2="731.5"/><line x1="1432.1" y1="731.5" x2="1432.1" y2="713.4"/><line x1="1432.1" y1="713.4" x2="1420.1" y2="713.4"/><line x1="1420.1" y1="713.4" x2="1420.1" y2="731.5"/><line x1="1396.0" y1="532.8" x2="1408.0" y2="532.8"/><line x1="1408.0" y1="532.8" x2="1408.0" y2="514.7"/><line x1="1408.0" y1="514.7" x2="1396.0" y2="514.7"/><line x1="1396.0" y1="514.7" x2="1396.0" y2="532.8"/><line x1="1350.8" y1="780.2" x2="1386.9" y2="780.2"/><line x1="1386.9" y1="780.2" x2="1386.9" y2="760.3"/><line x1="1386.9" y1="760.3" x2="1350.8" y2="760.3"/><line x1="1350.8" y1="760.3" x2="1350.8" y2="780.2"/><line x1="1402.0" y1="788.6" x2="1444.1" y2="788.6"/><line x1="1444.1" y1="788.6" x2="1444.1" y2="752.5"/><line x1="1444.1" y1="752.5" x2="1402.0" y2="752.5"/><line x1="1402.0" y1="752.5" x2="1402.0" y2="788.6"/><line x1="1402.0" y1="559.9" x2="1438.1" y2="559.9"/><line x1="1438.1" y1="559.9" x2="1438.1" y2="532.8"/><line x1="1438.1" y1="532.8" x2="1402.0" y2="532.8"/><line x1="1402.0" y1="532.8" x2="1402.0" y2="559.9"/><line x1="833.1" y1="857.9" x2="875.2" y2="857.9"/><line x1="875.2" y1="857.9" x2="875.2" y2="767.6"/><line x1="875.2" y1="767.6" x2="833.1" y2="767.6"/><line x1="833.1" y1="767.6" x2="833.1" y2="857.9"/><line x1="899.3" y1="857.9" x2="941.4" y2="857.9"/><line x1="941.4" y1="857.9" x2="941.4" y2="767.6"/><line x1="941.4" y1="767.6" x2="899.3" y2="767.6"/><line x1="899.3" y1="767.6" x2="899.3" y2="857.9"/><line x1="962.5" y1="857.9" x2="1004.7" y2="857.9"/><line x1="1004.7" y1="857.9" x2="1004.7" y2="767.6"/><line x1="1004.7" y1="767.6" x2="962.5" y2="767.6"/><line x1="962.5" y1="767.6" x2="962.5" y2="857.9"/><line x1="1016.7" y1="499.7" x2="1450.2" y2="499.7"/><line x1="1450.2" y1="499.7" x2="1450.2" y2="415.4"/><line x1="1450.2" y1="415.4" x2="1016.7" y2="415.4"/><line x1="1016.7" y1="415.4" x2="1016.7" y2="499.7"/><line x1="1101.0" y1="367.2" x2="1365.9" y2="367.2"/><line x1="1365.9" y1="367.2" x2="1365.9" y2="246.8"/><line x1="1365.9" y1="246.8" x2="1101.0" y2="246.8"/><line x1="1101.0" y1="246.8" x2="1101.0" y2="367.2"/><line x1="1356.8" y1="394.3" x2="1411.0" y2="394.3"/><line x1="1411.0" y1="394.3" x2="1411.0" y2="340.1"/><line x1="1411.0" y1="340.1" x2="1356.8" y2="340.1"/><line x1="1356.8" y1="340.1" x2="1356.8" y2="394.3"/><line x1="1197.3" y1="465.1" x2="1269.5" y2="465.1"/><line x1="1269.5" y1="465.1" x2="1269.5" y2="438.0"/><line x1="1269.5" y1="438.0" x2="1197.3" y2="438.0"/><line x1="1197.3" y1="438.0" x2="1197.3" y2="465.1"/><line x1="1104.0" y1="225.7" x2="1122.0" y2="225.7"/><line x1="1122.0" y1="225.7" x2="1122.0" y2="183.6"/><line x1="1122.0" y1="183.6" x2="1104.0" y2="183.6"/><line x1="1104.0" y1="183.6" x2="1104.0" y2="225.7"/><line x1="1158.2" y1="225.7" x2="1176.2" y2="225.7"/><line x1="1176.2" y1="225.7" x2="1176.2" y2="183.6"/><line x1="1176.2" y1="183.6" x2="1158.2" y2="183.6"/><line x1="1158.2" y1="183.6" x2="1158.2" y2="225.7"/><line x1="1290.6" y1="225.7" x2="1308.7" y2="225.7"/><line x1="1308.7" y1="225.7" x2="1308.7" y2="183.6"/><line x1="1308.7" y1="183.6" x2="1290.6" y2="183.6"/><line x1="1290.6" y1="183.6" x2="1290.6" y2="225.7"/><line x1="1344.8" y1="225.7" x2="1362.9" y2="225.7"/><line x1="1362.9" y1="225.7" x2="1362.9" y2="183.6"/><line x1="1362.9" y1="183.6" x2="1344.8" y2="183.6"/><line x1="1344.8" y1="183.6" x2="1344.8" y2="225.7"/><line x1="812.0" y1="921.1" x2="812.0" y2="957.2"/><line x1="1016.7" y1="921.1" x2="1016.7" y2="957.2"/><line x1="812.0" y1="957.2" x2="1016.7" y2="957.2"/><line x1="812.0" y1="957.2" x2="815.0" y2="955.7"/><line x1="812.0" y1="957.2" x2="815.0" y2="958.7"/><line x1="1016.7" y1="957.2" x2="1013.7" y2="955.7"/><line x1="1016.7" y1="957.2" x2="1013.7" y2="958.7"/><line x1="1016.7" y1="921.1" x2="1016.7" y2="957.2"/><line x1="1450.2" y1="921.1" x2="1450.2" y2="957.2"/><line x1="1016.7" y1="957.2" x2="1450.2" y2="957.2"/><line x1="1016.7" y1="957.2" x2="1019.7" y2="955.7"/><line x1="1016.7" y1="957.2" x2="1019.7" y2="958.7"/><line x1="1450.2" y1="957.2" x2="1447.1" y2="955.7"/><line x1="1450.2" y1="957.2" x2="1447.1" y2="958.7"/><line x1="812.0" y1="921.1" x2="812.0" y2="981.3"/><line x1="1450.2" y1="921.1" x2="1450.2" y2="981.3"/><line x1="812.0" y1="981.3" x2="1450.2" y2="981.3"/><line x1="812.0" y1="981.3" x2="815.0" y2="979.8"/><line x1="812.0" y1="981.3" x2="815.0" y2="982.8"/><line x1="1450.2" y1="981.3" x2="1447.1" y2="979.8"/><line x1="1450.2" y1="981.3" x2="1447.1" y2="982.8"/><line x1="1450.2" y1="921.1" x2="1492.3" y2="921.1"/><line x1="1450.2" y1="499.7" x2="1492.3" y2="499.7"/><line x1="1492.3" y1="921.1" x2="1492.3" y2="499.7"/><line x1="1492.3" y1="921.1" x2="1493.8" y2="918.1"/><line x1="1492.3" y1="921.1" x2="1490.8" y2="918.1"/><line x1="1492.3" y1="499.7" x2="1493.8" y2="502.7"/><line x1="1492.3" y1="499.7" x2="1490.8" y2="502.7"/><line x1="1450.2" y1="499.7" x2="1492.3" y2="499.7"/><line x1="1450.2" y1="415.4" x2="1492.3" y2="415.4"/><line x1="1492.3" y1="499.7" x2="1492.3" y2="415.4"/><line x1="1492.3" y1="499.7" x2="1493.8" y2="496.7"/><line x1="1492.3" y1="499.7" x2="1490.8" y2="496.7"/><line x1="1492.3" y1="415.4" x2="1493.8" y2="418.4"/><line x1="1492.3" y1="415.4" x2="1490.8" y2="418.4"/><line x1="1101.0" y1="246.8" x2="1101.0" y2="204.7"/><line x1="1365.9" y1="246.8" x2="1365.9" y2="204.7"/><line x1="1101.0" y1="204.7" x2="1365.9" y2="204.7"/><line x1="1101.0" y1="204.7" x2="1104.0" y2="203.2"/><line x1="1101.0" y1="204.7" x2="1104.0" y2="206.2"/><line x1="1365.9" y1="204.7" x2="1362.9" y2="203.2"/><line x1="1365.9" y1="204.7" x2="1362.9" y2="206.2"/></g>
<rect x="106" y="86" width="1709" height="907" rx="49" fill="none" stroke="#fff8ee" stroke-opacity=".15" stroke-width="2"/>
<text x="134" y="194" font-family="Arial, sans-serif" font-size="42" font-weight="900" letter-spacing="5" fill="#70f0ca">OROVIAN OASIS • CONCEPT HOME</text>
<text x="134" y="350.8" font-family="Georgia, serif" font-size="140" font-style="italic" fill="#fff8ee">Luxury</text>
<text x="134" y="481.0" font-family="Georgia, serif" font-size="140" font-style="italic" fill="#ff9a89">Custom Home</text>
<text x="134" y="560.8" font-family="Arial, sans-serif" font-size="38" font-weight="700" fill="#cbbfd2">Organic-modern estate • interactive walkthrough • coordinated DXF plans</text>
<g font-family="Arial, sans-serif" font-size="34" font-weight="800" fill="#fff8ee">
 <text x="134" y="842">5,850 SQ FT</text>
 <text x="480" y="842">4 SUITES</text>
 <text x="768" y="842">4.5 BATHS</text>
 <text x="1094" y="842">3-CAR GARAGE</text>
</g>
<rect x="134" y="880" width="922" height="3" rx="2" fill="#70f0ca"/>
</svg>