<svg xmlns="http://www.w3.org/2000/svg" width="1200" height="630" viewBox="0 0 1200 630">
<defs>
 <linearGradient id="bg" x1="0" y1="0" x2="1" y2="1"><stop stop-color="#17101f"/><stop offset=".55" stop-color="#321c3b"/><stop offset="1" stop-color="#15101c"/></linearGradient>
 <radialGradient id="g1"><stop stop-color="#ff7866" stop-opacity=".52"/><stop offset="1" stop-color="#ff7866" stop-opacity="0"/></radialGradient>
 <radialGradient id="g2"><stop stop-color="#70f0ca" stop-opacity=".42"/><stop offset="1" stop-color="#70f0ca" stop-opacity="0"/></radialGradient>
</defs>
<rect width="100%" height="100%" fill="url(#bg)"/>
<circle cx="144" cy="113" r="176" fill="url(#g1)"/>
<circle cx="1056" cy="466" r="214" fill="url(#g2)"/>
<g opacity=".11" fill="#fff8ee"><circle cx="0" cy="0" r="2"/><circle cx="97" cy="61" r="2"/><circle cx="194" cy="122" r="2"/><circle cx="291" cy="183" r="2"/><circle cx="388" cy="244" r="2"/><circle cx="485" cy="305" r="2"/><circle cx="582" cy="366" r="2"/><circle cx="679" cy="427" r="2"/><circle cx="776" cy="488" r="2"/><circle cx="873" cy="549" r="2"/><circle cx="970" cy="610" r="2"/><circle cx="1067" cy="41" r="2"/><circle cx="1164" cy="102" r="2"/><circle cx="61" cy="163" r="2"/><circle cx="158" cy="224" r="2"/><circle cx="255" cy="285" r="2"/><circle cx="352" cy="346" r="2"/><circle cx="449" cy="407" r="2"/><circle cx="546" cy="468" r="2"/><circle cx="643" cy="529" r="2"/><circle cx="740" cy="590" r="2"/><circle cx="837" cy="21" r="2"/><circle cx="934" cy="82" r="2"/><circle cx="1031" cy="143" r="2"/><circle cx="1128" cy="204" r="2"/><circle cx="25" cy="265" r="2"/><circle cx="122" cy="326" r="2"/><circle cx="219" cy="387" r="2"/><circle cx="316" cy="448" r="2"/><circle cx="413" cy="509" r="2"/></g>
<g opacity=".22" stroke="#70f0ca" fill="none" stroke-width="1.8"><line x1="641.1" y1="538.4" x2="651.6" y2="538.4"/><line x1="651.6" y1="538.4" x2="651.6" y2="536.2"/><line x1="651.6" y1="536.2" x2="641.1" y2="536.2"/><line x1="641.1" y1="536.2" x2="641.1" y2="538.4"/><line x1="672.7" y1="538.4" x2="679.7" y2="538.4"/><line x1="679.7" y1="538.4" x2="679.7" y2="536.2"/><line x1="679.7" y1="536.2" x2="672.7" y2="536.2"/><line x1="672.7" y1="536.2" x2="672.7" y2="538.4"/><line x1="700.8" y1="538.4" x2="711.3" y2="538.4"/><line x1="711.3" y1="538.4" x2="711.3" y2="536.2"/><line x1="711.3" y1="536.2" x2="700.8" y2="536.2"/><line x1="700.8" y1="536.2" x2="700.8" y2="538.4"/><line x1="718.3" y1="538.4" x2="753.5" y2="538.4"/><line x1="753.5" y1="538.4" x2="753.5" y2="536.2"/><line x1="753.5" y1="536.2" x2="718.3" y2="536.2"/><line x1="718.3" y1="536.2" x2="718.3" y2="538.4"/><line x1="795.6" y1="538.4" x2="844.8" y2="538.4"/><line x1="844.8" y1="538.4" x2="844.8" y2="536.2"/><line x1="844.8" y1="536.2" x2="795.6" y2="536.2"/><line x1="795.6" y1="536.2" x2="795.6" y2="538.4"/><line x1="879.9" y1="538.4" x2="893.9" y2="538.4"/><line x1="893.9" y1="538.4" x2="893.9" y2="536.2"/><line x1="893.9" y1="536.2" x2="879.9" y2="536.2"/><line x1="879.9" y1="536.2" x2="879.9" y2="538.4"/><line x1="640.0" y1="537.3" x2="642.1" y2="537.3"/><line x1="642.1" y1="537.3" x2="642.1" y2="523.3"/><line x1="642.1" y1="523.3" x2="640.0" y2="523.3"/><line x1="640.0" y1="523.3" x2="640.0" y2="537.3"/><line x1="640.0" y1="488.1" x2="642.1" y2="488.1"/><line x1="642.1" y1="488.1" x2="642.1" y2="456.5"/><line x1="642.1" y1="456.5" x2="640.0" y2="456.5"/><line x1="640.0" y1="456.5" x2="640.0" y2="488.1"/><line x1="640.0" y1="417.9" x2="642.1" y2="417.9"/><line x1="642.1" y1="417.9" x2="642.1" y2="389.8"/><line x1="642.1" y1="389.8" x2="640.0" y2="389.8"/><line x1="640.0" y1="389.8" x2="640.0" y2="417.9"/><line x1="640.0" y1="354.7" x2="642.1" y2="354.7"/><line x1="642.1" y1="354.7" x2="642.1" y2="344.2"/><line x1="642.1" y1="344.2" x2="640.0" y2="344.2"/><line x1="640.0" y1="344.2" x2="640.0" y2="354.7"/><line x1="640.0" y1="305.5" x2="642.1" y2="305.5"/><line x1="642.1" y1="305.5" x2="642.1" y2="291.5"/><line x1="642.1" y1="291.5" x2="640.0" y2="291.5"/><line x1="640.0" y1="291.5" x2="640.0" y2="305.5"/><line x1="892.9" y1="537.3" x2="895.0" y2="537.3"/><line x1="895.0" y1="537.3" x2="895.0" y2="523.3"/><line x1="895.0" y1="523.3" x2="892.9" y2="523.3"/><line x1="892.9" y1="523.3" x2="892.9" y2="537.3"/><line x1="892.9" y1="481.1" x2="895.0" y2="481.1"/><line x1="895.0" y1="481.1" x2="895.0" y2="453.0"/><line x1="895.0" y1="453.0" x2="892.9" y2="453.0"/><line x1="892.9" y1="453.0" x2="892.9" y2="481.1"/><line x1="892.9" y1="417.9" x2="895.0" y2="417.9"/><line x1="895.0" y1="417.9" x2="895.0" y2="365.2"/><line x1="895.0" y1="365.2" x2="892.9" y2="365.2"/><line x1="892.9" y1="365.2" x2="892.9" y2="417.9"/><line x1="892.9" y1="333.6" x2="895.0" y2="333.6"/><line x1="895.0" y1="333.6" x2="895.0" y2="319.6"/><line x1="895.0" y1="319.6" x2="892.9" y2="319.6"/><line x1="892.9" y1="319.6" x2="892.9" y2="333.6"/><line x1="892.9" y1="298.5" x2="895.0" y2="298.5"/><line x1="895.0" y1="298.5" x2="895.0" y2="291.5"/><line x1="895.0" y1="291.5" x2="892.9" y2="291.5"/><line x1="892.9" y1="291.5" x2="892.9" y2="298.5"/><line x1="641.1" y1="292.5" x2="665.7" y2="292.5"/><line x1="665.7" y1="292.5" x2="665.7" y2="290.4"/><line x1="665.7" y1="290.4" x2="641.1" y2="290.4"/><line x1="641.1" y1="290.4" x2="641.1" y2="292.5"/><line x1="714.8" y1="292.5" x2="739.4" y2="292.5"/><line x1="739.4" y1="292.5" x2="739.4" y2="290.4"/><line x1="739.4" y1="290.4" x2="714.8" y2="290.4"/><line x1="714.8" y1="290.4" x2="714.8" y2="292.5"/><line x1="753.5" y1="292.5" x2="760.5" y2="292.5"/><line x1="760.5" y1="292.5" x2="760.5" y2="290.4"/><line x1="760.5" y1="290.4" x2="753.5" y2="290.4"/><line x1="753.5" y1="290.4" x2="753.5" y2="292.5"/><line x1="802.6" y1="292.5" x2="837.7" y2="292.5"/><line x1="837.7" y1="292.5" x2="837.7" y2="290.4"/><line x1="837.7" y1="290.4" x2="802.6" y2="290.4"/><line x1="802.6" y1="290.4" x2="802.6" y2="292.5"/><line x1="883.4" y1="292.5" x2="893.9" y2="292.5"/><line x1="893.9" y1="292.5" x2="893.9" y2="290.4"/><line x1="893.9" y1="290.4" x2="883.4" y2="290.4"/><line x1="883.4" y1="290.4" x2="883.4" y2="292.5"/><line x1="521.7" y1="538.4" x2="528.7" y2="538.4"/><line x1="528.7" y1="538.4" x2="528.7" y2="536.2"/><line x1="528.7" y1="536.2" x2="521.7" y2="536.2"/><line x1="521.7" y1="536.2" x2="521.7" y2="538.4"/><line x1="563.8" y1="538.4" x2="567.3" y2="538.4"/><line x1="567.3" y1="538.4" x2="567.3" y2="536.2"/><line x1="567.3" y1="536.2" x2="563.8" y2="536.2"/><line x1="563.8" y1="536.2" x2="563.8" y2="538.4"/><line x1="602.4" y1="538.4" x2="606.0" y2="538.4"/><line x1="606.0" y1="538.4" x2="606.0" y2="536.2"/><line x1="606.0" y1="536.2" x2="602.4" y2="536.2"/><line x1="602.4" y1="536.2" x2="602.4" y2="538.4"/><line x1="637.6" y1="538.4" x2="641.1" y2="538.4"/><line x1="641.1" y1="538.4" x2="641.1" y2="536.2"/><line x1="641.1" y1="536.2" x2="637.6" y2="536.2"/><line x1="637.6" y1="536.2" x2="637.6" y2="538.4"/><line x1="520.6" y1="537.3" x2="522.7" y2="537.3"/><line x1="522.7" y1="537.3" x2="522.7" y2="403.9"/><line x1="522.7" y1="403.9" x2="520.6" y2="403.9"/><line x1="520.6" y1="403.9" x2="520.6" y2="537.3"/><line x1="521.7" y1="404.9" x2="609.5" y2="404.9"/><line x1="609.5" y1="404.9" x2="609.5" y2="402.8"/><line x1="609.5" y1="402.8" x2="521.7" y2="402.8"/><line x1="521.7" y1="402.8" x2="521.7" y2="404.9"/><line x1="620.0" y1="404.9" x2="641.1" y2="404.9"/><line x1="641.1" y1="404.9" x2="641.1" y2="402.8"/><line x1="641.1" y1="402.8" x2="620.0" y2="402.8"/><line x1="620.0" y1="402.8" x2="620.0" y2="404.9"/><line x1="640.0" y1="537.3" x2="642.1" y2="537.3"/><line x1="642.1" y1="537.3" x2="642.1" y2="439.0"/><line x1="642.1" y1="439.0" x2="640.0" y2="439.0"/><line x1="640.0" y1="439.0" x2="640.0" y2="537.3"/><line x1="640.0" y1="428.4" x2="642.1" y2="428.4"/><line x1="642.1" y1="428.4" x2="642.1" y2="403.9"/><line x1="642.1" y1="403.9" x2="640.0" y2="403.9"/><line x1="640.0" y1="403.9" x2="640.0" y2="428.4"/><line x1="598.1" y1="467.1" x2="599.8" y2="467.1"/><line x1="599.8" y1="467.1" x2="599.8" y2="439.0"/><line x1="599.8" y1="439.0" x2="598.1" y2="439.0"/><line x1="598.1" y1="439.0" x2="598.1" y2="467.1"/><line x1="598.1" y1="428.4" x2="599.8" y2="428.4"/><line x1="599.8" y1="428.4" x2="599.8" y2="403.9"/><line x1="599.8" y1="403.9" x2="598.1" y2="403.9"/><line x1="598.1" y1="403.9" x2="598.1" y2="428.4"/><line x1="598.9" y1="467.9" x2="641.1" y2="467.9"/><line x1="641.1" y1="467.9" x2="641.1" y2="466.2"/><line x1="641.1" y1="466.2" x2="598.9" y2="466.2"/><line x1="598.9" y1="466.2" x2="598.9" y2="467.9"/><line x1="724.5" y1="537.3" x2="726.2" y2="537.3"/><line x1="726.2" y1="537.3" x2="726.2" y2="498.7"/><line x1="726.2" y1="498.7" x2="724.5" y2="498.7"/><line x1="724.5" y1="498.7" x2="724.5" y2="537.3"/><line x1="724.5" y1="484.6" x2="726.2" y2="484.6"/><line x1="726.2" y1="484.6" x2="726.2" y2="439.0"/><line x1="726.2" y1="439.0" x2="724.5" y2="439.0"/><line x1="724.5" y1="439.0" x2="724.5" y2="484.6"/><line x1="724.5" y1="417.9" x2="726.2" y2="417.9"/><line x1="726.2" y1="417.9" x2="726.2" y2="396.8"/><line x1="726.2" y1="396.8" x2="724.5" y2="396.8"/><line x1="724.5" y1="396.8" x2="724.5" y2="417.9"/><line x1="724.5" y1="372.2" x2="726.2" y2="372.2"/><line x1="726.2" y1="372.2" x2="726.2" y2="354.7"/><line x1="726.2" y1="354.7" x2="724.5" y2="354.7"/><line x1="724.5" y1="354.7" x2="724.5" y2="372.2"/><line x1="724.5" y1="333.6" x2="726.2" y2="333.6"/><line x1="726.2" y1="333.6" x2="726.2" y2="291.5"/><line x1="726.2" y1="291.5" x2="724.5" y2="291.5"/><line x1="724.5" y1="291.5" x2="724.5" y2="333.6"/><line x1="829.8" y1="537.3" x2="831.6" y2="537.3"/><line x1="831.6" y1="537.3" x2="831.6" y2="498.7"/><line x1="831.6" y1="498.7" x2="829.8" y2="498.7"/><line x1="829.8" y1="498.7" x2="829.8" y2="537.3"/><line x1="829.8" y1="488.1" x2="831.6" y2="488.1"/><line x1="831.6" y1="488.1" x2="831.6" y2="435.5"/><line x1="831.6" y1="435.5" x2="829.8" y2="435.5"/><line x1="829.8" y1="435.5" x2="829.8" y2="488.1"/><line x1="829.8" y1="424.9" x2="831.6" y2="424.9"/><line x1="831.6" y1="424.9" x2="831.6" y2="358.2"/><line x1="831.6" y1="358.2" x2="829.8" y2="358.2"/><line x1="829.8" y1="358.2" x2="829.8" y2="424.9"/><line x1="829.8" y1="344.2" x2="831.6" y2="344.2"/><line x1="831.6" y1="344.2" x2="831.6" y2="291.5"/><line x1="831.6" y1="291.5" x2="829.8" y2="291.5"/><line x1="829.8" y1="291.5" x2="829.8" y2="344.2"/><line x1="725.4" y1="485.5" x2="753.5" y2="485.5"/><line x1="753.5" y1="485.5" x2="753.5" y2="483.7"/><line x1="753.5" y1="483.7" x2="725.4" y2="483.7"/><line x1="725.4" y1="483.7" x2="725.4" y2="485.5"/><line x1="802.6" y1="485.5" x2="830.7" y2="485.5"/><line x1="830.7" y1="485.5" x2="830.7" y2="483.7"/><line x1="830.7" y1="483.7" x2="802.6" y2="483.7"/><line x1="802.6" y1="483.7" x2="802.6" y2="485.5"/><line x1="641.1" y1="475.0" x2="697.3" y2="475.0"/><line x1="697.3" y1="475.0" x2="697.3" y2="473.2"/><line x1="697.3" y1="473.2" x2="641.1" y2="473.2"/><line x1="641.1" y1="473.2" x2="641.1" y2="475.0"/><line x1="707.8" y1="475.0" x2="725.4" y2="475.0"/><line x1="725.4" y1="475.0" x2="725.4" y2="473.2"/><line x1="725.4" y1="473.2" x2="707.8" y2="473.2"/><line x1="707.8" y1="473.2" x2="707.8" y2="475.0"/><line x1="641.1" y1="404.7" x2="665.7" y2="404.7"/><line x1="665.7" y1="404.7" x2="665.7" y2="403.0"/><line x1="665.7" y1="403.0" x2="641.1" y2="403.0"/><line x1="641.1" y1="403.0" x2="641.1" y2="404.7"/><line x1="714.8" y1="404.7" x2="725.4" y2="404.7"/><line x1="725.4" y1="404.7" x2="725.4" y2="403.0"/><line x1="725.4" y1="403.0" x2="714.8" y2="403.0"/><line x1="714.8" y1="403.0" x2="714.8" y2="404.7"/><line x1="830.7" y1="467.9" x2="851.8" y2="467.9"/><line x1="851.8" y1="467.9" x2="851.8" y2="466.2"/><line x1="851.8" y1="466.2" x2="830.7" y2="466.2"/><line x1="830.7" y1="466.2" x2="830.7" y2="467.9"/><line x1="862.3" y1="467.9" x2="893.9" y2="467.9"/><line x1="893.9" y1="467.9" x2="893.9" y2="466.2"/><line x1="893.9" y1="466.2" x2="862.3" y2="466.2"/><line x1="862.3" y1="466.2" x2="862.3" y2="467.9"/><line x1="830.7" y1="404.7" x2="841.2" y2="404.7"/><line x1="841.2" y1="404.7" x2="841.2" y2="403.0"/><line x1="841.2" y1="403.0" x2="830.7" y2="403.0"/><line x1="830.7" y1="403.0" x2="830.7" y2="404.7"/><line x1="851.8" y1="404.7" x2="893.9" y2="404.7"/><line x1="893.9" y1="404.7" x2="893.9" y2="403.0"/><line x1="893.9" y1="403.0" x2="851.8" y2="403.0"/><line x1="851.8" y1="403.0" x2="851.8" y2="404.7"/><line x1="830.7" y1="376.6" x2="844.8" y2="376.6"/><line x1="844.8" y1="376.6" x2="844.8" y2="374.9"/><line x1="844.8" y1="374.9" x2="830.7" y2="374.9"/><line x1="830.7" y1="374.9" x2="830.7" y2="376.6"/><line x1="858.8" y1="376.6" x2="893.9" y2="376.6"/><line x1="893.9" y1="376.6" x2="893.9" y2="374.9"/><line x1="893.9" y1="374.9" x2="858.8" y2="374.9"/><line x1="858.8" y1="374.9" x2="858.8" y2="376.6"/><line x1="830.7" y1="334.5" x2="841.2" y2="334.5"/><line x1="841.2" y1="334.5" x2="841.2" y2="332.7"/><line x1="841.2" y1="332.7" x2="830.7" y2="332.7"/><line x1="830.7" y1="332.7" x2="830.7" y2="334.5"/><line x1="851.8" y1="334.5" x2="869.3" y2="334.5"/><line x1="869.3" y1="334.5" x2="869.3" y2="332.7"/><line x1="869.3" y1="332.7" x2="851.8" y2="332.7"/><line x1="851.8" y1="332.7" x2="851.8" y2="334.5"/><line x1="879.9" y1="334.5" x2="893.9" y2="334.5"/><line x1="893.9" y1="334.5" x2="893.9" y2="332.7"/><line x1="893.9" y1="332.7" x2="879.9" y2="332.7"/><line x1="879.9" y1="332.7" x2="879.9" y2="334.5"/><line x1="857.9" y1="333.6" x2="859.7" y2="333.6"/><line x1="859.7" y1="333.6" x2="859.7" y2="291.5"/><line x1="859.7" y1="291.5" x2="857.9" y2="291.5"/><line x1="857.9" y1="291.5" x2="857.9" y2="333.6"/><line x1="703.4" y1="537.3" x2="705.2" y2="537.3"/><line x1="705.2" y1="537.3" x2="705.2" y2="516.2"/><line x1="705.2" y1="516.2" x2="703.4" y2="516.2"/><line x1="703.4" y1="516.2" x2="703.4" y2="537.3"/><line x1="703.4" y1="505.7" x2="705.2" y2="505.7"/><line x1="705.2" y1="505.7" x2="705.2" y2="502.2"/><line x1="705.2" y1="502.2" x2="703.4" y2="502.2"/><line x1="703.4" y1="502.2" x2="703.4" y2="505.7"/><line x1="704.3" y1="503.1" x2="711.3" y2="503.1"/><line x1="711.3" y1="503.1" x2="711.3" y2="501.3"/><line x1="711.3" y1="501.3" x2="704.3" y2="501.3"/><line x1="704.3" y1="501.3" x2="704.3" y2="503.1"/><line x1="721.8" y1="503.1" x2="725.4" y2="503.1"/><line x1="725.4" y1="503.1" x2="725.4" y2="501.3"/><line x1="725.4" y1="501.3" x2="721.8" y2="501.3"/><line x1="721.8" y1="501.3" x2="721.8" y2="503.1"/><line x1="668.3" y1="403.9" x2="670.0" y2="403.9"/><line x1="670.0" y1="403.9" x2="670.0" y2="386.3"/><line x1="670.0" y1="386.3" x2="668.3" y2="386.3"/><line x1="668.3" y1="386.3" x2="668.3" y2="403.9"/><line x1="668.3" y1="375.8" x2="670.0" y2="375.8"/><line x1="670.0" y1="375.8" x2="670.0" y2="347.7"/><line x1="670.0" y1="347.7" x2="668.3" y2="347.7"/><line x1="668.3" y1="347.7" x2="668.3" y2="375.8"/><line x1="668.3" y1="337.1" x2="670.0" y2="337.1"/><line x1="670.0" y1="337.1" x2="670.0" y2="319.6"/><line x1="670.0" y1="319.6" x2="668.3" y2="319.6"/><line x1="668.3" y1="319.6" x2="668.3" y2="337.1"/><line x1="760.0" y1="368.7" x2="760.9" y2="368.7"/><line x1="760.9" y1="368.7" x2="760.9" y2="354.7"/><line x1="760.9" y1="354.7" x2="760.0" y2="354.7"/><line x1="760.0" y1="354.7" x2="760.0" y2="368.7"/><line x1="760.0" y1="333.6" x2="760.9" y2="333.6"/><line x1="760.9" y1="333.6" x2="760.9" y2="312.5"/><line x1="760.9" y1="312.5" x2="760.0" y2="312.5"/><line x1="760.0" y1="312.5" x2="760.0" y2="333.6"/><line x1="802.2" y1="368.7" x2="803.1" y2="368.7"/><line x1="803.1" y1="368.7" x2="803.1" y2="351.2"/><line x1="803.1" y1="351.2" x2="802.2" y2="351.2"/><line x1="802.2" y1="351.2" x2="802.2" y2="368.7"/><line x1="802.2" y1="337.1" x2="803.1" y2="337.1"/><line x1="803.1" y1="337.1" x2="803.1" y2="312.5"/><line x1="803.1" y1="312.5" x2="802.2" y2="312.5"/><line x1="802.2" y1="312.5" x2="802.2" y2="337.1"/><line x1="760.5" y1="369.2" x2="767.5" y2="369.2"/><line x1="767.5" y1="369.2" x2="767.5" y2="368.3"/><line x1="767.5" y1="368.3" x2="760.5" y2="368.3"/><line x1="760.5" y1="368.3" x2="760.5" y2="369.2"/><line x1="795.6" y1="369.2" x2="802.6" y2="369.2"/><line x1="802.6" y1="369.2" x2="802.6" y2="368.3"/><line x1="802.6" y1="368.3" x2="795.6" y2="368.3"/><line x1="795.6" y1="368.3" x2="795.6" y2="369.2"/><line x1="760.5" y1="313.0" x2="774.5" y2="313.0"/><line x1="774.5" y1="313.0" x2="774.5" y2="312.1"/><line x1="774.5" y1="312.1" x2="760.5" y2="312.1"/><line x1="760.5" y1="312.1" x2="760.5" y2="313.0"/><line x1="788.6" y1="313.0" x2="802.6" y2="313.0"/><line x1="802.6" y1="313.0" x2="802.6" y2="312.1"/><line x1="802.6" y1="312.1" x2="788.6" y2="312.1"/><line x1="788.6" y1="312.1" x2="788.6" y2="313.0"/><line x1="651.6" y1="537.7" x2="672.7" y2="537.7"/><line x1="651.6" y1="537.0" x2="672.7" y2="537.0"/><line x1="679.7" y1="537.7" x2="700.8" y2="537.7"/><line x1="679.7" y1="537.0" x2="700.8" y2="537.0"/><line x1="844.8" y1="537.7" x2="879.9" y2="537.7"/><line x1="844.8" y1="537.0" x2="879.9" y2="537.0"/><line x1="640.7" y1="523.3" x2="640.7" y2="488.1"/><line x1="641.4" y1="523.3" x2="641.4" y2="488.1"/><line x1="640.7" y1="456.5" x2="640.7" y2="417.9"/><line x1="641.4" y1="456.5" x2="641.4" y2="417.9"/><line x1="640.7" y1="389.8" x2="640.7" y2="354.7"/><line x1="641.4" y1="389.8" x2="641.4" y2="354.7"/><line x1="893.6" y1="523.3" x2="893.6" y2="481.1"/><line x1="894.3" y1="523.3" x2="894.3" y2="481.1"/><line x1="893.6" y1="453.0" x2="893.6" y2="417.9"/><line x1="894.3" y1="453.0" x2="894.3" y2="417.9"/><line x1="893.6" y1="365.2" x2="893.6" y2="333.6"/><line x1="894.3" y1="365.2" x2="894.3" y2="333.6"/><line x1="893.6" y1="319.6" x2="893.6" y2="298.5"/><line x1="894.3" y1="319.6" x2="894.3" y2="298.5"/><line x1="665.7" y1="291.8" x2="714.8" y2="291.8"/><line x1="665.7" y1="291.1" x2="714.8" y2="291.1"/><line x1="837.7" y1="291.8" x2="883.4" y2="291.8"/><line x1="837.7" y1="291.1" x2="883.4" y2="291.1"/><line x1="760.5" y1="537.3" x2="760.5" y2="509.2"/><line x1="697.3" y1="474.1" x2="697.3" y2="463.6"/><line x1="711.3" y1="502.2" x2="711.3" y2="491.6"/><line x1="851.8" y1="467.1" x2="851.8" y2="456.5"/><line x1="841.2" y1="403.9" x2="841.2" y2="393.3"/><line x1="844.8" y1="375.8" x2="844.8" y2="361.7"/><line x1="841.2" y1="333.6" x2="841.2" y2="323.1"/><line x1="869.3" y1="333.6" x2="869.3" y2="323.1"/><line x1="725.4" y1="498.7" x2="739.4" y2="498.7"/><line x1="725.4" y1="439.0" x2="746.4" y2="439.0"/><line x1="725.4" y1="396.8" x2="749.9" y2="396.8"/><line x1="830.7" y1="498.7" x2="841.2" y2="498.7"/><line x1="830.7" y1="435.5" x2="841.2" y2="435.5"/><line x1="728.9" y1="375.8" x2="757.0" y2="375.8"/><line x1="728.9" y1="372.2" x2="757.0" y2="372.2"/><line x1="728.9" y1="368.7" x2="757.0" y2="368.7"/><line x1="728.9" y1="365.2" x2="757.0" y2="365.2"/><line x1="728.9" y1="361.7" x2="757.0" y2="361.7"/><line x1="728.9" y1="358.2" x2="757.0" y2="358.2"/><line x1="728.9" y1="354.7" x2="757.0" y2="354.7"/><line x1="728.9" y1="351.2" x2="757.0" y2="351.2"/><line x1="728.9" y1="347.7" x2="757.0" y2="347.7"/><line x1="728.9" y1="344.2" x2="757.0" y2="344.2"/><line x1="728.9" y1="340.6" x2="757.0" y2="340.6"/><line x1="728.9" y1="337.1" x2="757.0" y2="337.1"/><line x1="728.9" y1="333.6" x2="757.0" y2="333.6"/><line x1="728.9" y1="330.1" x2="757.0" y2="330.1"/><line x1="728.9" y1="326.6" x2="757.0" y2="326.6"/><line x1="728.9" y1="323.1" x2="757.0" y2="323.1"/><line x1="728.9" y1="319.6" x2="757.0" y2="319.6"/><line x1="728.9" y1="316.1" x2="757.0" y2="316.1"/><line x1="742.9" y1="375.8" x2="742.9" y2="312.5"/><line x1="642.5" y1="395.1" x2="649.9" y2="395.1"/><line x1="649.9" y1="395.1" x2="649.9" y2="310.8"/><line x1="649.9" y1="310.8" x2="642.5" y2="310.8"/><line x1="642.5" y1="310.8" x2="642.5" y2="395.1"/><line x1="670.9" y1="302.0" x2="718.3" y2="302.0"/><line x1="718.3" y1="302.0" x2="718.3" y2="293.2"/><line x1="718.3" y1="293.2" x2="670.9" y2="293.2"/><line x1="670.9" y1="293.2" x2="670.9" y2="302.0"/><line x1="672.7" y1="362.4" x2="714.8" y2="362.4"/><line x1="714.8" y1="362.4" x2="714.8" y2="347.0"/><line x1="714.8" y1="347.0" x2="672.7" y2="347.0"/><line x1="672.7" y1="347.0" x2="672.7" y2="362.4"/><line x1="834.2" y1="410.9" x2="890.4" y2="410.9"/><line x1="890.4" y1="410.9" x2="890.4" y2="403.9"/><line x1="890.4" y1="403.9" x2="834.2" y2="403.9"/><line x1="834.2" y1="403.9" x2="834.2" y2="410.9"/><line x1="865.8" y1="300.3" x2="886.9" y2="300.3"/><line x1="886.9" y1="300.3" x2="886.9" y2="293.2"/><line x1="886.9" y1="293.2" x2="865.8" y2="293.2"/><line x1="865.8" y1="293.2" x2="865.8" y2="300.3"/><line x1="602.4" y1="414.4" x2="637.6" y2="414.4"/><line x1="637.6" y1="414.4" x2="637.6" y2="407.4"/><line x1="637.6" y1="407.4" x2="602.4" y2="407.4"/><line x1="602.4" y1="407.4" x2="602.4" y2="414.4"/><line x1="660.4" y1="507.5" x2="685.0" y2="507.5"/><line x1="685.0" y1="507.5" x2="685.0" y2="496.9"/><line x1="685.0" y1="496.9" x2="660.4" y2="496.9"/><line x1="660.4" y1="496.9" x2="660.4" y2="507.5"/><line x1="662.1" y1="528.2" x2="683.2" y2="528.2"/><line x1="683.2" y1="528.2" x2="683.2" y2="518.3"/><line x1="683.2" y1="518.3" x2="662.1" y2="518.3"/><line x1="662.1" y1="518.3" x2="662.1" y2="528.2"/><line x1="663.9" y1="520.1" x2="681.5" y2="520.1"/><line x1="662.1" y1="446.9" x2="700.8" y2="446.9"/><line x1="700.8" y1="446.9" x2="700.8" y2="431.1"/><line x1="700.8" y1="431.1" x2="662.1" y2="431.1"/><line x1="662.1" y1="431.1" x2="662.1" y2="446.9"/><line x1="748.2" y1="441.8" x2="786.8" y2="441.8"/><line x1="786.8" y1="441.8" x2="786.8" y2="429.1"/><line x1="786.8" y1="429.1" x2="748.2" y2="429.1"/><line x1="748.2" y1="429.1" x2="748.2" y2="441.8"/><line x1="749.9" y1="430.9" x2="785.1" y2="430.9"/><line x1="734.1" y1="409.8" x2="765.7" y2="409.8"/><line x1="765.7" y1="409.8" x2="765.7" y2="397.9"/><line x1="765.7" y1="397.9" x2="734.1" y2="397.9"/><line x1="734.1" y1="397.9" x2="734.1" y2="409.8"/><line x1="735.9" y1="399.6" x2="764.0" y2="399.6"/><line x1="762.2" y1="417.9" x2="786.8" y2="417.9"/><line x1="786.8" y1="417.9" x2="786.8" y2="403.9"/><line x1="786.8" y1="403.9" x2="762.2" y2="403.9"/><line x1="762.2" y1="403.9" x2="762.2" y2="417.9"/><line x1="850.0" y1="518.9" x2="874.6" y2="518.9"/><line x1="874.6" y1="518.9" x2="874.6" y2="492.5"/><line x1="874.6" y1="492.5" x2="850.0" y2="492.5"/><line x1="850.0" y1="492.5" x2="850.0" y2="518.9"/><line x1="850.0" y1="501.0" x2="874.6" y2="501.0"/><line x1="854.0" y1="501.7" x2="861.6" y2="501.7"/><line x1="861.6" y1="501.7" x2="861.6" y2="496.2"/><line x1="861.6" y1="496.2" x2="854.0" y2="496.2"/><line x1="854.0" y1="496.2" x2="854.0" y2="501.7"/><line x1="863.1" y1="501.7" x2="870.7" y2="501.7"/><line x1="870.7" y1="501.7" x2="870.7" y2="496.2"/><line x1="870.7" y1="496.2" x2="863.1" y2="496.2"/><line x1="863.1" y1="496.2" x2="863.1" y2="501.7"/><line x1="851.8" y1="524.0" x2="872.9" y2="524.0"/><line x1="872.9" y1="524.0" x2="872.9" y2="516.9"/><line x1="872.9" y1="516.9" x2="851.8" y2="516.9"/><line x1="851.8" y1="516.9" x2="851.8" y2="524.0"/><line x1="850.9" y1="367.0" x2="873.7" y2="367.0"/><line x1="873.7" y1="367.0" x2="873.7" y2="342.4"/><line x1="873.7" y1="342.4" x2="850.9" y2="342.4"/><line x1="850.9" y1="342.4" x2="850.9" y2="367.0"/><line x1="850.9" y1="350.3" x2="873.7" y2="350.3"/><line x1="854.6" y1="351.0" x2="861.6" y2="351.0"/><line x1="861.6" y1="351.0" x2="861.6" y2="345.8"/><line x1="861.6" y1="345.8" x2="854.6" y2="345.8"/><line x1="854.6" y1="345.8" x2="854.6" y2="351.0"/><line x1="863.0" y1="351.0" x2="870.1" y2="351.0"/><line x1="870.1" y1="351.0" x2="870.1" y2="345.8"/><line x1="870.1" y1="345.8" x2="863.0" y2="345.8"/><line x1="863.0" y1="345.8" x2="863.0" y2="351.0"/><line x1="708.5" y1="515.2" x2="715.5" y2="515.2"/><line x1="715.5" y1="515.2" x2="715.5" y2="504.6"/><line x1="715.5" y1="504.6" x2="708.5" y2="504.6"/><line x1="708.5" y1="504.6" x2="708.5" y2="515.2"/><line x1="876.4" y1="426.7" x2="883.4" y2="426.7"/><line x1="883.4" y1="426.7" x2="883.4" y2="416.1"/><line x1="883.4" y1="416.1" x2="876.4" y2="416.1"/><line x1="876.4" y1="416.1" x2="876.4" y2="426.7"/><line x1="862.3" y1="310.8" x2="869.3" y2="310.8"/><line x1="869.3" y1="310.8" x2="869.3" y2="300.3"/><line x1="869.3" y1="300.3" x2="862.3" y2="300.3"/><line x1="862.3" y1="300.3" x2="862.3" y2="310.8"/><line x1="836.0" y1="455.1" x2="857.1" y2="455.1"/><line x1="857.1" y1="455.1" x2="857.1" y2="443.5"/><line x1="857.1" y1="443.5" x2="836.0" y2="443.5"/><line x1="836.0" y1="443.5" x2="836.0" y2="455.1"/><line x1="865.8" y1="460.0" x2="890.4" y2="460.0"/><line x1="890.4" y1="460.0" x2="890.4" y2="439.0"/><line x1="890.4" y1="439.0" x2="865.8" y2="439.0"/><line x1="865.8" y1="439.0" x2="865.8" y2="460.0"/><line x1="865.8" y1="326.6" x2="886.9" y2="326.6"/><line x1="886.9" y1="326.6" x2="886.9" y2="310.8"/><line x1="886.9" y1="310.8" x2="865.8" y2="310.8"/><line x1="865.8" y1="310.8" x2="865.8" y2="326.6"/><line x1="534.0" y1="500.4" x2="558.5" y2="500.4"/><line x1="558.5" y1="500.4" x2="558.5" y2="447.8"/><line x1="558.5" y1="447.8" x2="534.0" y2="447.8"/><line x1="534.0" y1="447.8" x2="534.0" y2="500.4"/><line x1="572.6" y1="500.4" x2="597.2" y2="500.4"/><line x1="597.2" y1="500.4" x2="597.2" y2="447.8"/><line x1="597.2" y1="447.8" x2="572.6" y2="447.8"/><line x1="572.6" y1="447.8" x2="572.6" y2="500.4"/><line x1="609.5" y1="500.4" x2="634.0" y2="500.4"/><line x1="634.0" y1="500.4" x2="634.0" y2="447.8"/><line x1="634.0" y1="447.8" x2="609.5" y2="447.8"/><line x1="609.5" y1="447.8" x2="609.5" y2="500.4"/><line x1="641.1" y1="291.5" x2="893.9" y2="291.5"/><line x1="893.9" y1="291.5" x2="893.9" y2="242.3"/><line x1="893.9" y1="242.3" x2="641.1" y2="242.3"/><line x1="641.1" y1="242.3" x2="641.1" y2="291.5"/><line x1="690.2" y1="214.2" x2="844.8" y2="214.2"/><line x1="844.8" y1="214.2" x2="844.8" y2="144.0"/><line x1="844.8" y1="144.0" x2="690.2" y2="144.0"/><line x1="690.2" y1="144.0" x2="690.2" y2="214.2"/><line x1="839.5" y1="230.0" x2="871.1" y2="230.0"/><line x1="871.1" y1="230.0" x2="871.1" y2="198.4"/><line x1="871.1" y1="198.4" x2="839.5" y2="198.4"/><line x1="839.5" y1="198.4" x2="839.5" y2="230.0"/><line x1="746.4" y1="271.3" x2="788.6" y2="271.3"/><line x1="788.6" y1="271.3" x2="788.6" y2="255.5"/><line x1="788.6" y1="255.5" x2="746.4" y2="255.5"/><line x1="746.4" y1="255.5" x2="746.4" y2="271.3"/><line x1="692.0" y1="131.7" x2="702.5" y2="131.7"/><line x1="702.5" y1="131.7" x2="702.5" y2="107.1"/><line x1="702.5" y1="107.1" x2="692.0" y2="107.1"/><line x1="692.0" y1="107.1" x2="692.0" y2="131.7"/><line x1="723.6" y1="131.7" x2="734.1" y2="131.7"/><line x1="734.1" y1="131.7" x2="734.1" y2="107.1"/><line x1="734.1" y1="107.1" x2="723.6" y2="107.1"/><line x1="723.6" y1="107.1" x2="723.6" y2="131.7"/><line x1="800.9" y1="131.7" x2="811.4" y2="131.7"/><line x1="811.4" y1="131.7" x2="811.4" y2="107.1"/><line x1="811.4" y1="107.1" x2="800.9" y2="107.1"/><line x1="800.9" y1="107.1" x2="800.9" y2="131.7"/><line x1="832.5" y1="131.7" x2="843.0" y2="131.7"/><line x1="843.0" y1="131.7" x2="843.0" y2="107.1"/><line x1="843.0" y1="107.1" x2="832.5" y2="107.1"/><line x1="832.5" y1="107.1" x2="832.5" y2="131.7"/><line x1="521.7" y1="537.3" x2="521.7" y2="558.4"/><line x1="641.1" y1="537.3" x2="641.1" y2="558.4"/><line x1="521.7" y1="558.4" x2="641.1" y2="558.4"/><line x1="521.7" y1="558.4" x2="523.4" y2="557.5"/><line x1="521.7" y1="558.4" x2="523.4" y2="559.3"/><line x1="641.1" y1="558.4" x2="639.3" y2="557.5"/><line x1="641.1" y1="558.4" x2="639.3" y2="559.3"/><line x1="641.1" y1="537.3" x2="641.1" y2="558.4"/><line x1="893.9" y1="537.3" x2="893.9" y2="558.4"/><line x1="641.1" y1="558.4" x2="893.9" y2="558.4"/><line x1="641.1" y1="558.4" x2="642.8" y2="557.5"/><line x1="641.1" y1="558.4" x2="642.8" y2="559.3"/><line x1="893.9" y1="558.4" x2="892.2" y2="557.5"/><line x1="893.9" y1="558.4" x2="892.2" y2="559.3"/><line x1="521.7" y1="537.3" x2="521.7" y2="572.4"/><line x1="893.9" y1="537.3" x2="893.9" y2="572.4"/><line x1="521.7" y1="572.4" x2="893.9" y2="572.4"/><line x1="521.7" y1="572.4" x2="523.4" y2="571.5"/><line x1="521.7" y1="572.4" x2="523.4" y2="573.3"/><line x1="893.9" y1="572.4" x2="892.2" y2="571.5"/><line x1="893.9" y1="572.4" x2="892.2" y2="573.3"/><line x1="893.9" y1="537.3" x2="918.5" y2="537.3"/><line x1="893.9" y1="291.5" x2="918.5" y2="291.5"/><line x1="918.5" y1="537.3" x2="918.5" y2="291.5"/><line x1="918.5" y1="537.3" x2="919.4" y2="535.5"/><line x1="918.5" y1="537.3" x2="917.6" y2="535.5"/><line x1="918.5" y1="291.5" x2="919.4" y2="293.2"/><line x1="918.5" y1="291.5" x2="917.6" y2="293.2"/><line x1="893.9" y1="291.5" x2="918.5" y2="291.5"/><line x1="893.9" y1="242.3" x2="918.5" y2="242.3"/><line x1="918.5" y1="291.5" x2="918.5" y2="242.3"/><line x1="918.5" y1="291.5" x2="919.4" y2="289.7"/><line x1="918.5" y1="291.5" x2="917.6" y2="289.7"/><line x1="918.5" y1="242.3" x2="919.4" y2="244.1"/><line x1="918.5" y1="242.3" x2="917.6" y2="244.1"/><line x1="690.2" y1="144.0" x2="690.2" y2="119.4"/><line x1="844.8" y1="144.0" x2="844.8" y2="119.4"/><line x1="690.2" y1="119.4" x2="844.8" y2="119.4"/><line x1="690.2" y1="119.4" x2="692.0" y2="118.5"/><line x1="690.2" y1="119.4" x2="692.0" y2="120.3"/><line x1="844.8" y1="119.4" x2="843.0" y2="118.5"/><line x1="844.8" y1="119.4" x2="843.0" y2="120.3"/></g>
<rect x="66" y="50" width="1068" height="529" rx="28" fill="none" stroke="#fff8ee" stroke-opacity=".15" stroke-width="2"/>
<text x="84" y="113" font-family="Arial, sans-serif" font-size="25" font-weight="900" letter-spacing="5" fill="#70f0ca">OROVIAN OASIS • CONCEPT HOME</text>
<text x="84" y="203.72000000000003" font-family="Georgia, serif" font-size="81" font-style="italic" fill="#fff8ee">Luxury</text>
<text x="84" y="279.04999999999995" font-family="Georgia, serif" font-size="81" font-style="italic" fill="#ff9a89">Custom Home</text>
<text x="84" y="325.22" font-family="Arial, sans-serif" font-size="22" font-weight="700" fill="#cbbfd2">Organic-modern estate • interactive walkthrough • coordinated DXF plans</text>
<g font-family="Arial, sans-serif" font-size="20" font-weight="800" fill="#fff8ee">
 <text x="84" y="491">5,850 SQ FT</text>
 <text x="300" y="491">4 SUITES</text>
 <text x="480" y="491">4.5 BATHS</text>
 <text x="684" y="491">3-CAR GARAGE</text>
</g>
<rect x="84" y="513" width="576" height="3" rx="2" fill="#70f0ca"/>
</svg>