0
SECTION
2
HEADER
9
$ACADVER
1
AC1009
9
$INSUNITS
70
1
0
ENDSEC
0
SECTION
2
TABLES
0
ENDSEC
0
SECTION
2
ENTITIES
0
LINE
8
A-WALL
10
-354.331
20
-275.591
30
0
11
-125.984
21
-275.591
31
0
0
LINE
8
A-WALL
10
-125.984
20
-275.591
30
0
11
-125.984
21
275.591
31
0
0
LINE
8
A-WALL
10
-125.984
20
275.591
30
0
11
-354.331
21
275.591
31
0
0
LINE
8
A-WALL
10
-354.331
20
275.591
30
0
11
-354.331
21
-275.591
31
0
0
LINE
8
A-WALL
10
125.984
20
-275.591
30
0
11
354.331
21
-275.591
31
0
0
LINE
8
A-WALL
10
354.331
20
-275.591
30
0
11
354.331
21
275.591
31
0
0
LINE
8
A-WALL
10
354.331
20
275.591
30
0
11
125.984
21
275.591
31
0
0
LINE
8
A-WALL
10
125.984
20
275.591
30
0
11
125.984
21
-275.591
31
0
0
LINE
8
A-WALL
10
-125.984
20
102.362
30
0
11
125.984
21
102.362
31
0
0
LINE
8
A-WALL
10
125.984
20
102.362
30
0
11
125.984
21
275.591
31
0
0
LINE
8
A-WALL
10
125.984
20
275.591
30
0
11
-125.984
21
275.591
31
0
0
LINE
8
A-WALL
10
-125.984
20
275.591
30
0
11
-125.984
21
102.362
31
0
0
LINE
8
A-WALL
10
-125.984
20
-275.591
30
0
11
125.984
21
-275.591
31
0
0
LINE
8
A-WALL
10
125.984
20
-275.591
30
0
11
125.984
21
-173.228
31
0
0
LINE
8
A-WALL
10
125.984
20
-173.228
30
0
11
-125.984
21
-173.228
31
0
0
LINE
8
A-WALL
10
-125.984
20
-173.228
30
0
11
-125.984
21
-275.591
31
0
0
LINE
8
A-POOL
10
-90.551
20
-129.921
30
0
11
90.551
21
-129.921
31
0
0
LINE
8
A-POOL
10
90.551
20
-129.921
30
0
11
90.551
21
74.803
31
0
0
LINE
8
A-POOL
10
90.551
20
74.803
30
0
11
-90.551
21
74.803
31
0
0
LINE
8
A-POOL
10
-90.551
20
74.803
30
0
11
-90.551
21
-129.921
31
0
0
LINE
8
A-WALL
10
-139.764
20
-275.591
30
0
11
-139.764
21
-78.740
31
0
0
LINE
8
A-WALL
10
-354.331
20
62.992
30
0
11
-125.984
21
62.992
31
0
0
LINE
8
A-WALL
10
125.984
20
-78.740
30
0
11
354.331
21
-78.740
31
0
0
LINE
8
A-WALL
10
125.984
20
94.488
30
0
11
354.331
21
94.488
31
0
0
LINE
8
A-WALL
10
208.661
20
94.488
30
0
11
208.661
21
275.591
31
0
0
TEXT
8
A-TEXT
10
-326.772
20
-196.850
30
0
40
16.000
1
3-CAR GARAGE
50
0
0
TEXT
8
A-TEXT
10
-322.835
20
133.858
30
0
40
14.000
1
GUEST SUITE
50
0
0
TEXT
8
A-TEXT
10
-204.724
20
3.937
30
0
40
14.000
1
MUD / SERVICE
50
0
0
TEXT
8
A-TEXT
10
161.417
20
-185.039
30
0
40
14.000
1
GREAT ROOM
50
0
0
TEXT
8
A-TEXT
10
165.354
20
7.874
30
0
40
14.000
1
OFFICE / FLEX
50
0
0
TEXT
8
A-TEXT
10
224.409
20
185.039
30
0
40
14.000
1
KITCHEN
50
0
0
TEXT
8
A-TEXT
10
-74.803
20
188.976
30
0
40
14.000
1
DINING
50
0
0
TEXT
8
A-TEXT
10
-59.055
20
-39.370
30
0
40
14.000
1
COURTYARD POOL
50
0
0
TEXT
8
A-TEXT
10
-31.496
20
-228.346
30
0
40
14.000
1
ENTRY
50
0
0
TEXT
8
A-TEXT
10
-354.331
20
318.898
30
0
40
22.000
1
AURELINE COURTYARD HOUSE — GROUND FLOOR
50
0
0
LINE
8
A-ANNO
10
409.449
20
208.661
30
0
11
409.449
21
275.591
31
0
0
LINE
8
A-ANNO
10
409.449
20
275.591
30
0
11
399.606
21
257.874
31
0
0
LINE
8
A-ANNO
10
409.449
20
275.591
30
0
11
419.291
21
257.874
31
0
0
TEXT
8
A-TEXT
10
402.362
20
285.433
30
0
40
14.000
1
N
50
0
0
ENDSEC
0
EOF