<svg xmlns="http://www.w3.org/2000/svg" width="1600" height="1100" viewBox="0 0 1600 1100"><rect width="100%" height="100%" rx="42" fill="#fff8ee"/><defs><filter id="shadow" x="-10%" y="-10%" width="120%" height="120%"><feDropShadow dx="0" dy="8" stdDeviation="13" flood-opacity=".13"/></filter></defs><g filter="url(#shadow)"><rect x="42" y="42" width="1516" height="1016" rx="30" fill="#ffffff" stroke="#eadfd4" stroke-width="2"/></g><text x="80" y="82" font-family="Arial, sans-serif" font-size="34" font-weight="800" fill="#23172d">Luxury Custom Home</text><text x="80" y="112" font-family="Arial, sans-serif" font-size="18" font-weight="700" letter-spacing="2" fill="#1fae8d">UPPER FLOOR</text><g><line x1="350.59" y1="945.67" x2="613.20" y2="945.67" stroke="#4d4256" stroke-width="1.00" stroke-linecap="round"/><line x1="613.20" y1="945.67" x2="613.20" y2="289.13" stroke="#4d4256" stroke-width="1.00" stroke-linecap="round"/><line x1="613.20" y1="289.13" x2="350.59" y2="289.13" stroke="#4d4256" stroke-width="1.00" stroke-linecap="round"/><line x1="350.59" y1="289.13" x2="350.59" y2="945.67" stroke="#4d4256" stroke-width="1.00" stroke-linecap="round"/><line x1="875.82" y1="945.67" x2="1138.43" y2="945.67" stroke="#4d4256" stroke-width="1.00" stroke-linecap="round"/><line x1="1138.43" y1="945.67" x2="1138.43" y2="289.13" stroke="#4d4256" stroke-width="1.00" stroke-linecap="round"/><line x1="1138.43" y1="289.13" x2="875.82" y2="289.13" stroke="#4d4256" stroke-width="1.00" stroke-linecap="round"/><line x1="875.82" y1="289.13" x2="875.82" y2="945.67" stroke="#4d4256" stroke-width="1.00" stroke-linecap="round"/><line x1="613.20" y1="945.67" x2="875.82" y2="945.67" stroke="#4d4256" stroke-width="1.00" stroke-linecap="round"/><line x1="875.82" y1="945.67" x2="875.82" y2="781.53" stroke="#4d4256" stroke-width="1.00" stroke-linecap="round"/><line x1="875.82" y1="781.53" x2="613.20" y2="781.53" stroke="#4d4256" stroke-width="1.00" stroke-linecap="round"/><line x1="613.20" y1="781.53" x2="613.20" y2="945.67" stroke="#4d4256" stroke-width="1.00" stroke-linecap="round"/><line x1="613.20" y1="529.86" x2="941.47" y2="529.86" stroke="#4d4256" stroke-width="1.00" stroke-linecap="round"/><line x1="941.47" y1="529.86" x2="941.47" y2="442.33" stroke="#4d4256" stroke-width="1.00" stroke-linecap="round"/><line x1="941.47" y1="442.33" x2="613.20" y2="442.33" stroke="#4d4256" stroke-width="1.00" stroke-linecap="round"/><line x1="613.20" y1="442.33" x2="613.20" y2="529.86" stroke="#4d4256" stroke-width="1.00" stroke-linecap="round"/><line x1="613.20" y1="442.33" x2="722.63" y2="442.33" stroke="#4d4256" stroke-width="1.00" stroke-linecap="round"/><line x1="722.63" y1="442.33" x2="722.63" y2="179.71" stroke="#4d4256" stroke-width="1.00" stroke-linecap="round"/><line x1="722.63" y1="179.71" x2="613.20" y2="179.71" stroke="#4d4256" stroke-width="1.00" stroke-linecap="round"/><line x1="613.20" y1="179.71" x2="613.20" y2="442.33" stroke="#4d4256" stroke-width="1.00" stroke-linecap="round"/><line x1="722.63" y1="245.36" x2="853.93" y2="245.36" stroke="#4d4256" stroke-width="1.00" stroke-linecap="round"/><line x1="853.93" y1="245.36" x2="853.93" y2="179.71" stroke="#4d4256" stroke-width="1.00" stroke-linecap="round"/><line x1="853.93" y1="179.71" x2="722.63" y2="179.71" stroke="#4d4256" stroke-width="1.00" stroke-linecap="round"/><line x1="722.63" y1="179.71" x2="722.63" y2="245.36" stroke="#4d4256" stroke-width="1.00" stroke-linecap="round"/><line x1="350.59" y1="948.40" x2="394.36" y2="948.40" stroke="#23172d" stroke-width="1.00" stroke-linecap="round"/><line x1="394.36" y1="948.40" x2="394.36" y2="942.93" stroke="#23172d" stroke-width="1.00" stroke-linecap="round"/><line x1="394.36" y1="942.93" x2="350.59" y2="942.93" stroke="#23172d" stroke-width="1.00" stroke-linecap="round"/><line x1="350.59" y1="942.93" x2="350.59" y2="948.40" stroke="#23172d" stroke-width="1.00" stroke-linecap="round"/><line x1="470.96" y1="948.40" x2="503.78" y2="948.40" stroke="#23172d" stroke-width="1.00" stroke-linecap="round"/><line x1="503.78" y1="948.40" x2="503.78" y2="942.93" stroke="#23172d" stroke-width="1.00" stroke-linecap="round"/><line x1="503.78" y1="942.93" x2="470.96" y2="942.93" stroke="#23172d" stroke-width="1.00" stroke-linecap="round"/><line x1="470.96" y1="942.93" x2="470.96" y2="948.40" stroke="#23172d" stroke-width="1.00" stroke-linecap="round"/><line x1="580.38" y1="948.40" x2="613.20" y2="948.40" stroke="#23172d" stroke-width="1.00" stroke-linecap="round"/><line x1="613.20" y1="948.40" x2="613.20" y2="942.93" stroke="#23172d" stroke-width="1.00" stroke-linecap="round"/><line x1="613.20" y1="942.93" x2="580.38" y2="942.93" stroke="#23172d" stroke-width="1.00" stroke-linecap="round"/><line x1="580.38" y1="942.93" x2="580.38" y2="948.40" stroke="#23172d" stroke-width="1.00" stroke-linecap="round"/><line x1="347.86" y1="945.67" x2="353.33" y2="945.67" stroke="#23172d" stroke-width="1.00" stroke-linecap="round"/><line x1="353.33" y1="945.67" x2="353.33" y2="890.96" stroke="#23172d" stroke-width="1.00" stroke-linecap="round"/><line x1="353.33" y1="890.96" x2="347.86" y2="890.96" stroke="#23172d" stroke-width="1.00" stroke-linecap="round"/><line x1="347.86" y1="890.96" x2="347.86" y2="945.67" stroke="#23172d" stroke-width="1.00" stroke-linecap="round"/><line x1="347.86" y1="759.65" x2="353.33" y2="759.65" stroke="#23172d" stroke-width="1.00" stroke-linecap="round"/><line x1="353.33" y1="759.65" x2="353.33" y2="486.09" stroke="#23172d" stroke-width="1.00" stroke-linecap="round"/><line x1="353.33" y1="486.09" x2="347.86" y2="486.09" stroke="#23172d" stroke-width="1.00" stroke-linecap="round"/><line x1="347.86" y1="486.09" x2="347.86" y2="759.65" stroke="#23172d" stroke-width="1.00" stroke-linecap="round"/><line x1="347.86" y1="354.79" x2="353.33" y2="354.79" stroke="#23172d" stroke-width="1.00" stroke-linecap="round"/><line x1="353.33" y1="354.79" x2="353.33" y2="289.13" stroke="#23172d" stroke-width="1.00" stroke-linecap="round"/><line x1="353.33" y1="289.13" x2="347.86" y2="289.13" stroke="#23172d" stroke-width="1.00" stroke-linecap="round"/><line x1="347.86" y1="289.13" x2="347.86" y2="354.79" stroke="#23172d" stroke-width="1.00" stroke-linecap="round"/><line x1="350.59" y1="291.87" x2="405.30" y2="291.87" stroke="#23172d" stroke-width="1.00" stroke-linecap="round"/><line x1="405.30" y1="291.87" x2="405.30" y2="286.40" stroke="#23172d" stroke-width="1.00" stroke-linecap="round"/><line x1="405.30" y1="286.40" x2="350.59" y2="286.40" stroke="#23172d" stroke-width="1.00" stroke-linecap="round"/><line x1="350.59" y1="286.40" x2="350.59" y2="291.87" stroke="#23172d" stroke-width="1.00" stroke-linecap="round"/><line x1="569.44" y1="291.87" x2="613.20" y2="291.87" stroke="#23172d" stroke-width="1.00" stroke-linecap="round"/><line x1="613.20" y1="291.87" x2="613.20" y2="286.40" stroke="#23172d" stroke-width="1.00" stroke-linecap="round"/><line x1="613.20" y1="286.40" x2="569.44" y2="286.40" stroke="#23172d" stroke-width="1.00" stroke-linecap="round"/><line x1="569.44" y1="286.40" x2="569.44" y2="291.87" stroke="#23172d" stroke-width="1.00" stroke-linecap="round"/><line x1="610.47" y1="945.67" x2="615.94" y2="945.67" stroke="#23172d" stroke-width="1.00" stroke-linecap="round"/><line x1="615.94" y1="945.67" x2="615.94" y2="869.07" stroke="#23172d" stroke-width="1.00" stroke-linecap="round"/><line x1="615.94" y1="869.07" x2="610.47" y2="869.07" stroke="#23172d" stroke-width="1.00" stroke-linecap="round"/><line x1="610.47" y1="869.07" x2="610.47" y2="945.67" stroke="#23172d" stroke-width="1.00" stroke-linecap="round"/><line x1="610.47" y1="814.36" x2="615.94" y2="814.36" stroke="#23172d" stroke-width="1.00" stroke-linecap="round"/><line x1="615.94" y1="814.36" x2="615.94" y2="650.23" stroke="#23172d" stroke-width="1.00" stroke-linecap="round"/><line x1="615.94" y1="650.23" x2="610.47" y2="650.23" stroke="#23172d" stroke-width="1.00" stroke-linecap="round"/><line x1="610.47" y1="650.23" x2="610.47" y2="814.36" stroke="#23172d" stroke-width="1.00" stroke-linecap="round"/><line x1="610.47" y1="606.46" x2="615.94" y2="606.46" stroke="#23172d" stroke-width="1.00" stroke-linecap="round"/><line x1="615.94" y1="606.46" x2="615.94" y2="507.98" stroke="#23172d" stroke-width="1.00" stroke-linecap="round"/><line x1="615.94" y1="507.98" x2="610.47" y2="507.98" stroke="#23172d" stroke-width="1.00" stroke-linecap="round"/><line x1="610.47" y1="507.98" x2="610.47" y2="606.46" stroke="#23172d" stroke-width="1.00" stroke-linecap="round"/><line x1="610.47" y1="431.38" x2="615.94" y2="431.38" stroke="#23172d" stroke-width="1.00" stroke-linecap="round"/><line x1="615.94" y1="431.38" x2="615.94" y2="289.13" stroke="#23172d" stroke-width="1.00" stroke-linecap="round"/><line x1="615.94" y1="289.13" x2="610.47" y2="289.13" stroke="#23172d" stroke-width="1.00" stroke-linecap="round"/><line x1="610.47" y1="289.13" x2="610.47" y2="431.38" stroke="#23172d" stroke-width="1.00" stroke-linecap="round"/><line x1="875.82" y1="948.40" x2="919.59" y2="948.40" stroke="#23172d" stroke-width="1.00" stroke-linecap="round"/><line x1="919.59" y1="948.40" x2="919.59" y2="942.93" stroke="#23172d" stroke-width="1.00" stroke-linecap="round"/><line x1="919.59" y1="942.93" x2="875.82" y2="942.93" stroke="#23172d" stroke-width="1.00" stroke-linecap="round"/><line x1="875.82" y1="942.93" x2="875.82" y2="948.40" stroke="#23172d" stroke-width="1.00" stroke-linecap="round"/><line x1="996.18" y1="948.40" x2="1029.01" y2="948.40" stroke="#23172d" stroke-width="1.00" stroke-linecap="round"/><line x1="1029.01" y1="948.40" x2="1029.01" y2="942.93" stroke="#23172d" stroke-width="1.00" stroke-linecap="round"/><line x1="1029.01" y1="942.93" x2="996.18" y2="942.93" stroke="#23172d" stroke-width="1.00" stroke-linecap="round"/><line x1="996.18" y1="942.93" x2="996.18" y2="948.40" stroke="#23172d" stroke-width="1.00" stroke-linecap="round"/><line x1="1105.61" y1="948.40" x2="1138.43" y2="948.40" stroke="#23172d" stroke-width="1.00" stroke-linecap="round"/><line x1="1138.43" y1="948.40" x2="1138.43" y2="942.93" stroke="#23172d" stroke-width="1.00" stroke-linecap="round"/><line x1="1138.43" y1="942.93" x2="1105.61" y2="942.93" stroke="#23172d" stroke-width="1.00" stroke-linecap="round"/><line x1="1105.61" y1="942.93" x2="1105.61" y2="948.40" stroke="#23172d" stroke-width="1.00" stroke-linecap="round"/><line x1="1135.70" y1="945.67" x2="1141.17" y2="945.67" stroke="#23172d" stroke-width="1.00" stroke-linecap="round"/><line x1="1141.17" y1="945.67" x2="1141.17" y2="890.96" stroke="#23172d" stroke-width="1.00" stroke-linecap="round"/><line x1="1141.17" y1="890.96" x2="1135.70" y2="890.96" stroke="#23172d" stroke-width="1.00" stroke-linecap="round"/><line x1="1135.70" y1="890.96" x2="1135.70" y2="945.67" stroke="#23172d" stroke-width="1.00" stroke-linecap="round"/><line x1="1135.70" y1="759.65" x2="1141.17" y2="759.65" stroke="#23172d" stroke-width="1.00" stroke-linecap="round"/><line x1="1141.17" y1="759.65" x2="1141.17" y2="486.09" stroke="#23172d" stroke-width="1.00" stroke-linecap="round"/><line x1="1141.17" y1="486.09" x2="1135.70" y2="486.09" stroke="#23172d" stroke-width="1.00" stroke-linecap="round"/><line x1="1135.70" y1="486.09" x2="1135.70" y2="759.65" stroke="#23172d" stroke-width="1.00" stroke-linecap="round"/><line x1="1135.70" y1="354.79" x2="1141.17" y2="354.79" stroke="#23172d" stroke-width="1.00" stroke-linecap="round"/><line x1="1141.17" y1="354.79" x2="1141.17" y2="289.13" stroke="#23172d" stroke-width="1.00" stroke-linecap="round"/><line x1="1141.17" y1="289.13" x2="1135.70" y2="289.13" stroke="#23172d" stroke-width="1.00" stroke-linecap="round"/><line x1="1135.70" y1="289.13" x2="1135.70" y2="354.79" stroke="#23172d" stroke-width="1.00" stroke-linecap="round"/><line x1="875.82" y1="291.87" x2="919.59" y2="291.87" stroke="#23172d" stroke-width="1.00" stroke-linecap="round"/><line x1="919.59" y1="291.87" x2="919.59" y2="286.40" stroke="#23172d" stroke-width="1.00" stroke-linecap="round"/><line x1="919.59" y1="286.40" x2="875.82" y2="286.40" stroke="#23172d" stroke-width="1.00" stroke-linecap="round"/><line x1="875.82" y1="286.40" x2="875.82" y2="291.87" stroke="#23172d" stroke-width="1.00" stroke-linecap="round"/><line x1="1094.66" y1="291.87" x2="1138.43" y2="291.87" stroke="#23172d" stroke-width="1.00" stroke-linecap="round"/><line x1="1138.43" y1="291.87" x2="1138.43" y2="286.40" stroke="#23172d" stroke-width="1.00" stroke-linecap="round"/><line x1="1138.43" y1="286.40" x2="1094.66" y2="286.40" stroke="#23172d" stroke-width="1.00" stroke-linecap="round"/><line x1="1094.66" y1="286.40" x2="1094.66" y2="291.87" stroke="#23172d" stroke-width="1.00" stroke-linecap="round"/><line x1="873.08" y1="945.67" x2="878.55" y2="945.67" stroke="#23172d" stroke-width="1.00" stroke-linecap="round"/><line x1="878.55" y1="945.67" x2="878.55" y2="869.07" stroke="#23172d" stroke-width="1.00" stroke-linecap="round"/><line x1="878.55" y1="869.07" x2="873.08" y2="869.07" stroke="#23172d" stroke-width="1.00" stroke-linecap="round"/><line x1="873.08" y1="869.07" x2="873.08" y2="945.67" stroke="#23172d" stroke-width="1.00" stroke-linecap="round"/><line x1="873.08" y1="814.36" x2="878.55" y2="814.36" stroke="#23172d" stroke-width="1.00" stroke-linecap="round"/><line x1="878.55" y1="814.36" x2="878.55" y2="650.23" stroke="#23172d" stroke-width="1.00" stroke-linecap="round"/><line x1="878.55" y1="650.23" x2="873.08" y2="650.23" stroke="#23172d" stroke-width="1.00" stroke-linecap="round"/><line x1="873.08" y1="650.23" x2="873.08" y2="814.36" stroke="#23172d" stroke-width="1.00" stroke-linecap="round"/><line x1="873.08" y1="606.46" x2="878.55" y2="606.46" stroke="#23172d" stroke-width="1.00" stroke-linecap="round"/><line x1="878.55" y1="606.46" x2="878.55" y2="507.98" stroke="#23172d" stroke-width="1.00" stroke-linecap="round"/><line x1="878.55" y1="507.98" x2="873.08" y2="507.98" stroke="#23172d" stroke-width="1.00" stroke-linecap="round"/><line x1="873.08" y1="507.98" x2="873.08" y2="606.46" stroke="#23172d" stroke-width="1.00" stroke-linecap="round"/><line x1="873.08" y1="431.38" x2="878.55" y2="431.38" stroke="#23172d" stroke-width="1.00" stroke-linecap="round"/><line x1="878.55" y1="431.38" x2="878.55" y2="289.13" stroke="#23172d" stroke-width="1.00" stroke-linecap="round"/><line x1="878.55" y1="289.13" x2="873.08" y2="289.13" stroke="#23172d" stroke-width="1.00" stroke-linecap="round"/><line x1="873.08" y1="289.13" x2="873.08" y2="431.38" stroke="#23172d" stroke-width="1.00" stroke-linecap="round"/><line x1="613.20" y1="948.40" x2="678.86" y2="948.40" stroke="#23172d" stroke-width="1.00" stroke-linecap="round"/><line x1="678.86" y1="948.40" x2="678.86" y2="942.93" stroke="#23172d" stroke-width="1.00" stroke-linecap="round"/><line x1="678.86" y1="942.93" x2="613.20" y2="942.93" stroke="#23172d" stroke-width="1.00" stroke-linecap="round"/><line x1="613.20" y1="942.93" x2="613.20" y2="948.40" stroke="#23172d" stroke-width="1.00" stroke-linecap="round"/><line x1="810.17" y1="948.40" x2="875.82" y2="948.40" stroke="#23172d" stroke-width="1.00" stroke-linecap="round"/><line x1="875.82" y1="948.40" x2="875.82" y2="942.93" stroke="#23172d" stroke-width="1.00" stroke-linecap="round"/><line x1="875.82" y1="942.93" x2="810.17" y2="942.93" stroke="#23172d" stroke-width="1.00" stroke-linecap="round"/><line x1="810.17" y1="942.93" x2="810.17" y2="948.40" stroke="#23172d" stroke-width="1.00" stroke-linecap="round"/><line x1="610.47" y1="945.67" x2="615.94" y2="945.67" stroke="#23172d" stroke-width="1.00" stroke-linecap="round"/><line x1="615.94" y1="945.67" x2="615.94" y2="869.07" stroke="#23172d" stroke-width="1.00" stroke-linecap="round"/><line x1="615.94" y1="869.07" x2="610.47" y2="869.07" stroke="#23172d" stroke-width="1.00" stroke-linecap="round"/><line x1="610.47" y1="869.07" x2="610.47" y2="945.67" stroke="#23172d" stroke-width="1.00" stroke-linecap="round"/><line x1="610.47" y1="814.36" x2="615.94" y2="814.36" stroke="#23172d" stroke-width="1.00" stroke-linecap="round"/><line x1="615.94" y1="814.36" x2="615.94" y2="781.53" stroke="#23172d" stroke-width="1.00" stroke-linecap="round"/><line x1="615.94" y1="781.53" x2="610.47" y2="781.53" stroke="#23172d" stroke-width="1.00" stroke-linecap="round"/><line x1="610.47" y1="781.53" x2="610.47" y2="814.36" stroke="#23172d" stroke-width="1.00" stroke-linecap="round"/><line x1="873.08" y1="945.67" x2="878.55" y2="945.67" stroke="#23172d" stroke-width="1.00" stroke-linecap="round"/><line x1="878.55" y1="945.67" x2="878.55" y2="869.07" stroke="#23172d" stroke-width="1.00" stroke-linecap="round"/><line x1="878.55" y1="869.07" x2="873.08" y2="869.07" stroke="#23172d" stroke-width="1.00" stroke-linecap="round"/><line x1="873.08" y1="869.07" x2="873.08" y2="945.67" stroke="#23172d" stroke-width="1.00" stroke-linecap="round"/><line x1="873.08" y1="814.36" x2="878.55" y2="814.36" stroke="#23172d" stroke-width="1.00" stroke-linecap="round"/><line x1="878.55" y1="814.36" x2="878.55" y2="781.53" stroke="#23172d" stroke-width="1.00" stroke-linecap="round"/><line x1="878.55" y1="781.53" x2="873.08" y2="781.53" stroke="#23172d" stroke-width="1.00" stroke-linecap="round"/><line x1="873.08" y1="781.53" x2="873.08" y2="814.36" stroke="#23172d" stroke-width="1.00" stroke-linecap="round"/><line x1="350.59" y1="685.79" x2="547.55" y2="685.79" stroke="#23172d" stroke-width="1.00" stroke-linecap="round"/><line x1="547.55" y1="685.79" x2="547.55" y2="680.32" stroke="#23172d" stroke-width="1.00" stroke-linecap="round"/><line x1="547.55" y1="680.32" x2="350.59" y2="680.32" stroke="#23172d" stroke-width="1.00" stroke-linecap="round"/><line x1="350.59" y1="680.32" x2="350.59" y2="685.79" stroke="#23172d" stroke-width="1.00" stroke-linecap="round"/><line x1="580.38" y1="685.79" x2="613.20" y2="685.79" stroke="#23172d" stroke-width="1.00" stroke-linecap="round"/><line x1="613.20" y1="685.79" x2="613.20" y2="680.32" stroke="#23172d" stroke-width="1.00" stroke-linecap="round"/><line x1="613.20" y1="680.32" x2="580.38" y2="680.32" stroke="#23172d" stroke-width="1.00" stroke-linecap="round"/><line x1="580.38" y1="680.32" x2="580.38" y2="685.79" stroke="#23172d" stroke-width="1.00" stroke-linecap="round"/><line x1="457.28" y1="683.05" x2="462.75" y2="683.05" stroke="#23172d" stroke-width="1.00" stroke-linecap="round"/><line x1="462.75" y1="683.05" x2="462.75" y2="628.34" stroke="#23172d" stroke-width="1.00" stroke-linecap="round"/><line x1="462.75" y1="628.34" x2="457.28" y2="628.34" stroke="#23172d" stroke-width="1.00" stroke-linecap="round"/><line x1="457.28" y1="628.34" x2="457.28" y2="683.05" stroke="#23172d" stroke-width="1.00" stroke-linecap="round"/><line x1="457.28" y1="595.52" x2="462.75" y2="595.52" stroke="#23172d" stroke-width="1.00" stroke-linecap="round"/><line x1="462.75" y1="595.52" x2="462.75" y2="529.86" stroke="#23172d" stroke-width="1.00" stroke-linecap="round"/><line x1="462.75" y1="529.86" x2="457.28" y2="529.86" stroke="#23172d" stroke-width="1.00" stroke-linecap="round"/><line x1="457.28" y1="529.86" x2="457.28" y2="595.52" stroke="#23172d" stroke-width="1.00" stroke-linecap="round"/><line x1="544.82" y1="683.05" x2="550.29" y2="683.05" stroke="#23172d" stroke-width="1.00" stroke-linecap="round"/><line x1="550.29" y1="683.05" x2="550.29" y2="628.34" stroke="#23172d" stroke-width="1.00" stroke-linecap="round"/><line x1="550.29" y1="628.34" x2="544.82" y2="628.34" stroke="#23172d" stroke-width="1.00" stroke-linecap="round"/><line x1="544.82" y1="628.34" x2="544.82" y2="683.05" stroke="#23172d" stroke-width="1.00" stroke-linecap="round"/><line x1="544.82" y1="595.52" x2="550.29" y2="595.52" stroke="#23172d" stroke-width="1.00" stroke-linecap="round"/><line x1="550.29" y1="595.52" x2="550.29" y2="529.86" stroke="#23172d" stroke-width="1.00" stroke-linecap="round"/><line x1="550.29" y1="529.86" x2="544.82" y2="529.86" stroke="#23172d" stroke-width="1.00" stroke-linecap="round"/><line x1="544.82" y1="529.86" x2="544.82" y2="595.52" stroke="#23172d" stroke-width="1.00" stroke-linecap="round"/><line x1="350.59" y1="532.60" x2="547.55" y2="532.60" stroke="#23172d" stroke-width="1.00" stroke-linecap="round"/><line x1="547.55" y1="532.60" x2="547.55" y2="527.13" stroke="#23172d" stroke-width="1.00" stroke-linecap="round"/><line x1="547.55" y1="527.13" x2="350.59" y2="527.13" stroke="#23172d" stroke-width="1.00" stroke-linecap="round"/><line x1="350.59" y1="527.13" x2="350.59" y2="532.60" stroke="#23172d" stroke-width="1.00" stroke-linecap="round"/><line x1="591.32" y1="532.60" x2="613.20" y2="532.60" stroke="#23172d" stroke-width="1.00" stroke-linecap="round"/><line x1="613.20" y1="532.60" x2="613.20" y2="527.13" stroke="#23172d" stroke-width="1.00" stroke-linecap="round"/><line x1="613.20" y1="527.13" x2="591.32" y2="527.13" stroke="#23172d" stroke-width="1.00" stroke-linecap="round"/><line x1="591.32" y1="527.13" x2="591.32" y2="532.60" stroke="#23172d" stroke-width="1.00" stroke-linecap="round"/><line x1="875.82" y1="685.79" x2="908.65" y2="685.79" stroke="#23172d" stroke-width="1.00" stroke-linecap="round"/><line x1="908.65" y1="685.79" x2="908.65" y2="680.32" stroke="#23172d" stroke-width="1.00" stroke-linecap="round"/><line x1="908.65" y1="680.32" x2="875.82" y2="680.32" stroke="#23172d" stroke-width="1.00" stroke-linecap="round"/><line x1="875.82" y1="680.32" x2="875.82" y2="685.79" stroke="#23172d" stroke-width="1.00" stroke-linecap="round"/><line x1="941.47" y1="685.79" x2="1138.43" y2="685.79" stroke="#23172d" stroke-width="1.00" stroke-linecap="round"/><line x1="1138.43" y1="685.79" x2="1138.43" y2="680.32" stroke="#23172d" stroke-width="1.00" stroke-linecap="round"/><line x1="1138.43" y1="680.32" x2="941.47" y2="680.32" stroke="#23172d" stroke-width="1.00" stroke-linecap="round"/><line x1="941.47" y1="680.32" x2="941.47" y2="685.79" stroke="#23172d" stroke-width="1.00" stroke-linecap="round"/><line x1="1026.27" y1="683.05" x2="1031.75" y2="683.05" stroke="#23172d" stroke-width="1.00" stroke-linecap="round"/><line x1="1031.75" y1="683.05" x2="1031.75" y2="628.34" stroke="#23172d" stroke-width="1.00" stroke-linecap="round"/><line x1="1031.75" y1="628.34" x2="1026.27" y2="628.34" stroke="#23172d" stroke-width="1.00" stroke-linecap="round"/><line x1="1026.27" y1="628.34" x2="1026.27" y2="683.05" stroke="#23172d" stroke-width="1.00" stroke-linecap="round"/><line x1="1026.27" y1="595.52" x2="1031.75" y2="595.52" stroke="#23172d" stroke-width="1.00" stroke-linecap="round"/><line x1="1031.75" y1="595.52" x2="1031.75" y2="529.86" stroke="#23172d" stroke-width="1.00" stroke-linecap="round"/><line x1="1031.75" y1="529.86" x2="1026.27" y2="529.86" stroke="#23172d" stroke-width="1.00" stroke-linecap="round"/><line x1="1026.27" y1="529.86" x2="1026.27" y2="595.52" stroke="#23172d" stroke-width="1.00" stroke-linecap="round"/><line x1="875.82" y1="532.60" x2="897.70" y2="532.60" stroke="#23172d" stroke-width="1.00" stroke-linecap="round"/><line x1="897.70" y1="532.60" x2="897.70" y2="527.13" stroke="#23172d" stroke-width="1.00" stroke-linecap="round"/><line x1="897.70" y1="527.13" x2="875.82" y2="527.13" stroke="#23172d" stroke-width="1.00" stroke-linecap="round"/><line x1="875.82" y1="527.13" x2="875.82" y2="532.60" stroke="#23172d" stroke-width="1.00" stroke-linecap="round"/><line x1="941.47" y1="532.60" x2="1138.43" y2="532.60" stroke="#23172d" stroke-width="1.00" stroke-linecap="round"/><line x1="1138.43" y1="532.60" x2="1138.43" y2="527.13" stroke="#23172d" stroke-width="1.00" stroke-linecap="round"/><line x1="1138.43" y1="527.13" x2="941.47" y2="527.13" stroke="#23172d" stroke-width="1.00" stroke-linecap="round"/><line x1="941.47" y1="527.13" x2="941.47" y2="532.60" stroke="#23172d" stroke-width="1.00" stroke-linecap="round"/><line x1="613.20" y1="781.53" x2="875.82" y2="781.53" stroke="#1fae8d" stroke-width="1.00" stroke-linecap="round"/><line x1="613.20" y1="529.86" x2="941.47" y2="529.86" stroke="#1fae8d" stroke-width="1.00" stroke-linecap="round"/><line x1="613.20" y1="781.53" x2="613.20" y2="529.86" stroke="#1fae8d" stroke-width="1.00" stroke-linecap="round"/><line x1="875.82" y1="781.53" x2="875.82" y2="529.86" stroke="#1fae8d" stroke-width="1.00" stroke-linecap="round"/><line x1="722.63" y1="420.44" x2="853.93" y2="420.44" stroke="#1fae8d" stroke-width="1.00" stroke-linecap="round"/><line x1="853.93" y1="420.44" x2="853.93" y2="245.36" stroke="#1fae8d" stroke-width="1.00" stroke-linecap="round"/><line x1="853.93" y1="245.36" x2="722.63" y2="245.36" stroke="#1fae8d" stroke-width="1.00" stroke-linecap="round"/><line x1="722.63" y1="245.36" x2="722.63" y2="420.44" stroke="#1fae8d" stroke-width="1.00" stroke-linecap="round"/><line x1="624.15" y1="442.33" x2="711.69" y2="442.33" stroke="#8a6cff" stroke-width="1.00" stroke-linecap="round"/><line x1="624.15" y1="431.38" x2="711.69" y2="431.38" stroke="#8a6cff" stroke-width="1.00" stroke-linecap="round"/><line x1="624.15" y1="420.44" x2="711.69" y2="420.44" stroke="#8a6cff" stroke-width="1.00" stroke-linecap="round"/><line x1="624.15" y1="409.50" x2="711.69" y2="409.50" stroke="#8a6cff" stroke-width="1.00" stroke-linecap="round"/><line x1="624.15" y1="398.56" x2="711.69" y2="398.56" stroke="#8a6cff" stroke-width="1.00" stroke-linecap="round"/><line x1="624.15" y1="387.61" x2="711.69" y2="387.61" stroke="#8a6cff" stroke-width="1.00" stroke-linecap="round"/><line x1="624.15" y1="376.67" x2="711.69" y2="376.67" stroke="#8a6cff" stroke-width="1.00" stroke-linecap="round"/><line x1="624.15" y1="365.73" x2="711.69" y2="365.73" stroke="#8a6cff" stroke-width="1.00" stroke-linecap="round"/><line x1="624.15" y1="354.79" x2="711.69" y2="354.79" stroke="#8a6cff" stroke-width="1.00" stroke-linecap="round"/><line x1="624.15" y1="343.84" x2="711.69" y2="343.84" stroke="#8a6cff" stroke-width="1.00" stroke-linecap="round"/><line x1="624.15" y1="332.90" x2="711.69" y2="332.90" stroke="#8a6cff" stroke-width="1.00" stroke-linecap="round"/><line x1="624.15" y1="321.96" x2="711.69" y2="321.96" stroke="#8a6cff" stroke-width="1.00" stroke-linecap="round"/><line x1="624.15" y1="311.02" x2="711.69" y2="311.02" stroke="#8a6cff" stroke-width="1.00" stroke-linecap="round"/><line x1="624.15" y1="300.08" x2="711.69" y2="300.08" stroke="#8a6cff" stroke-width="1.00" stroke-linecap="round"/><line x1="624.15" y1="289.13" x2="711.69" y2="289.13" stroke="#8a6cff" stroke-width="1.00" stroke-linecap="round"/><line x1="624.15" y1="278.19" x2="711.69" y2="278.19" stroke="#8a6cff" stroke-width="1.00" stroke-linecap="round"/><line x1="624.15" y1="267.25" x2="711.69" y2="267.25" stroke="#8a6cff" stroke-width="1.00" stroke-linecap="round"/><line x1="624.15" y1="256.31" x2="711.69" y2="256.31" stroke="#8a6cff" stroke-width="1.00" stroke-linecap="round"/><text x="667.92" y="343.84" transform="rotate(-90.00 667.92 343.84)" font-family="Arial, sans-serif" font-size="8.00" fill="#8a6cff">DN</text><line x1="424.45" y1="863.60" x2="495.58" y2="863.60" stroke="#7a6b84" stroke-width="1.00" stroke-linecap="round"/><line x1="495.58" y1="863.60" x2="495.58" y2="787.01" stroke="#7a6b84" stroke-width="1.00" stroke-linecap="round"/><line x1="495.58" y1="787.01" x2="424.45" y2="787.01" stroke="#7a6b84" stroke-width="1.00" stroke-linecap="round"/><line x1="424.45" y1="787.01" x2="424.45" y2="863.60" stroke="#7a6b84" stroke-width="1.00" stroke-linecap="round"/><line x1="424.45" y1="811.52" x2="495.58" y2="811.52" stroke="#7a6b84" stroke-width="1.00" stroke-linecap="round"/><line x1="435.83" y1="813.81" x2="457.88" y2="813.81" stroke="#7a6b84" stroke-width="1.00" stroke-linecap="round"/><line x1="457.88" y1="813.81" x2="457.88" y2="797.73" stroke="#7a6b84" stroke-width="1.00" stroke-linecap="round"/><line x1="457.88" y1="797.73" x2="435.83" y2="797.73" stroke="#7a6b84" stroke-width="1.00" stroke-linecap="round"/><line x1="435.83" y1="797.73" x2="435.83" y2="813.81" stroke="#7a6b84" stroke-width="1.00" stroke-linecap="round"/><line x1="462.15" y1="813.81" x2="484.20" y2="813.81" stroke="#7a6b84" stroke-width="1.00" stroke-linecap="round"/><line x1="484.20" y1="813.81" x2="484.20" y2="797.73" stroke="#7a6b84" stroke-width="1.00" stroke-linecap="round"/><line x1="484.20" y1="797.73" x2="462.15" y2="797.73" stroke="#7a6b84" stroke-width="1.00" stroke-linecap="round"/><line x1="462.15" y1="797.73" x2="462.15" y2="813.81" stroke="#7a6b84" stroke-width="1.00" stroke-linecap="round"/><line x1="993.45" y1="863.60" x2="1064.57" y2="863.60" stroke="#7a6b84" stroke-width="1.00" stroke-linecap="round"/><line x1="1064.57" y1="863.60" x2="1064.57" y2="787.01" stroke="#7a6b84" stroke-width="1.00" stroke-linecap="round"/><line x1="1064.57" y1="787.01" x2="993.45" y2="787.01" stroke="#7a6b84" stroke-width="1.00" stroke-linecap="round"/><line x1="993.45" y1="787.01" x2="993.45" y2="863.60" stroke="#7a6b84" stroke-width="1.00" stroke-linecap="round"/><line x1="993.45" y1="811.52" x2="1064.57" y2="811.52" stroke="#7a6b84" stroke-width="1.00" stroke-linecap="round"/><line x1="1004.83" y1="813.81" x2="1026.88" y2="813.81" stroke="#7a6b84" stroke-width="1.00" stroke-linecap="round"/><line x1="1026.88" y1="813.81" x2="1026.88" y2="797.73" stroke="#7a6b84" stroke-width="1.00" stroke-linecap="round"/><line x1="1026.88" y1="797.73" x2="1004.83" y2="797.73" stroke="#7a6b84" stroke-width="1.00" stroke-linecap="round"/><line x1="1004.83" y1="797.73" x2="1004.83" y2="813.81" stroke="#7a6b84" stroke-width="1.00" stroke-linecap="round"/><line x1="1031.14" y1="813.81" x2="1053.19" y2="813.81" stroke="#7a6b84" stroke-width="1.00" stroke-linecap="round"/><line x1="1053.19" y1="813.81" x2="1053.19" y2="797.73" stroke="#7a6b84" stroke-width="1.00" stroke-linecap="round"/><line x1="1053.19" y1="797.73" x2="1031.14" y2="797.73" stroke="#7a6b84" stroke-width="1.00" stroke-linecap="round"/><line x1="1031.14" y1="797.73" x2="1031.14" y2="813.81" stroke="#7a6b84" stroke-width="1.00" stroke-linecap="round"/><line x1="394.36" y1="439.59" x2="525.67" y2="439.59" stroke="#7a6b84" stroke-width="1.00" stroke-linecap="round"/><line x1="525.67" y1="439.59" x2="525.67" y2="401.29" stroke="#7a6b84" stroke-width="1.00" stroke-linecap="round"/><line x1="525.67" y1="401.29" x2="394.36" y2="401.29" stroke="#7a6b84" stroke-width="1.00" stroke-linecap="round"/><line x1="394.36" y1="401.29" x2="394.36" y2="439.59" stroke="#7a6b84" stroke-width="1.00" stroke-linecap="round"/><line x1="399.83" y1="406.76" x2="520.20" y2="406.76" stroke="#7a6b84" stroke-width="1.00" stroke-linecap="round"/><line x1="350.59" y1="384.88" x2="438.13" y2="384.88" stroke="#7a6b84" stroke-width="1.00" stroke-linecap="round"/><line x1="438.13" y1="384.88" x2="438.13" y2="346.58" stroke="#7a6b84" stroke-width="1.00" stroke-linecap="round"/><line x1="438.13" y1="346.58" x2="350.59" y2="346.58" stroke="#7a6b84" stroke-width="1.00" stroke-linecap="round"/><line x1="350.59" y1="346.58" x2="350.59" y2="384.88" stroke="#7a6b84" stroke-width="1.00" stroke-linecap="round"/><line x1="356.06" y1="352.05" x2="432.66" y2="352.05" stroke="#7a6b84" stroke-width="1.00" stroke-linecap="round"/><line x1="585.85" y1="475.15" x2="607.73" y2="475.15" stroke="#7a6b84" stroke-width="1.00" stroke-linecap="round"/><line x1="607.73" y1="475.15" x2="607.73" y2="343.84" stroke="#7a6b84" stroke-width="1.00" stroke-linecap="round"/><line x1="607.73" y1="343.84" x2="585.85" y2="343.84" stroke="#7a6b84" stroke-width="1.00" stroke-linecap="round"/><line x1="585.85" y1="343.84" x2="585.85" y2="475.15" stroke="#7a6b84" stroke-width="1.00" stroke-linecap="round"/><line x1="928.34" y1="464.21" x2="936.00" y2="464.21" stroke="#7a6b84" stroke-width="1.00" stroke-linecap="round"/><line x1="936.00" y1="464.21" x2="936.00" y2="376.67" stroke="#7a6b84" stroke-width="1.00" stroke-linecap="round"/><line x1="936.00" y1="376.67" x2="928.34" y2="376.67" stroke="#7a6b84" stroke-width="1.00" stroke-linecap="round"/><line x1="928.34" y1="376.67" x2="928.34" y2="464.21" stroke="#7a6b84" stroke-width="1.00" stroke-linecap="round"/><line x1="1078.25" y1="464.21" x2="1085.91" y2="464.21" stroke="#7a6b84" stroke-width="1.00" stroke-linecap="round"/><line x1="1085.91" y1="464.21" x2="1085.91" y2="376.67" stroke="#7a6b84" stroke-width="1.00" stroke-linecap="round"/><line x1="1085.91" y1="376.67" x2="1078.25" y2="376.67" stroke="#7a6b84" stroke-width="1.00" stroke-linecap="round"/><line x1="1078.25" y1="376.67" x2="1078.25" y2="464.21" stroke="#7a6b84" stroke-width="1.00" stroke-linecap="round"/><line x1="994.00" y1="458.74" x2="1020.26" y2="458.74" stroke="#7a6b84" stroke-width="1.00" stroke-linecap="round"/><line x1="1020.26" y1="458.74" x2="1020.26" y2="382.14" stroke="#7a6b84" stroke-width="1.00" stroke-linecap="round"/><line x1="1020.26" y1="382.14" x2="994.00" y2="382.14" stroke="#7a6b84" stroke-width="1.00" stroke-linecap="round"/><line x1="994.00" y1="382.14" x2="994.00" y2="458.74" stroke="#7a6b84" stroke-width="1.00" stroke-linecap="round"/><line x1="361.53" y1="672.11" x2="427.19" y2="672.11" stroke="#1fae8d" stroke-width="1.00" stroke-linecap="round"/><line x1="427.19" y1="672.11" x2="427.19" y2="628.34" stroke="#1fae8d" stroke-width="1.00" stroke-linecap="round"/><line x1="427.19" y1="628.34" x2="361.53" y2="628.34" stroke="#1fae8d" stroke-width="1.00" stroke-linecap="round"/><line x1="361.53" y1="628.34" x2="361.53" y2="672.11" stroke="#1fae8d" stroke-width="1.00" stroke-linecap="round"/><line x1="367.00" y1="562.69" x2="443.60" y2="562.69" stroke="#1fae8d" stroke-width="1.00" stroke-linecap="round"/><line x1="443.60" y1="562.69" x2="443.60" y2="540.81" stroke="#1fae8d" stroke-width="1.00" stroke-linecap="round"/><line x1="443.60" y1="540.81" x2="367.00" y2="540.81" stroke="#1fae8d" stroke-width="1.00" stroke-linecap="round"/><line x1="367.00" y1="540.81" x2="367.00" y2="562.69" stroke="#1fae8d" stroke-width="1.00" stroke-linecap="round"/><line x1="1061.84" y1="672.11" x2="1127.49" y2="672.11" stroke="#1fae8d" stroke-width="1.00" stroke-linecap="round"/><line x1="1127.49" y1="672.11" x2="1127.49" y2="628.34" stroke="#1fae8d" stroke-width="1.00" stroke-linecap="round"/><line x1="1127.49" y1="628.34" x2="1061.84" y2="628.34" stroke="#1fae8d" stroke-width="1.00" stroke-linecap="round"/><line x1="1061.84" y1="628.34" x2="1061.84" y2="672.11" stroke="#1fae8d" stroke-width="1.00" stroke-linecap="round"/><line x1="1045.42" y1="562.69" x2="1122.02" y2="562.69" stroke="#1fae8d" stroke-width="1.00" stroke-linecap="round"/><line x1="1122.02" y1="562.69" x2="1122.02" y2="540.81" stroke="#1fae8d" stroke-width="1.00" stroke-linecap="round"/><line x1="1122.02" y1="540.81" x2="1045.42" y2="540.81" stroke="#1fae8d" stroke-width="1.00" stroke-linecap="round"/><line x1="1045.42" y1="540.81" x2="1045.42" y2="562.69" stroke="#1fae8d" stroke-width="1.00" stroke-linecap="round"/><line x1="470.96" y1="672.11" x2="492.84" y2="672.11" stroke="#b16642" stroke-width="1.00" stroke-linecap="round"/><line x1="492.84" y1="672.11" x2="492.84" y2="540.81" stroke="#b16642" stroke-width="1.00" stroke-linecap="round"/><line x1="492.84" y1="540.81" x2="470.96" y2="540.81" stroke="#b16642" stroke-width="1.00" stroke-linecap="round"/><line x1="470.96" y1="540.81" x2="470.96" y2="672.11" stroke="#b16642" stroke-width="1.00" stroke-linecap="round"/><line x1="514.72" y1="672.11" x2="536.61" y2="672.11" stroke="#b16642" stroke-width="1.00" stroke-linecap="round"/><line x1="536.61" y1="672.11" x2="536.61" y2="540.81" stroke="#b16642" stroke-width="1.00" stroke-linecap="round"/><line x1="536.61" y1="540.81" x2="514.72" y2="540.81" stroke="#b16642" stroke-width="1.00" stroke-linecap="round"/><line x1="514.72" y1="540.81" x2="514.72" y2="672.11" stroke="#b16642" stroke-width="1.00" stroke-linecap="round"/><line x1="952.41" y1="672.11" x2="974.30" y2="672.11" stroke="#b16642" stroke-width="1.00" stroke-linecap="round"/><line x1="974.30" y1="672.11" x2="974.30" y2="540.81" stroke="#b16642" stroke-width="1.00" stroke-linecap="round"/><line x1="974.30" y1="540.81" x2="952.41" y2="540.81" stroke="#b16642" stroke-width="1.00" stroke-linecap="round"/><line x1="952.41" y1="540.81" x2="952.41" y2="672.11" stroke="#b16642" stroke-width="1.00" stroke-linecap="round"/><line x1="996.18" y1="672.11" x2="1018.07" y2="672.11" stroke="#b16642" stroke-width="1.00" stroke-linecap="round"/><line x1="1018.07" y1="672.11" x2="1018.07" y2="540.81" stroke="#b16642" stroke-width="1.00" stroke-linecap="round"/><line x1="1018.07" y1="540.81" x2="996.18" y2="540.81" stroke="#b16642" stroke-width="1.00" stroke-linecap="round"/><line x1="996.18" y1="540.81" x2="996.18" y2="672.11" stroke="#b16642" stroke-width="1.00" stroke-linecap="round"/><text x="460.01" y="819.83" transform="rotate(-0.00 460.01 819.83)" font-family="Arial, sans-serif" font-size="8.00" fill="#23172d">BEDROOM 2</text><text x="460.01" y="832.96" transform="rotate(-0.00 460.01 832.96)" font-family="Arial, sans-serif" font-size="8.00" fill="#23172d">24 x 24</text><text x="405.30" y="600.99" transform="rotate(-0.00 405.30 600.99)" font-family="Arial, sans-serif" font-size="8.00" fill="#23172d">BATH 2</text><text x="405.30" y="614.12" transform="rotate(-0.00 405.30 614.12)" font-family="Arial, sans-serif" font-size="8.00" fill="#23172d">10 x 14</text><text x="503.78" y="600.99" transform="rotate(-0.00 503.78 600.99)" font-family="Arial, sans-serif" font-size="8.00" fill="#23172d">WALK-IN CLOSET</text><text x="503.78" y="614.12" transform="rotate(-0.00 503.78 614.12)" font-family="Arial, sans-serif" font-size="8.00" fill="#23172d">8 x 14</text><text x="481.90" y="404.03" transform="rotate(-0.00 481.90 404.03)" font-family="Arial, sans-serif" font-size="8.00" fill="#23172d">MEDIA LOUNGE</text><text x="481.90" y="417.16" transform="rotate(-0.00 481.90 417.16)" font-family="Arial, sans-serif" font-size="8.00" fill="#23172d">24 x 22</text><text x="744.51" y="858.13" transform="rotate(-0.00 744.51 858.13)" font-family="Arial, sans-serif" font-size="8.00" fill="#23172d">LIBRARY BRIDGE</text><text x="744.51" y="871.26" transform="rotate(-0.00 744.51 871.26)" font-family="Arial, sans-serif" font-size="8.00" fill="#23172d">24 x 15</text><text x="777.34" y="633.81" transform="rotate(-0.00 777.34 633.81)" font-family="Arial, sans-serif" font-size="8.00" fill="#23172d">OPEN TO GREAT ROOM</text><text x="777.34" y="646.95" transform="rotate(-0.00 777.34 646.95)" font-family="Arial, sans-serif" font-size="8.00" fill="#23172d">30 x 23</text><text x="1029.01" y="819.83" transform="rotate(-0.00 1029.01 819.83)" font-family="Arial, sans-serif" font-size="8.00" fill="#23172d">BEDROOM 3</text><text x="1029.01" y="832.96" transform="rotate(-0.00 1029.01 832.96)" font-family="Arial, sans-serif" font-size="8.00" fill="#23172d">24 x 24</text><text x="1083.72" y="600.99" transform="rotate(-0.00 1083.72 600.99)" font-family="Arial, sans-serif" font-size="8.00" fill="#23172d">BATH 3</text><text x="1083.72" y="614.12" transform="rotate(-0.00 1083.72 614.12)" font-family="Arial, sans-serif" font-size="8.00" fill="#23172d">10 x 14</text><text x="985.24" y="600.99" transform="rotate(-0.00 985.24 600.99)" font-family="Arial, sans-serif" font-size="8.00" fill="#23172d">WALK-IN CLOSET</text><text x="985.24" y="614.12" transform="rotate(-0.00 985.24 614.12)" font-family="Arial, sans-serif" font-size="8.00" fill="#23172d">8 x 14</text><text x="1007.13" y="404.03" transform="rotate(-0.00 1007.13 404.03)" font-family="Arial, sans-serif" font-size="8.00" fill="#23172d">PRIVATE GYM</text><text x="1007.13" y="417.16" transform="rotate(-0.00 1007.13 417.16)" font-family="Arial, sans-serif" font-size="8.00" fill="#23172d">24 x 22</text><text x="788.28" y="327.43" transform="rotate(-0.00 788.28 327.43)" font-family="Arial, sans-serif" font-size="8.00" fill="#23172d">OPEN COURTYARD</text><text x="788.28" y="340.56" transform="rotate(-0.00 788.28 340.56)" font-family="Arial, sans-serif" font-size="8.00" fill="#23172d">12 x 16</text><text x="667.92" y="305.55" transform="rotate(-0.00 667.92 305.55)" font-family="Arial, sans-serif" font-size="8.00" fill="#23172d">STAIR / LANDING</text><text x="667.92" y="318.68" transform="rotate(-0.00 667.92 318.68)" font-family="Arial, sans-serif" font-size="8.00" fill="#23172d">10 x 24</text><line x1="350.59" y1="945.67" x2="350.59" y2="1022.26" stroke="#8c8294" stroke-width="1.00" stroke-linecap="round"/><line x1="1138.43" y1="945.67" x2="1138.43" y2="1022.26" stroke="#8c8294" stroke-width="1.00" stroke-linecap="round"/><line x1="350.59" y1="1022.26" x2="1138.43" y2="1022.26" stroke="#8c8294" stroke-width="1.00" stroke-linecap="round"/><line x1="350.59" y1="1022.26" x2="356.06" y2="1019.53" stroke="#8c8294" stroke-width="1.00" stroke-linecap="round"/><line x1="350.59" y1="1022.26" x2="356.06" y2="1025.00" stroke="#8c8294" stroke-width="1.00" stroke-linecap="round"/><line x1="1138.43" y1="1022.26" x2="1132.96" y2="1019.53" stroke="#8c8294" stroke-width="1.00" stroke-linecap="round"/><line x1="1138.43" y1="1022.26" x2="1132.96" y2="1025.00" stroke="#8c8294" stroke-width="1.00" stroke-linecap="round"/><text x="744.51" y="1015.70" transform="rotate(-0.00 744.51 1015.70)" font-family="Arial, sans-serif" font-size="8.00" fill="#8c8294">72&#x27;-0&quot;</text><line x1="1138.43" y1="945.67" x2="1215.03" y2="945.67" stroke="#8c8294" stroke-width="1.00" stroke-linecap="round"/><line x1="1138.43" y1="289.13" x2="1215.03" y2="289.13" stroke="#8c8294" stroke-width="1.00" stroke-linecap="round"/><line x1="1215.03" y1="945.67" x2="1215.03" y2="289.13" stroke="#8c8294" stroke-width="1.00" stroke-linecap="round"/><line x1="1215.03" y1="945.67" x2="1217.76" y2="940.20" stroke="#8c8294" stroke-width="1.00" stroke-linecap="round"/><line x1="1215.03" y1="945.67" x2="1212.29" y2="940.20" stroke="#8c8294" stroke-width="1.00" stroke-linecap="round"/><line x1="1215.03" y1="289.13" x2="1217.76" y2="294.60" stroke="#8c8294" stroke-width="1.00" stroke-linecap="round"/><line x1="1215.03" y1="289.13" x2="1212.29" y2="294.60" stroke="#8c8294" stroke-width="1.00" stroke-linecap="round"/><text x="1223.78" y="617.40" transform="rotate(-90.00 1223.78 617.40)" font-family="Arial, sans-serif" font-size="8.00" fill="#8c8294">60&#x27;-0&quot;</text><line x1="613.20" y1="781.53" x2="613.20" y2="737.77" stroke="#8c8294" stroke-width="1.00" stroke-linecap="round"/><line x1="875.82" y1="781.53" x2="875.82" y2="737.77" stroke="#8c8294" stroke-width="1.00" stroke-linecap="round"/><line x1="613.20" y1="737.77" x2="875.82" y2="737.77" stroke="#8c8294" stroke-width="1.00" stroke-linecap="round"/><line x1="613.20" y1="737.77" x2="618.68" y2="735.03" stroke="#8c8294" stroke-width="1.00" stroke-linecap="round"/><line x1="613.20" y1="737.77" x2="618.68" y2="740.50" stroke="#8c8294" stroke-width="1.00" stroke-linecap="round"/><line x1="875.82" y1="737.77" x2="870.35" y2="735.03" stroke="#8c8294" stroke-width="1.00" stroke-linecap="round"/><line x1="875.82" y1="737.77" x2="870.35" y2="740.50" stroke="#8c8294" stroke-width="1.00" stroke-linecap="round"/><text x="744.51" y="731.20" transform="rotate(-0.00 744.51 731.20)" font-family="Arial, sans-serif" font-size="8.00" fill="#8c8294">24&#x27;-0&quot;</text><line x1="613.20" y1="529.86" x2="613.20" y2="486.09" stroke="#8c8294" stroke-width="1.00" stroke-linecap="round"/><line x1="941.47" y1="529.86" x2="941.47" y2="486.09" stroke="#8c8294" stroke-width="1.00" stroke-linecap="round"/><line x1="613.20" y1="486.09" x2="941.47" y2="486.09" stroke="#8c8294" stroke-width="1.00" stroke-linecap="round"/><line x1="613.20" y1="486.09" x2="618.68" y2="483.36" stroke="#8c8294" stroke-width="1.00" stroke-linecap="round"/><line x1="613.20" y1="486.09" x2="618.68" y2="488.83" stroke="#8c8294" stroke-width="1.00" stroke-linecap="round"/><line x1="941.47" y1="486.09" x2="936.00" y2="483.36" stroke="#8c8294" stroke-width="1.00" stroke-linecap="round"/><line x1="941.47" y1="486.09" x2="936.00" y2="488.83" stroke="#8c8294" stroke-width="1.00" stroke-linecap="round"/><text x="777.34" y="479.53" transform="rotate(-0.00 777.34 479.53)" font-family="Arial, sans-serif" font-size="8.00" fill="#8c8294">30&#x27;-0&quot;</text><text x="744.51" y="135.94" transform="rotate(-0.00 744.51 135.94)" font-family="Arial, sans-serif" font-size="8.53" fill="#4d4256">LUXURY CUSTOM HOME — UPPER FLOOR PLAN</text><text x="744.51" y="163.30" transform="rotate(-0.00 744.51 163.30)" font-family="Arial, sans-serif" font-size="8.00" fill="#4d4256">Bridge circulation surrounds the double-height great room and glass courtyard</text></g><text x="1520" y="1028" text-anchor="end" font-family="Arial, sans-serif" font-size="16" fill="#8c8294">DXF preview • dimensions remain in the downloadable drawing</text></svg>